<mxfile host="app.diagrams.net" modified="2022-08-07T13:35:49.522Z" agent="5.0 (Macintosh; Intel Mac OS X 10_15_7) AppleWebKit/537.36 (KHTML, like Gecko) Chrome/104.0.0.0 Safari/537.36" etag="ffWQLIHGxUkVv6ciUe_9" version="20.2.3" type="github">
  <diagram id="uSPIYPefB3MRxi7j6vQ_" name="Page-1">
    <mxGraphModel dx="1283" dy="682" grid="1" gridSize="10" guides="1" tooltips="1" connect="1" arrows="1" fold="1" page="1" pageScale="1" pageWidth="1654" pageHeight="1169" math="0" shadow="0">
      <root>
        <mxCell id="0" />
        <mxCell id="1" parent="0" />
        <mxCell id="K1biZ6rLLo8ohPyC0jWG-41" value="&lt;div&gt;&lt;br&gt;&lt;/div&gt;&lt;div style=&quot;line-height: 1.2;&quot;&gt;Content management,&amp;nbsp;&lt;/div&gt;&lt;div&gt;catalogs, user profiles&lt;/div&gt;" style="text;html=1;align=center;verticalAlign=middle;resizable=0;points=[];autosize=1;strokeColor=none;fillColor=none;fontSize=10;fontColor=#000000;" vertex="1" parent="1">
          <mxGeometry x="827" y="387" width="130" height="50" as="geometry" />
        </mxCell>
        <mxCell id="K1biZ6rLLo8ohPyC0jWG-43" value="" style="rounded=1;whiteSpace=wrap;html=1;fontSize=10;fontColor=#000000;strokeColor=#000000;strokeWidth=1;fillColor=none;" vertex="1" parent="1">
          <mxGeometry x="837" y="403" width="108" height="31" as="geometry" />
        </mxCell>
        <mxCell id="K1biZ6rLLo8ohPyC0jWG-35" value="" style="rounded=1;whiteSpace=wrap;html=1;fontSize=10;fontColor=#000000;strokeColor=#000000;strokeWidth=1;fillColor=none;" vertex="1" parent="1">
          <mxGeometry x="42" y="467" width="164" height="65" as="geometry" />
        </mxCell>
        <mxCell id="pxv3xzFt327UOerhejlW-4" value="Relational&lt;br&gt;DB" style="sketch=0;points=[[0.015,0.015,0],[0.985,0.015,0],[0.985,0.985,0],[0.015,0.985,0],[0.25,0,0],[0.5,0,0],[0.75,0,0],[1,0.25,0],[1,0.5,0],[1,0.75,0],[0.75,1,0],[0.5,1,0],[0.25,1,0],[0,0.75,0],[0,0.5,0],[0,0.25,0]];verticalLabelPosition=bottom;html=1;verticalAlign=top;aspect=fixed;align=center;pointerEvents=1;shape=mxgraph.cisco19.rect;prIcon=database_relational;fillColor=#FAFAFA;strokeColor=#000000;" parent="1" vertex="1">
          <mxGeometry x="69" y="186.25" width="50" height="50" as="geometry" />
        </mxCell>
        <mxCell id="pxv3xzFt327UOerhejlW-5" value="Key- Value" style="points=[[0,0.5,0],[0.24,0,0],[0.5,0.28,0],[0.995,0.475,0],[0.5,0.72,0],[0.24,1,0]];verticalLabelPosition=bottom;sketch=0;html=1;verticalAlign=top;aspect=fixed;align=center;pointerEvents=1;shape=mxgraph.cisco19.key;fillColor=#000000;strokeColor=none;" parent="1" vertex="1">
          <mxGeometry x="256" y="186.25" width="50" height="22.5" as="geometry" />
        </mxCell>
        <mxCell id="pxv3xzFt327UOerhejlW-7" value="In-memory" style="shape=image;html=1;verticalAlign=top;verticalLabelPosition=bottom;labelBackgroundColor=#ffffff;imageAspect=0;aspect=fixed;image=https://cdn1.iconfinder.com/data/icons/cloud-72/64/ram-memory-storage-cloud-infrastructure-virtual-server-128.png;strokeColor=#000000;fillColor=#000000;" parent="1" vertex="1">
          <mxGeometry x="472" y="186.25" width="50" height="50" as="geometry" />
        </mxCell>
        <mxCell id="pxv3xzFt327UOerhejlW-8" value="Document" style="sketch=0;aspect=fixed;pointerEvents=1;shadow=0;dashed=0;html=1;strokeColor=none;labelPosition=center;verticalLabelPosition=bottom;verticalAlign=top;align=center;fillColor=#000000;shape=mxgraph.mscae.enterprise.document" parent="1" vertex="1">
          <mxGeometry x="869" y="186.25" width="40" height="50" as="geometry" />
        </mxCell>
        <mxCell id="pxv3xzFt327UOerhejlW-9" value="Ledger" style="aspect=fixed;perimeter=ellipsePerimeter;html=1;align=center;shadow=0;dashed=0;fontColor=#000000;labelBackgroundColor=#ffffff;fontSize=12;spacingTop=3;image;image=img/lib/ibm/blockchain/ledger.svg;strokeColor=#000000;fillColor=#000000;" parent="1" vertex="1">
          <mxGeometry x="1050" y="186.25" width="50" height="50" as="geometry" />
        </mxCell>
        <mxCell id="pxv3xzFt327UOerhejlW-11" value="Time Series" style="sketch=0;aspect=fixed;html=1;points=[];align=center;image;fontSize=12;image=img/lib/mscae/Time_Series_Insights_environments.svg;fontColor=#000000;strokeColor=#000000;fillColor=#000000;" parent="1" vertex="1">
          <mxGeometry x="1219" y="186.25" width="49" height="50" as="geometry" />
        </mxCell>
        <mxCell id="pxv3xzFt327UOerhejlW-12" value="Wide column" style="sketch=0;pointerEvents=1;shadow=0;dashed=0;html=1;strokeColor=none;fillColor=#000000;labelPosition=center;verticalLabelPosition=bottom;verticalAlign=top;outlineConnect=0;align=center;shape=mxgraph.office.concepts.column;fontColor=#000000;" parent="1" vertex="1">
          <mxGeometry x="685" y="186.25" width="52" height="43" as="geometry" />
        </mxCell>
        <mxCell id="pxv3xzFt327UOerhejlW-13" value="" style="shape=image;html=1;verticalAlign=top;verticalLabelPosition=bottom;labelBackgroundColor=#ffffff;imageAspect=0;aspect=fixed;image=https://cdn4.iconfinder.com/data/icons/evil-icons-user-interface/64/share-128.png;fontColor=#000000;strokeColor=#000000;fillColor=#000000;" parent="1" vertex="1">
          <mxGeometry x="1369" y="186.25" width="50" height="50" as="geometry" />
        </mxCell>
        <mxCell id="pxv3xzFt327UOerhejlW-17" value="Amazon DynamoDB" style="sketch=0;outlineConnect=0;fontColor=#232F3E;gradientColor=none;strokeColor=#ffffff;fillColor=#232F3E;dashed=0;verticalLabelPosition=middle;verticalAlign=bottom;align=center;html=1;whiteSpace=wrap;fontSize=10;fontStyle=1;spacing=3;shape=mxgraph.aws4.productIcon;prIcon=mxgraph.aws4.dynamodb;" parent="1" vertex="1">
          <mxGeometry x="261" y="280" width="40" height="70" as="geometry" />
        </mxCell>
        <mxCell id="pxv3xzFt327UOerhejlW-23" value="Amazon&amp;nbsp;&lt;br&gt;Keyspaces" style="sketch=0;points=[[0,0,0],[0.25,0,0],[0.5,0,0],[0.75,0,0],[1,0,0],[0,1,0],[0.25,1,0],[0.5,1,0],[0.75,1,0],[1,1,0],[0,0.25,0],[0,0.5,0],[0,0.75,0],[1,0.25,0],[1,0.5,0],[1,0.75,0]];outlineConnect=0;fontColor=#232F3E;gradientColor=#4D72F3;gradientDirection=north;fillColor=#3334B9;strokeColor=#ffffff;dashed=0;verticalLabelPosition=bottom;verticalAlign=top;align=center;html=1;fontSize=12;fontStyle=0;shape=mxgraph.aws4.resourceIcon;resIcon=mxgraph.aws4.managed_apache_cassandra_service;aspect=fixed;" parent="1" vertex="1">
          <mxGeometry x="690.165" y="280" width="41.67" height="50" as="geometry" />
        </mxCell>
        <mxCell id="K1biZ6rLLo8ohPyC0jWG-1" value="Amazon &lt;br&gt;DocumentDB &lt;br&gt;(with MongoDB &lt;br&gt;compatibility)" style="sketch=0;points=[[0,0,0],[0.25,0,0],[0.5,0,0],[0.75,0,0],[1,0,0],[0,1,0],[0.25,1,0],[0.5,1,0],[0.75,1,0],[1,1,0],[0,0.25,0],[0,0.5,0],[0,0.75,0],[1,0.25,0],[1,0.5,0],[1,0.75,0]];outlineConnect=0;fontColor=#232F3E;gradientColor=#4D72F3;gradientDirection=north;fillColor=#3334B9;strokeColor=#ffffff;dashed=0;verticalLabelPosition=bottom;verticalAlign=top;align=center;html=1;fontSize=12;fontStyle=0;aspect=fixed;shape=mxgraph.aws4.resourceIcon;resIcon=mxgraph.aws4.documentdb_with_mongodb_compatibility;" vertex="1" parent="1">
          <mxGeometry x="865" y="280" width="48" height="48" as="geometry" />
        </mxCell>
        <mxCell id="K1biZ6rLLo8ohPyC0jWG-2" value="&lt;div&gt;Amazon&amp;nbsp;&lt;/div&gt;&lt;div&gt;Quantum&amp;nbsp;&lt;/div&gt;&lt;div&gt;Ledger&amp;nbsp;&lt;/div&gt;&lt;div&gt;Database (QLDB)&lt;/div&gt;" style="sketch=0;points=[[0,0,0],[0.25,0,0],[0.5,0,0],[0.75,0,0],[1,0,0],[0,1,0],[0.25,1,0],[0.5,1,0],[0.75,1,0],[1,1,0],[0,0.25,0],[0,0.5,0],[0,0.75,0],[1,0.25,0],[1,0.5,0],[1,0.75,0]];outlineConnect=0;fontColor=#232F3E;gradientColor=#4D72F3;gradientDirection=north;fillColor=#3334B9;strokeColor=#ffffff;dashed=0;verticalLabelPosition=bottom;verticalAlign=top;align=center;html=1;fontSize=12;fontStyle=0;aspect=fixed;shape=mxgraph.aws4.resourceIcon;resIcon=mxgraph.aws4.quantum_ledger_database;" vertex="1" parent="1">
          <mxGeometry x="1050" y="280" width="50" height="50" as="geometry" />
        </mxCell>
        <mxCell id="K1biZ6rLLo8ohPyC0jWG-4" value="" style="group" vertex="1" connectable="0" parent="1">
          <mxGeometry x="397" y="280" width="200" height="185" as="geometry" />
        </mxCell>
        <mxCell id="pxv3xzFt327UOerhejlW-21" value="" style="rounded=1;whiteSpace=wrap;html=1;fontColor=#000000;strokeColor=#000000;fillColor=none;" parent="K1biZ6rLLo8ohPyC0jWG-4" vertex="1">
          <mxGeometry y="19" width="200" height="166" as="geometry" />
        </mxCell>
        <mxCell id="pxv3xzFt327UOerhejlW-18" value="Amazon ElastiCache for Redis" style="sketch=0;outlineConnect=0;fontColor=#232F3E;gradientColor=none;strokeColor=#ffffff;fillColor=#232F3E;dashed=0;verticalLabelPosition=middle;verticalAlign=bottom;align=center;html=1;whiteSpace=wrap;fontSize=10;fontStyle=1;spacing=3;shape=mxgraph.aws4.productIcon;prIcon=mxgraph.aws4.elasticache_for_redis;" parent="K1biZ6rLLo8ohPyC0jWG-4" vertex="1">
          <mxGeometry x="27" y="105" width="40" height="70" as="geometry" />
        </mxCell>
        <mxCell id="pxv3xzFt327UOerhejlW-20" value="Amazon ElastiCache" style="sketch=0;outlineConnect=0;fontColor=#232F3E;gradientColor=none;strokeColor=#ffffff;fillColor=#232F3E;dashed=0;verticalLabelPosition=middle;verticalAlign=bottom;align=center;html=1;whiteSpace=wrap;fontSize=10;fontStyle=1;spacing=3;shape=mxgraph.aws4.productIcon;prIcon=mxgraph.aws4.elasticache;" parent="K1biZ6rLLo8ohPyC0jWG-4" vertex="1">
          <mxGeometry x="135" y="105" width="40" height="70" as="geometry" />
        </mxCell>
        <mxCell id="pxv3xzFt327UOerhejlW-19" value="Amazon ElastiCache for Memcached" style="sketch=0;outlineConnect=0;fontColor=#232F3E;gradientColor=none;strokeColor=#ffffff;fillColor=#232F3E;dashed=0;verticalLabelPosition=middle;verticalAlign=bottom;align=center;html=1;whiteSpace=wrap;fontSize=10;fontStyle=1;spacing=3;shape=mxgraph.aws4.productIcon;prIcon=mxgraph.aws4.elasticache_for_memcached;" parent="K1biZ6rLLo8ohPyC0jWG-4" vertex="1">
          <mxGeometry x="79" width="40" height="100" as="geometry" />
        </mxCell>
        <mxCell id="K1biZ6rLLo8ohPyC0jWG-6" value="" style="group" vertex="1" connectable="0" parent="1">
          <mxGeometry x="31" y="282" width="126" height="162" as="geometry" />
        </mxCell>
        <mxCell id="pxv3xzFt327UOerhejlW-14" value="Amazon&#xa;Aurora" style="sketch=0;outlineConnect=0;fontColor=#232F3E;gradientColor=none;strokeColor=#ffffff;fillColor=#232F3E;dashed=0;verticalLabelPosition=middle;verticalAlign=bottom;align=center;html=1;whiteSpace=wrap;fontSize=10;fontStyle=1;spacing=3;shape=mxgraph.aws4.productIcon;prIcon=mxgraph.aws4.aurora;" parent="K1biZ6rLLo8ohPyC0jWG-6" vertex="1">
          <mxGeometry x="10" y="12" width="40" height="70" as="geometry" />
        </mxCell>
        <mxCell id="pxv3xzFt327UOerhejlW-15" value="Amazon RDS" style="sketch=0;outlineConnect=0;fontColor=#232F3E;gradientColor=none;strokeColor=#ffffff;fillColor=#232F3E;dashed=0;verticalLabelPosition=middle;verticalAlign=bottom;align=center;html=1;whiteSpace=wrap;fontSize=10;fontStyle=1;spacing=3;shape=mxgraph.aws4.productIcon;prIcon=mxgraph.aws4.rds;" parent="K1biZ6rLLo8ohPyC0jWG-6" vertex="1">
          <mxGeometry x="79" y="12" width="40" height="70" as="geometry" />
        </mxCell>
        <mxCell id="pxv3xzFt327UOerhejlW-16" value="Amazon Redshift" style="sketch=0;outlineConnect=0;fontColor=#232F3E;gradientColor=none;strokeColor=#ffffff;fillColor=#232F3E;dashed=0;verticalLabelPosition=middle;verticalAlign=bottom;align=center;html=1;whiteSpace=wrap;fontSize=10;fontStyle=1;spacing=3;shape=mxgraph.aws4.productIcon;prIcon=mxgraph.aws4.redshift;" parent="K1biZ6rLLo8ohPyC0jWG-6" vertex="1">
          <mxGeometry x="10" y="92" width="40" height="70" as="geometry" />
        </mxCell>
        <mxCell id="pxv3xzFt327UOerhejlW-22" value="" style="rounded=1;whiteSpace=wrap;html=1;fontColor=#000000;strokeColor=#000000;fillColor=none;" parent="K1biZ6rLLo8ohPyC0jWG-6" vertex="1">
          <mxGeometry width="126" height="162" as="geometry" />
        </mxCell>
        <mxCell id="K1biZ6rLLo8ohPyC0jWG-7" value="Amazon &lt;br&gt;Timestream" style="sketch=0;points=[[0,0,0],[0.25,0,0],[0.5,0,0],[0.75,0,0],[1,0,0],[0,1,0],[0.25,1,0],[0.5,1,0],[0.75,1,0],[1,1,0],[0,0.25,0],[0,0.5,0],[0,0.75,0],[1,0.25,0],[1,0.5,0],[1,0.75,0]];outlineConnect=0;fontColor=#232F3E;gradientColor=#4D72F3;gradientDirection=north;fillColor=#3334B9;strokeColor=#ffffff;dashed=0;verticalLabelPosition=bottom;verticalAlign=top;align=center;html=1;fontSize=12;fontStyle=0;aspect=fixed;shape=mxgraph.aws4.resourceIcon;resIcon=mxgraph.aws4.timestream;" vertex="1" parent="1">
          <mxGeometry x="1219.5" y="280" width="50" height="50" as="geometry" />
        </mxCell>
        <mxCell id="K1biZ6rLLo8ohPyC0jWG-8" value="Amazon Neptune" style="sketch=0;points=[[0,0,0],[0.25,0,0],[0.5,0,0],[0.75,0,0],[1,0,0],[0,1,0],[0.25,1,0],[0.5,1,0],[0.75,1,0],[1,1,0],[0,0.25,0],[0,0.5,0],[0,0.75,0],[1,0.25,0],[1,0.5,0],[1,0.75,0]];outlineConnect=0;fontColor=#232F3E;gradientColor=#4D72F3;gradientDirection=north;fillColor=#3334B9;strokeColor=#ffffff;dashed=0;verticalLabelPosition=bottom;verticalAlign=top;align=center;html=1;fontSize=12;fontStyle=0;aspect=fixed;shape=mxgraph.aws4.resourceIcon;resIcon=mxgraph.aws4.neptune;" vertex="1" parent="1">
          <mxGeometry x="1369" y="276" width="50" height="50" as="geometry" />
        </mxCell>
        <mxCell id="K1biZ6rLLo8ohPyC0jWG-19" value="" style="rounded=0;whiteSpace=wrap;html=1;dashed=1;fontColor=#000000;strokeColor=#FF9933;fillColor=none;strokeWidth=2;" vertex="1" parent="1">
          <mxGeometry x="102.82" y="287" width="57.18" height="75" as="geometry" />
        </mxCell>
        <mxCell id="K1biZ6rLLo8ohPyC0jWG-20" value="" style="endArrow=none;html=1;rounded=0;fontColor=#000000;dashed=1;strokeColor=#FF9933;strokeWidth=2;" edge="1" parent="1">
          <mxGeometry width="50" height="50" relative="1" as="geometry">
            <mxPoint x="127" y="450" as="sourcePoint" />
            <mxPoint x="127" y="360" as="targetPoint" />
          </mxGeometry>
        </mxCell>
        <mxCell id="K1biZ6rLLo8ohPyC0jWG-21" value="" style="strokeWidth=1;html=1;shape=mxgraph.flowchart.annotation_1;align=left;pointerEvents=1;fontColor=#000000;fillColor=none;direction=south;" vertex="1" parent="1">
          <mxGeometry x="90" y="154" width="1300" height="16" as="geometry" />
        </mxCell>
        <mxCell id="K1biZ6rLLo8ohPyC0jWG-22" value="" style="group" vertex="1" connectable="0" parent="1">
          <mxGeometry x="704" y="89" width="170" height="50" as="geometry" />
        </mxCell>
        <mxCell id="pxv3xzFt327UOerhejlW-1" value="" style="rounded=1;whiteSpace=wrap;html=1;fillColor=none;" parent="K1biZ6rLLo8ohPyC0jWG-22" vertex="1">
          <mxGeometry x="5" width="160" height="50" as="geometry" />
        </mxCell>
        <mxCell id="pxv3xzFt327UOerhejlW-2" value="AWS&amp;nbsp; Database Service&lt;br&gt;(&lt;b&gt;Purpose-built databases&lt;/b&gt;)" style="text;html=1;align=center;verticalAlign=middle;resizable=0;points=[];autosize=1;strokeColor=none;fillColor=none;" parent="K1biZ6rLLo8ohPyC0jWG-22" vertex="1">
          <mxGeometry y="5" width="170" height="40" as="geometry" />
        </mxCell>
        <mxCell id="K1biZ6rLLo8ohPyC0jWG-24" value="" style="line;strokeWidth=1;direction=south;html=1;fontColor=#000000;fillColor=none;" vertex="1" parent="1">
          <mxGeometry x="270" y="154" width="10" height="14" as="geometry" />
        </mxCell>
        <mxCell id="K1biZ6rLLo8ohPyC0jWG-25" value="" style="line;strokeWidth=1;direction=south;html=1;fontColor=#000000;fillColor=none;" vertex="1" parent="1">
          <mxGeometry x="489" y="153" width="10" height="14" as="geometry" />
        </mxCell>
        <mxCell id="K1biZ6rLLo8ohPyC0jWG-26" value="" style="line;strokeWidth=1;direction=south;html=1;fontColor=#000000;fillColor=none;" vertex="1" parent="1">
          <mxGeometry x="700" y="154" width="10" height="14" as="geometry" />
        </mxCell>
        <mxCell id="K1biZ6rLLo8ohPyC0jWG-27" value="" style="line;strokeWidth=1;direction=south;html=1;fontColor=#000000;fillColor=none;" vertex="1" parent="1">
          <mxGeometry x="880" y="154" width="10" height="14" as="geometry" />
        </mxCell>
        <mxCell id="K1biZ6rLLo8ohPyC0jWG-28" value="" style="line;strokeWidth=1;direction=south;html=1;fontColor=#000000;fillColor=none;" vertex="1" parent="1">
          <mxGeometry x="1067" y="153" width="10" height="14" as="geometry" />
        </mxCell>
        <mxCell id="K1biZ6rLLo8ohPyC0jWG-29" value="" style="line;strokeWidth=1;direction=south;html=1;fontColor=#000000;fillColor=none;" vertex="1" parent="1">
          <mxGeometry x="1234" y="153" width="10" height="14" as="geometry" />
        </mxCell>
        <mxCell id="K1biZ6rLLo8ohPyC0jWG-30" value="" style="endArrow=none;html=1;rounded=0;fontColor=#000000;dashed=1;strokeColor=#FF9933;strokeWidth=2;" edge="1" parent="1">
          <mxGeometry width="50" height="50" relative="1" as="geometry">
            <mxPoint x="40" y="450" as="sourcePoint" />
            <mxPoint x="119" y="450" as="targetPoint" />
          </mxGeometry>
        </mxCell>
        <mxCell id="K1biZ6rLLo8ohPyC0jWG-31" value="" style="endArrow=none;html=1;rounded=0;fontColor=#000000;dashed=1;strokeColor=#FF9933;strokeWidth=2;entryX=0.124;entryY=-0.011;entryDx=0;entryDy=0;entryPerimeter=0;" edge="1" parent="1" target="K1biZ6rLLo8ohPyC0jWG-18">
          <mxGeometry width="50" height="50" relative="1" as="geometry">
            <mxPoint x="34" y="450" as="sourcePoint" />
            <mxPoint x="34" y="500" as="targetPoint" />
          </mxGeometry>
        </mxCell>
        <mxCell id="K1biZ6rLLo8ohPyC0jWG-33" value="&lt;div&gt;&lt;span style=&quot;background-color: initial;&quot;&gt;Traditional applications, enterprise&amp;nbsp;&lt;/span&gt;&lt;br&gt;&lt;/div&gt;&lt;div&gt;resource&amp;nbsp;&lt;span style=&quot;background-color: initial;&quot;&gt;planning (ERP), customer&lt;/span&gt;&lt;/div&gt;&lt;div&gt;&lt;span style=&quot;background-color: initial;&quot;&gt;&amp;nbsp;relationship&amp;nbsp;&lt;/span&gt;&lt;span style=&quot;background-color: initial;&quot;&gt;management (CRM),&amp;nbsp;&lt;/span&gt;&lt;/div&gt;&lt;div&gt;&lt;span style=&quot;background-color: initial;&quot;&gt;ecommerce&lt;/span&gt;&lt;/div&gt;" style="text;html=1;align=left;verticalAlign=middle;resizable=0;points=[];autosize=1;strokeColor=none;fillColor=none;fontSize=10;fontColor=#000000;" vertex="1" parent="1">
          <mxGeometry x="46" y="470" width="180" height="60" as="geometry" />
        </mxCell>
        <mxCell id="K1biZ6rLLo8ohPyC0jWG-34" value="" style="group" vertex="1" connectable="0" parent="1">
          <mxGeometry x="17" y="560" width="133" height="255" as="geometry" />
        </mxCell>
        <mxCell id="K1biZ6rLLo8ohPyC0jWG-18" value="" style="rounded=1;whiteSpace=wrap;html=1;fontColor=#000000;strokeColor=#FF9933;fillColor=none;dashed=1;" vertex="1" parent="K1biZ6rLLo8ohPyC0jWG-34">
          <mxGeometry width="133" height="255" as="geometry" />
        </mxCell>
        <mxCell id="K1biZ6rLLo8ohPyC0jWG-10" value="" style="sketch=0;outlineConnect=0;fontColor=#232F3E;gradientColor=none;fillColor=#000000;strokeColor=none;dashed=0;verticalLabelPosition=bottom;verticalAlign=top;align=center;html=1;fontSize=12;fontStyle=0;aspect=fixed;pointerEvents=1;shape=mxgraph.aws4.rds_mysql_instance;" vertex="1" parent="K1biZ6rLLo8ohPyC0jWG-34">
          <mxGeometry x="12" y="12.160000000000082" width="40" height="40" as="geometry" />
        </mxCell>
        <mxCell id="K1biZ6rLLo8ohPyC0jWG-13" value="PostgreSql" style="shape=image;verticalLabelPosition=bottom;labelBackgroundColor=default;verticalAlign=top;imageAspect=0;image=data:image/png,iVBORw0KGgoAAAANSUhEUgAAAoAAAAKUCAYAAACUiomuAAAABGdBTUEAALGPC/xhBQAAACBjSFJNAAB6JgAAgIQAAPoAAACA6AAAdTAAAOpgAAA6mAAAF3CculE8AAAABmJLR0QA/wD/AP+gvaeTAACAAElEQVR42uydd3hb5fXHvxqWLU957z3jle3snUA2EHbZo0DLKKuF/qCslhZKS5mFMgMkISRk772dOMOOE894771t2ZYs6feHTJpChse50pV0Ps+jx5nnvvfcV/d+73nfc44EDMMwDGN9qAB49H/cL/Nrl/5/Y9f/ayUABwCu/X/mdgW7LgDkl/y+F4AagB5AW/+ftfX/Xn3J3zcDaLnGzya+bIypkLALGIZhGAvCEUA4gBAAvgCCrvBTYYHn1gugqv9T/rNfVwOoAFDXLy4ZhgUgwzAMYzVI+8VdTL/QC7vkZ1i/uLNlNAAKAeQBuND/86dft/D0YVgAMgzDMGLGAUACgFgAI/oFX2z/TyW7Z0jUA8gFkN//Mx1ABoAOdg3DApBhGIYxNa4AkgGMBRDfL/zGAbBn15iEGgBnLvkcBUcLWQCyCxiGYRhCggGMBjCq/zMaxqVbRjzoYFw2Pt3/OQggG4CBXcMCkGEYhmGuhROACQCmApgMY1TPk91ikTT0C8GDAA7AuITMsABkGIaxaHwBeAPw6v/89GvP/o8jjMuUDjDuP7tWKZBLaQPQ1/9TA6AL/y3/0dH/dy39PzsA9ADo7n/gNl7yabAQP07pF3xTAIzB/5ZEYayH2n4h+JMgLGCXsABkGMCYqffzh6Pqkjl1aU2srv4HI8MIhTeMiQQRAEJhzCK99ONgAeeg+5kYrL9EJDb0f+pgLAVSAUBrgjGFA5gFYBqMEb4Ynmo2SyWAbQA29gvCXnYJC0DGcnEA4A8goP/jjf8WSb20cKpzv9j7KTriMsS3fh2A9p+Jwp/+TA1jEdSfiqE29T/4mn/2581847Fp/GHcVxYPIK7/MwK2t+zY1/9ALvnZp7j/Z+0Q7Tr1C77r+z/RPOWYy9ABYAeATQC2A2hll7AAZMSFC4DI/qjITz/DYSyU6t8v7iyRThiLo/4UCSnv//z0+zIYl9gYy8Ybxj1l42DMHh0HIJDdMiC6fyYKLwA4DyDzZw9rCYCRlwi+KbDMAsqM+dACONQvBjf334sZFoCMiXAHkARjaYWffo7of4DaKo2XCMLS/gdgfv/PCnC2mxgJAzAdwMz+n5HsEkEoB3AOxiXl62GM/jMMFekAfgCwAsbuJQwLQIYILwAp/Z/x/W/vHBUZHOqfCcK8S37PBVNNhx+ABf2CbwaMe/cYhrEOdAD2APgWxn2DvCrDApAZBFIY9ztNh7HUQgqMy7iMcFTBGB3JhLGC/lkY2y5x702a+TwWwKL+z1i+BzGMTdAGYA2AbwCkgldgWAAyl70eiTBuwp4FY1TEnd1idrpg3D919pLPeRgjiczVsQMwB8Ct/aLPl13CMDZNAYDvYIwMlrE7WADaMioY9+EsBTAPtr1vz5LQwbhknAbgRP8nu//PbR1Z/wvMbQCWgQsDMwzzS/QA9gF4D8BO8CoLC0AbIQrAEgCLYayvZccusQo6YWyr9JMgTMPQy3FYImMBPAjgFgA+PB0Yhhkg+QDehzEq2MXuYAFobUQA+BWAO2DM0mVsgzIAxwAc7v9YW3sldwB3AXgIxv2qDGMRODk5wc3NDSqVCq6urnB2dgYAODs7w87ODlKpFG5uxlr3SqUSDg7GWuItLS1XtNna2gq1Wg21Wo22tjZ0dnZCrVajs7MTbW1t0Os5yHUNWgB8BuBjGKs1MCwALRZfALcDuBPARHYHA2Mnh5/E4EFYbgP26QAehXGJ14EvK2NOFAoFfHx84OfnB19fX/j4+MDf3x8+Pj7w9vaGn58f3Nzc4O7uDjc3N7i5uUEuN30Hu56eHjQ3N6O+vh61tbWor69HQ0MDampq0NDQcPHXNTU1qKurs+VLqgWwDsbl4TSe4SwALQU7ADcAeBjAXBj3QzHMlWgCcKRfDO7tF4Sifc72v9A8DWMPWIYxCUqlEhEREQgLC0NoaChCQkIu/gwLC4O/vz8kEut6nHV1daG4uBjFxcUoKSm5+Oufft/T02Mrl/84gH/1C0IOobIAFCWBAO4G8DiAYHYHM0TqYayqvxfGFkuVIhiTG4D7ATwPYxcZhiFHLpcjIiIC0dHRiI2NRXR09MVPcHCw1Qm84WAwGFBVVYWsrCycO3cO586dw/nz55GbmwutVmutp50L4C0Aq2BshciwADQrMhgTOR6FMZNXyi5hKO/zMNYk3NP/OQLTFlMNBPACjNFsJV8OhoqQkBAkJCQgKSkJiYmJSExMRHx8POzt7dk5w0Cj0SA3Nxfnz5/HuXPnkJmZifT0dDQ2NlrTaeYDeLNfCHLVBRaAJscB/42IcLsqxlSoYSybsK3/I1R0MPgS4cdPZGZY+Pn5ISUlBePHj7/4092dy5ua7C3SYEB+fj6OHTuGo0ePIjU1FRcuXLCGUysA8AqMbee4sDQLQMFRAfgtgKfABW0Z83MWxmXirQBOErwNBwP4I4ylXFj4MYPG2dkZo0aNwtixYy9+4uPj2TEio76+HidPnsTRo0dx7NgxnDp1Cr29vZZ6Oun9963dfGVZAAryEgvgORiXel3YHYwIaQSwGcaN0nsBaAb5YvNi/4uNTS312tvbw9vbGw4ODnBzc4OjoyMcHBygUqn+p/THlejp6UF3dze0Wi06Ozuh1+vR1taGnp4etLa2orW1FV1d1lvWLCIiAjNnzsS0adOQkpKCuLg4SKW8E8bSUKvVOHDgALZv344dO3agpKTEEk9jf/997BRfURaAJC+0MCZ1vMTCj7Gk+3n/zXAtgPUwFqi+HHYAHgDwZ1hZ4Wa5XI6goCCEh4cjPDwcoaGhCAgIgLe398WPn58fXFyE/1prtVq0tLRcFIQNDQ2oq6tDVVUV6uvrUV1djbq6OlRXV6OyslLUm/j9/Pwwbdo0zJ07F/PmzUN4eDh/26yQ4uJi7N27F1u3bsXu3bstKTpoAPAjgD8AKOUryQJwKCgBPAnjPigPq58EEgl8fX0REBAAHx8feHh4wMPDA56enhd/7eTkBBcXFzg5OV2Mlvw8QiKRSKBSqS5GQQDjpuSfIiBqtfrijaS9vR06nQ4ajQbNzc1obm5GS0vLxV9f+vnpz3U63u87BDphXCb+sf/nT+Go2wD8DcYC5RaLSqVCYmLixYSCuLg4REREIDg42Cx13oaLTqdDZWUlSktLUVJScvFTWFiIvLy8qxYhFgIfHx/MnTsXs2bNwqxZsxAZyVuebY2Ojg7s3bsX27dvx7Zt21BTU2MpL8FvA3gHpk2cYwFoyYEDGPc/vQJjBqTVRENCQkIQGRl58RMeHg5/f38EBwfDz88Pdnbi70bX0tKC6upqVFRUoKqqChUVFSgvL0dlZSUqKytRXl5u1cttBHTD2HPTDcBsSxu8t7c3Jk6ciAkTJmDcuHFISEhAUJBtVaWpra1FTk4O8vPzkZ2djby8PGRkZKC5uZnsGBEREViyZAkWL16MmTNnWqSQZoRBr9fj+PHjWLt2LVatWoWGhgaxD7kcxmjgD3z1WABejZkwtp+x2B3LMpkM0dHRSEpK+p/yCmFhYRYh8KhEYlVVFcrKylBQUIALFy5c/FRWVsJg4GQxi7gxSSRITEzEjBkzMGHCBEycOBFRUVHsmCtQVlaG9PR0pKenIyMjA+np6QOO1NjZ2WHOnDlYunQpFi1ahJCQEHYoc016e3uxc+dOrFq1Clu2bEF3t6gDbfthTODM5yvHAvBS/AD8A8Y+vRbjD4lEgtjYWKSkpGDChAlISUlBYmLiNTet2zJqtRoXLly4KAzz8/Nx4cIF5Obmor29nR1kZnx9fTF9+nTMnTsXCxYsQHAw11MfDjU1NThz5sxlMz1lMhlmzZqF22+/HcuWLYOHhwc7jBkyHR0d2LhxI1atWoW9e/eir0+UdZp7YVwW/huAHr5qti0ApTB27ngXgKfYB2tnZ4cJEyZg9uzZmDJlClJSUqBSqXgGE2AwGFBSUoLMzMyLxVMzMzNRUlLCEUMhv4BSKVJSUnDTTTdh6dKliIuLY6cISFdXF06dOoWmpiZMmTIFfn5+7BSGnPr6eqxcuRKfffYZ8vLyxDjEIgBPwLgdhgWgDTIewGcARon2wkgkGDNmDObMmYNZs2Zh2rRpcHJy4ruLCWlvb8f58+cvCsL09HRkZmZac6slk7zIzJgxA8uWLcMNN9yAgIAAdgrDWCmHDh3CZ599hnXr1okxk3g5gGcAtLIAtJHnD4A/wVg0UnQ7mx0cHDB16lQsWbIEN998MwIDA8GIC61Wi4KCgovLamfOnEFOTg5HCq9BQkIC7rnnHjzwwAPw8fFhhzCMDdHY2IgvvvgCH330EaqqqsQ0tCoY6/tuYwFo3cQD+BbAWDENytXVFTfeeCOWLVuGefPmwdHRke8WFkZDQwNOnjyJtLQ0pKWl4fjx4+jo6LB5vwQHB+Puu+/Gvffey8u7DMNAq9Xixx9/xHvvvYeTJ0+KaWhrAfwGQBMLQOtCCmMXjzdg7OFrdn7agH3vvffipptugrOzM98ZrAidTof8/HwcPXoUe/fuxYEDB6ytGfuVbygSCebMmYNHHnkEy5Ytg0wm4wnBMMwvSE1Nxdtvv40tW7aIZQWlGsbC+DbTUs7aBWAogBUApophMGPHjsXDDz+M2267jbPubAi9Xo/s7GwcOnQIR44cweHDh1FbW2tV5+jm5ob7778fv/3tbxETE8MXnWGYAZGVlYV33nkHq1atEkP2sAHAezBuE+u1dt9bswC8HsBKmDnD18HBAUuWLMEjjzyCuXPn8redAfDfVkt79+7F7t27L3ZOsTSCg4Px/PPP48EHH+RINiM6NFodmjvUaGjrQktHN9q7etDZrUFndy86e/p/dmvQrjb+uUFvgLpXiz6dHgaDAZ3dRg3Qo+2DRmvsRCSRAC5K+18cSyqVwslBAScHOzgo7OBgL4eL0h4OCjso7eVwclDA3VkJD1dHqJyV8HJzgruzEu4uSshl3D+5uLgYb7/9Nr7++msxJNplwlgaLocFoGUhBfAygFf7f20WYmJi8Pjjj+Pee+/lci3M1R9SGg1OnDiBvXv3Ys+ePTh16pTo295FR0fjhRdewD333AOFQsEXkTE5Hepe1LZ0oKapAzVN7ahp7kBdcwca27rQ3NGNxrYudPVoLOJc3Jwc4OHiCG93JwR6uiHQyxWB3m4I9DL+2s3Jduq7lpSU4PXXX8eKFSvMfR/sBvA8gH+zALQMPAB8B2ChuQYwbtw4vPDCC1i2bBmkUn6rYwZPa2sr9uzZg+3bt2P79u2or68XzdgSEhLw8ssv49Zbb+X9fYzw34XObpTXt6KsrhUV9a0or29FeV0Lqpva0dmtsRk/OCsV/WLQDZEBHogO8kJ0kBcCvdwglVjnQl5+fj5ee+01rFmzBnq93pxDWQvgIQBWl9lnTTNnDIwN78PNcfCpU6fihRdewKJFiyCRcIMVho6cnBxs2bIFW7duRWpqqlluhsHBwXj99ddx7733svBjyGnv6kFhVROKappQUNmIouomlNQ0o13dy865Ckp7O0QGeCI60AvRQZ6ICvRCTJA3nJXWE5U/e/Ysnn/+eezbt8+sehTArQDOswAUHzfCuN/P5DVUZs+ejb/+9a+YMGEC340Ywamrq8OWLVuwfv167Nu3DxqNsFEQd3d3vPDCC3jqqaegVCr5AjDDpq2rB9mldcgurUNOaR3yKxpQ39rJjiFCKpEgIsADo6ICkBzhj1FRAQjwdLX489q2bRv+8Ic/ICfHbNvyegA8CeALFoDi4UkA/wJg0rBEYmIiXnnlFdx66618x2HMglqtxv79+7F27VqsX78enZ10D1G5XI7HH38cr776Ktzd3dnZDAktHd1YfeAs1h/JQktHNzvERPionC8RhP6ICfKGVGp5j/++vj588cUXeOWVV9DQ0GCuYXzerzssPjwtsfCxv9r/MRmhoaH4v//7Pzz88MO8x48RDd3d3di3bx/Wrl2LTZs2DSureMaMGfjwww+RlJTEjmUEQaPVYXNqDr7dcwbVje3sEBPj5uSAifEhmJIYhskJoVA5W1Z0v6WlBS+99BI+++wzcyWKpAK4GYBF1/OyVAFoD+BrAHea6oBKpRIvvPACXnzxRdjb2/MdhBH1W3JaWhrWrl2L1atXo66ubkD/LyAgAO+88w7uvPNOq9zHqtHqUN3UjuYONVo6utHUrkZrZzdaO7vR0tGNrh4NerR96O7RoqtXA41WB/U1skgdFHawk8ugkMvgoJBDLpNC6WAHF6U9XB0d4OKogLPSHi6Oxt97uTnCw9URXq5OcHHk+4hOr8euUxewfOdpFNc085fXDEglEsSH+WJKYhimJIYhLsTbYhJL0tPT8fjjj+PEiRPmOHwVgJsAnGIBaDo8AGyCCYs733DDDXj//fcRGhpqczeHzm4N2rt60NZfJ0uj7UN3rxZdPRr0avvQ3fvfwp2aPh16NMb6Tc5Ke0glEkgkxl8DgFwmhaO9nVHBK+Swl8vhpFTA1ckebo4OcLWhUgemFIP79+/HihUrsGHDhssuE0skEjzyyCP4+9//DldXy94rpNHqUFLbjKLqJpTVtaC6sR3VTe2obmxHQ1uXqMaqsJPBy9UJXion+Hu4INDLDQGergjwckWglyt83V1spj6c3mDAocxifLn9FPLK6/mLa84HrKsjpiSEYu7YaEwYESL6OajX6/H111/j97//PVpaWkx9eDWM3UPWsAAUHk8AewCMNsXBwsPD8cEHH2Dx4sVW9yVX92hQ2dCGqqZ21DV3orG9C/UtnWho7URjmxqtXd1o6+qBXm+6Fj0SCeDi6NAvBu3h5mQUha6ODvBwUcLf0wU+7i7wVTnD18MZ9nZyvlsP5pqr1diwYQNWrlyJPXv2oK+vD2FhYfjiiy8wZ84cizufDnUvzpfUIru0DgWVjSisbkRlQ5tJ56yQyKRSBHq7ItLfE2F+7gj390CYnwfC/NwvvkhZGwYDcOBsEf6z5QSKqpv4S2tmVM5KzBsbjevHx2BkZADEHBisra3FE088gXXr1pl82gL4M4DX+n/NAlAA3GHs0TdOeCEiwRNPPIG33noLjo6OFv0Frm3uQFF1EwqrmlBc04yKhlZU1rei2Qo2YLu7KOGtcoafuzP8PFzgo3JGgJcrQnxUCPG13ockBXV1dcjNzUVKSorFzPHKhjacyq/A+eJanC+uRWldMwwG27t2UokEwT4qxAZ7Iy7EB3HB3ogL8baqCLreYMCe0wX4bGsayupa+AsrAvw9XHB9Sizmj49FVKCnaMe5fv16PPHEE6ipqTH1ob8D8DAAiylQaSkC0GTiLzg4GF999ZVFtm2rbmzvj4jUIresHoXVTeiw4TpaPipnhPiqEOKjQqivO0J93RHiq0KglytknMAjelo7u3EqvxIncyuQllfOyQLXIMjbDckR/hgZ6Y+RkQGICPCw+CLBer0BW47n4NPNJ0S3hG/LRAZ4YuGEOCyZNAIeruJ7gWxpacEzzzyDb775xtSH3g9gGQCL6O1pCXcHdxiXfccKfaB77rkHH3zwgUW0btMbDMivaMDp/EqkX6hCVmktl1UYIHKZFCG+7ogJ8kJMf0X96EAveLk5sXPM/RLT1I6DZ4tx8GwRzhZVW81yrjlwclAgOcIf42KDMD4uGHHBlln6AwC6e7VYuTcD3+4+A3Wvli+uiO6lM0dFYtnURIyPCxbdEvH69evx6KOPorGx0ZSHzYaxG1k5C8Dh4QVgH4BkIQ/i5uaGL7/8EjfffLO4H46N7TiaVYKTeZVIv1DJVfKJ8XBRIjrI+6IojAnyRoS/h8U+NC2FmuYO7EjLw/6MIk4AEBBXR/uLYnBifAiCvVUWdw5N7Wr8Z8sJbDqWA51524MxPyPYW4XbZiVj6eR4ODmIpxNJbW0tHnzwQezYscOUh60CsAAi7xwi5iebY7/4myjkQZKTk/Hjjz8iOjpadA7QGwzILq3D4cxiHD5XwpuizTEJ7e0QF+qDxDA/JIb7ITHMFz7uzuyYYdLVo8G+9EJsPZGLswXV0Bs40mdqQn3dMS05HFMTwzAqKsCiMo4Lqhrxzg+HkH6hii+kyHByUOCGKfG4fdZIBHq5iWJMBoMBn376KZ577jl0d5tspawFwCIAx1kADg4ZgHUAbhDyIHfffTf+85//iG4TfE5pHXaeysfu0wVo5H0vosNH5YyEMF8khvshKdwPCeG+nJE8QHLL67HmQCZ2ny5Ar7aPHSISnJUKTE4Iw5wxUZiSGAYHhWXM592nL+C9dUdR38Kt5MSGVCLB7DFReGD+OMQGe4tiTOfPn8dtt92GvLw8k73rwlgrcA8LwIGP6QsADwp1AIVCgXfffRePP/64aE66urEdW0/kYuepfJTXtfLdw4Kwk8uQEOaLMdGBGBUVgFGR/nB0ULBj+tH26bAvvRA/HMjE+ZJadojIcVDIMTUpHHP7xaBS5Nn03b1afL3zNL7bkw5tn44voAgZFRWA+64fi2lJ4eafL93deOqpp/DFFyZr6dsL4FcA1rMAvDZvAPiTUMY9PDywadMmTJ061ewnqtcbcOR8CdYdPo8TOeW8DGYlyKRSxIZ4Y3RUAMbGBGJ0VKBNdn1Q92qx7vB5rNybwZFsC0Vpb4dZoyKxaGIcxscGi3o/bEltM/66Yj8yCqv5womUMdGBeGzpRIyJDjT7WL788ks8+eSTploS7oOxYPQKFoBX5tcAPhPKeHh4OLZv3464uDiznmRrZzd+PHQe649m8dKFDSCVShAf6ouUuGBMHBGCpAg/2MllVnu+7V09WH0gE6sPZKK9q4cngJXgo3LG/JRYLJ4Yh4gAcdaBMxiAjcey8OH6Y5wkJ2ImjAjBb5ZORGK4n1nHce7cOdx0000oLi42yfQE8BsA/2EB+EsWwdjiTZAn47hx47Blyxb4+ZlvwtU2d2DF3nRsPJqNHg3vf7JVlPZ2GB0dgAlxIUgZEYzoQC+rOC91rxYr9qRjxd6Ma/bQZSybkZH+uHl6EuaOiYbCTnwvM83tarzzwyHsOVPAF0vETE+OwJPLJiPcz8NsY2hqasIdd9yBvXv3muJwegAPAVjOAvC/RMHYUFklhPGFCxfihx9+gLOzebI3y+pa8NWO09h1Kh99Oi5dwPwvPu7OmNrfiD0lLlj0e65+jrZPhw1Hs/DFtpNW0WGGGTiuTg5YPHEEbp6eiFBfd9GNb/fpC3jr+4MciRYxUokECybE4allU+BppqLSOp0OL730Et5++21TicAHAHzLAhBwgjFNOkkI43fddReWL18Oudz0WW31LZ34bFsatqTmcs0qZkAo5DKMiQnElMQwTE0KE32ttoNni/DeuqOobGjji2fDSCTApPhQ/GrOaEwYESKqgsANrV3483d7kZpdxhdKxDg5KHD//HG4a85os0WVV6xYgV//+tfo6RH8hUHXLwK/s3UBuBLGDBlybr/9dqxYscLk4q+9qwff7D6D1fszudQFMywCvdwwPTkcc8dGIznCXzQP1vL6Vvzjh0P8UGV+QUSAJ+6cPRILJ8SJpjySwQCsP3Ie7607im7uJCJqgrzd8PxtMzA1Kcwsx09LS8PSpUtRXy94UXodgHsBrLJVAfgUgPeFMHz33Xdj+fLlkMlM9yahNxiw8Wg2PtqYyksODDnB3irMGh2JOWOiEB/qaxYx2Kvtw5fbT2HFnnRouOQGcxU8XJS4c85o3DYzWTSdISoaWvHq13twrriGL5DImZ4cjudvm4EAL1eTH7u4uBiLFi0yRb1ALYy9g7famgCcCmPjZPINT+YQf3nl9Xjr+4PI4jpnjAm4a+4YPH3zFEhMqAIzi2rw+rd7uE4lMyhcHO1x64xk3Dl7FNxdlGYfj15vwDe7z+CzrWlcN1DkOCjkeHTJRNw1Z7TJSxA1NzfjxhtvxJEjR4Q+VDeA+QAO24oA9AFwFoA/teFf/epX+Pbbb00m/rp7tfhoYyrWHjrHjesZk7BwQhxeu38epCYSfz2aPvx7UypW78/kWpXMsB7mt85Ixr3XjRWFELxQ0YCXv96NYm6xKXriQ33wp3vnmrxiQm9vL+6//36sXr1a6EO1AZgFIMOU52eu/P0VAMZTG503bx7Wrl1rsj1/54pq8MQHG3E8uwz8XGRMwXXjYvDGA9eZ7G04p6wej7+/AUezSsFTnBkOfTo9zhXXYN3h8+jW9CE2xMesewQ93ZywZFI8aps7UFDVyBdIxDS0dWHTsWz06fVIjvSHTGqavtVyuRzLli1DU1MTTp06Jej7EYwt4zYDMNkbiTkE4P0AXqQ2Onr0aOzYsQNKpfBvlpo+Hf696Tj+smIf2nivH2MiZo+OwpsPX2+ym9+KPel4+atdaOHSLgwhWp0eGYXVWH8kCzqdASNCfMxWGF0uk2LW6Eh4ujriZG4FdLyKI1r0BgPSC6pw4GwxRkb4w9PNySTHlUgkWLhwIZRKpdC1Ap0ALAWwBkCHNQrAUBiLPTtQGg0LC8P+/fvh6Sl8dfryulY88cFG7M8o4qgfYzImxofgnccWQS4TXvx1dmvw3Cdb8ePh87ytgRHuRVqrw+n8Smw9ngsXR3vEBHmbdE/rpcSH+mJSQhhO5JShs5uLmIuZlo5ubDmeC7lMhuRIf5PNmalTp8LLywu7du2CQbiHvwrGpeBVAASfiKYUgFIYmyGT9mHz9PTE/v37ER4ufJPpg2eL8LuPN6OmuYO/hYwJH04+eP/JG0yyXJZTVo9f//NH5Fc0sOMZk6Du1eLwuRIcOFuEAC83BPuozDIOb5UTFk8cgcLqJlTUt/KFETE6vQEn8yqQUViN8XFBcFaaptd6SkoKwsLCsGXLFiFFoD+AkQB+AITdeWNKAfg7AI9RGrSzs8P27dsxduxYQQeu1xvw8abjeOeHQ9BoOWuMMR1B3m745OllcHVyEPxY29Py8PtPt3EJI8YsNHd0Y8fJfJwtrMaIUF+zJIrYK+SYPz4WDgo5Tl+o5FUekVPd1I5tJ/IQGeCJEF/TvDiMGjUKcXFx2LhxI/TCNXiIAeAFYLs1CMARMK5rk5Z8+de//oXbbrtN0IF3qHvx7CdbsO1EHn/bGJPi6eqIz567Gb7uLgK/TevxzupD+HhjKnesYcxOVWM7Nh7LRnevFkkR/ibfHyiRAKOiAjAyIgCpOWXct13k9Gr7sOt0PjrUvUiJCzZJglxCQoIpROB4AJ0wdkqzWAEoAbAOQCSl0TvvvBN///vfBR14Q2sXHv9gI84VcdFQxsSRCDs5PnzqBkQJXPagq0eD5z/Zhl2nL7DTGdGg1xuQWVSDbSfy4K1yQmSAp8nHEOjthuvGxeBUXiWaO9R8UUROVkktTuVXYFJ8KJyUwhceT0hIQFRUFDZt2iTkcvBcAOcBCBKBMoUAvAfA05QGk5KSsGnTJigUwl3kwqomPPav9Siva+FvFmPyCMSr983DlMQw4V9w3t+Is0XV7HRGlHT1aLAvvRBZpbUYGRkAF0d7kx7fWWmPhRPjUFTdhDIugC566lo6seNUPpLC/eDn4SL48ZKSkhAdHY2NGzcKJQIlABYB2AKAvDed0ALQFcBGAGRXQqVSYd++ffDz8xNs0CdzK/DEBxvR0snlLxjT8+tFKbhj9ihBj1FQ1YhH312Pct7szlgAFfVt2HgsGwq5DAnhviYrgg4AdnIZ5o6NRltnD3LK6vhiiJzuXi22nciDQi7DqKgAk4jA8PBwISOBCgALAawEQBqKFloAvg1gHqXB77//HpMnTxZswMdzyvDsJ1t43wdjFuaOjcYLd8wStM9vVkktHn9/Iy9rMRZFn06PE7nlSM0qxcioAJMmiUglEkxNCoOz0h5peeWcHCJyDAZjlnBDaxcmxYcIXjt15MiRUKlU2Llzp1CHUAEYDeB7AGSbDoUUgMkAvoCx/AsJDz30EP7whz8INuATOeV4/pNtnOnLmIVQX3e8//gSKOyE+1qmF1ThqQ83o7O7lx3OWCQNbV3YlJpt8jpwAJAU4YeEMD8cPlfCfYQtgLzyepzKr8T05Ago7e0EPdbEiRMhkUhw8OBBoQ4RCeNq6i6xC0AJgLUAyIrzhYWFYePGjbC3F2YPyImccjz3yVb0ajnyx5geRwcF/vPsMnirnAU7RmpWGZ759xZ0a7TscMaiubQO3NjYILgoTbc3MNhHhUnxITh6vhRdPVw0WuzUtXTi4NliTE4IhZuzsOW0Zs6cic7OThw/Llji7iQARQDOiVkA3gXgGSpjUqkU69evR2xsrCCDPXOhEk9/vJkjf4xZkEiANx+6HqOjAgU7xomccjz36Vae44xVUd3Ujs3HcuDp6ojYYG+THdfLzQnzxkbjVH4Fmtp5K4XYaVf3YPeZCxgdHQhfd2dBjzVv3jwUFxfj3LlzQh3iOhgrqwy7Z7AQAlABY8cPdyqDzzzzDB599FFBPFlc3YQnP9gEdS9HRRjzcPe8MbhTwKSPU/mVePbfW1j8MVaJtk+HQ5nFyK9owPi4YMGX+n7CSanA9eNjcbaoGrXcHUr09Gj6sPNkPiIDPBDm5yHgC70EixYtQmpqKkpKSoQ4hALAZADLAQzrpi6EAHwMxgggCSNGjMCaNWsgl9O3wapv6cQj/1qPZm52z5iJ+DBfvPnQfMGKl2YUVuPpjzdzUhNj9ZTVtWDbiVyE+rkj1NfdJMdU2Mkwb2w0csvrUdnQxhdB5Oj0euxNL4SPyhlxIT6CHUcmk+Gmm27C9u3bUVcnSOZ4AAAlgD1iEoCOAH4EUdkXiUSCNWvWICoqitx7XT0aPP7+Bi6DwZgNR3s7fPTUjYJlMxZVN+GJ9zfyPiXGZujW9GH36Qsm7QphJzeKwNLaFpTUNPNFEDkGA3DkfAmU9nYYGekv2HHs7e2xdOlSrFmzBu3t7UIcYiKAfQAqxCIAnwFwE5Wxu+++G88++yy51/R6A57991acK+YOH4z5+NO9czEuNkgQ2/UtnXjsXxu41Atjk2SV1CK9oAqTEkLh6CB8VwiZVIo5o6NQ19KJ/IoGvgAWQFpuOXq1fZgwIkSwY7i6umLmzJlYtWoVNBryF3EJjO3ivsAQS8NQCkA3GDN/lVSO27hxI1xc6Kt5/3vTcWw9kcvfAMZsLEiJxaNLJgpiu62rB4++uw5VjbwkxdguNc0d2HnqAuLDfOHv6Sr48SQSCaYlh6OtqwfZpVww2hLILKqBuleLifHCiUB/f38kJiZizZo1QhSK9oWxX/AxcwvAlwDMpzL29ttvY968eeQX4/C5Yvx99UGe+YzZ8HZzwr+eWAp7O/p9rX06PZ799xbklNWzoxmbR92rxfa0fBgMBoyODhS8ZqBEIsGUxDDY28lxMq+CL4AFcK64Bp3dGkxKCBXsGLGxsZBKpThw4IAQ5icDWAFg0G/8VALQG8YK1STFmBISEvDll19CJqNdoS6vb8VTH27ibEjGrLz164WIChSmuf2fv9uLg2eL2ckM04/BYMCZC1UorGrC5IQwQQut/8SoqAAo5DIWgRbC+ZJawUXg9OnTkZubi+zsbGrTCgAeMLbdNYsA/D2A66nOZu3atYiIiCD1kKZPh9++twG1zZ082xmzsXRyPO6eN0YQ29/uPoPv9qSzkxnmMpTWtmB/RiHGxwWbpI3cqKgAyGVSnMqvZOdbiAjs6tFgUrwwIlAikWDBggXYunUr6uvJV2iSYKwNOKgNqBQCUAljk2InirNYvHgx/vjHP5I7/6MNqRwZYcyKr7sL3v2tMK3ejp4vxZ+/2wduUcowV6atqwc7T+UjPsQXgd5ugh9vdHQg9AYD0guq2PmWIAKLa2EwGARLzlMoFFi4cCFWrlwJtZo0QU8KwB/AD6YWgA8CuINKIa9evRr+/rSp2ZlFNXhz5X5u4M2YlTceuA4xQV7kdmuaO/DUh5u41h/DDACNVoedpy5A5eyAhDBfwY83LjYImj4dzhZWs/MtgPSCKjg5KJAcIUyJGJVKhaSkJKxatYradByArQAGXN5kuAJQAuPmQ5Kn2h133IEnnniC1CPdvVo8+cEmtHX18MxmzMbkhFD8ZukkQR5mT36wEZWc8cswA8ZgMOBYVik61L2YGB8ieHJISlwwunu1XHrMQkjLLYe3ygkjBCoWHRUVhba2Npw4cYLSrASAK4xLwSYRgEsAPEkxcrlcjjVr1sDLizZC8vbqg7wRlzEr9nZyvP/EUrg60jcif3PlfhzLKmUnM8wQyCqpRXFNM6Ynh0Mukwp6rAkjQtDY1oW8cs7QtwSOZZUiMsAT4f7CtI2bOXMmNm3aRL0fcASMQbmWgfzj4c54sirN9913H2JjY0kdfLawGpuOZfNMZszKA/PHIdCLfr/RnjMF2Jyaww5mmGGwL70Qj/xzHZrahS2aLpEA/3fXbNw4NYGdbgHo9Qa89OUunBYoicfe3h6ff/45pFLSFw8ZgCcG84+HylgAf6VyxI8//gg3N7qHpE6vx3P/3ir4l5phrkaIjwp/fuh6yGi/5KhsaMPTH22Gto9LGjHMcGlo7cL+9EJMTAiBu7NwGcISCTA1MRyltS0o5rZxFiECj5wvwaxRkXBzpl/BCQoKQmVlJdLTSas3xAN4H8A1N4UP56n0JNVo77rrLoSE0FbiXnPwHAqqGnkGM2bludumQyGnzfrV6fV45evd3OOXYQipbmrHQ+/8KHgXD6lUgj8/eL2gLcgYOtq6evDUR5vQ0tEtiP2//OUvcHZ2pjTpBmDxQP7hUJ9MrgC+hLEA4bBZvnw5fH3psrGa29V44bPtXPCZMStzxkThwQXjye1+uvkEdp7KZwczDDG92j7sPVOA0dGB8PNwEew4UqkEM0ZG4FhWKffrtgDa1b04U1CF+eNjYUf8Qu/s7Ay1Wo0jR45QmrUHsPqa83CIxm8HUd2/66+/HsnJyaQO/WDDMXSoe3nWMmbDQSHH07dMI7ebV16Pb3efYQczjEB0dmvw+PsbcDynTNDjOCsV+ODJG+AvoNBk6MgprTPWWhWgnNzvf/97qFQqSpPzAVyz3dRQpezHAEgqJX766aekXT+Kqpvw1qoDXBCXMSuPLpmIaUnhpDY1fTo8+eFm3tfKMALTp9Nj35lChPsLlwUKAE4OCkwcEYKdpy7wipUFUFTdBIWdDKOjAmgDBg4OaG1txbFjx6hMygCUADh9tX80lAhgPICJFCNMSkrCnDlzSB358cbj0HPFZ8aMeLk54Y5ZI8nt/mfLCRRXN7GDGcYEaPp0+OPnO7DtRK6gx4kI8MQ/H1tMvleYEYZPNh3HkfMl5HafeuopKBQKSpN3X+sfDEUAPkg1uueff560AGdOaR2OnOd2b4x5eWjheCjt7UhtFlQ1YsWeDHYuw5gQnV6P177ZgzUHzwl6nDExgXjt/nmQClyQmhk+eoMBf/pqF0prW0jtBgQE4Oabb6Y0ORnAVZehBvvKYQfgGxDs//Px8cFXX30FmYzureeVr3ejqrGdZyhjNgK93PDqffMgldLdyA0G4A//2Yaa5g52MMOYgdTsUqiclYK2josM8ISjgwIncsrZ4SJH06dDWm4FlkyOJ00KUSqVlC3iJADqAVwxu2SwEcDFAEh6o9x9992k4c6TeRU4JVDBRoYZKI8tnUjeUWDL8RxkFnELKYYxFwYD8M4PB7H+SJagx7lr7mgsm5bIDrcAyupa8I8fDpHavO666+DjQ9p+bv7V/nKwT6q7qEZ13333kTruqx2neEYyZiUq0BPXj48htdmu7sWHG46xcxlGBCLwrVUHsD0tT9Dj/OGOmRgTE8gOtwA2p+aQtpqVy+W47bbbKIc4AVdZsR2MAHS8lpoc8IgmTCAt/VJQ1YgzFzj6x5iXx2+cTL6H56MNxwQrQMowzODQGwx47Zs92H36gmDHkMukeOfRRQjwcmWHWwD/XHMYej1d4undd99NOTwFgKkUAnA+iGr/Pfjgg6QX4Lvd6eDEX8acJIT5YmoibdmXnLJ6bDzKvawZRlQiUG/AK1/vxuFzwiUcujk54B+PLiJPJmPoKapuIi3MP2HCBERHR1MOcRaFAFxGMRKlUkka4qxv7cSeMwU8Cxmz8rtlU0EZ/NPrDfjbyv1c0ohhREifTo8XP9shaLHomGBv/OmeOeDEYPHzza4zpEGoG2+8kXJ4c4YrABUYYG+5a3HrrbeSVrxevT8T2j4uoMmYj9FRAeR7djYey0ZueT07l2FEiqZPh+c/2YazhdWCHeO6cTG4//px7GyRU1TdhFP5dHsBZ8+eTfqIAuA+HAE4F8YGw8OGcn27V9uHjUezePYxZuU+4ht0r7YPX2w/yY5lGJHTq+3D0x9vRmGVcAXaf3PDJExPDmdnixzK5KDp06dTVkmRAZgxHAF4E8UoPD09MWvWLDIn7UsvRDv3/GXMSESAJ6YkhpHaXL0/E/UtnexchrEAOrs1eObjzWhs6xLEvlQiwRsPXI8gbzd2tojZn1GEHk0fiS1HR0ekpKRQDm/6UAWgDMANFCNYunQp5HI52RltTs3hWceYlfuuG0O6R6ezW4Nvdp9hxzKMBVHT3IEnPtiIDoECEs5KBd55bBHs7eTsbJGi7tGQJgYRLwOPGqoAnATAm2IEy5YtIzub6sZ2pF+o4lnHmA0fd2dcN4627t+3u8+gvauHncswFkZhVRN+/59t0Ai0Jz060Au/u3kqO1rE7DpFVx6IWAAmDVUAzqU4uouLC+bOnUt2NptSszlDkjErd80ZTdoGqLmjG6sPZLJjGcZCOZ1fide/2SNYWbLbZiZjQUosO1rE11+n15PYmjhxIuU+QC8A/mYTgIsXL4aDgwPJmegNBmw7kcezjTEbLo72uGlqAqnNL7efhLpHw85lGAtm16kL+GTzccHsv/irWQj2VrGjRUhXjwZ55Q0ktuzt7REbSyr2kwYrAF1hbCUybG666SayszidV4na5g6ebYzZuHVGMhwd6HpZVze1Y8MRzmhnGGvgqx2nBNuj7uSgwN8fW8j7AUXKKcLWcElJSWYVgDMBDHuW2dvbY8GCBWRnsS+jkGcZYzYUchlunzWS1ObXO04LtneIYRjT89b3B5BdWieI7ehALzx76zR2sgg5TdiW1twCkGT5d/LkyXB2diY5A73BgEOZxTzLGLMxc1QkPF0dyew1tauxLS2XHcswVoRGq8PvP90mWHmYm6cnYc6YKHa0yMgsqiHLT7AKAUiZ/JFZVCPYF4phBsIt00m/lPh+/1lotBz9Yxhro761E898vAW92j5B7L909xz4uDuzo0VEd68WVY1tYhSAIwBIBioAA/v/g6gE4AFe/mXMSKivO0ZH07V9U/dosO7weXYsw1gpueX1eHPFfkFsuzra49V753K/YJFRUEnTGSY4OJiyda4SgM9ABSCJalOpVBg7dizJ6A0G4EBGEc8uxmzcPD2R9Ga77kiWYMVjGYYRB9vT8rBq31lBbE8YEYKbiVclmOFRWNVIYkcikSAmhrTWbNBABeAUiqPNnj0bMhlNrbS8inrUcPYvYyYUdjIsnjiCzJ62T4fv959lxzKMDfD+uqM4lV8piO3fLZuKEF8VO1k0ApCuN3RQUBDl0IIHKgBJGtFRLv8ezy7jmcWYjbljouHq5EBmb8fJfO75yzA2gk6vx0tf7BBkD7vS3g5vPjQfcpmUHS0CiqpFKwAHFAF0AkBS5ZZSAKblVvDMYswG5TKLwQCs2JvBTmUYG6K5oxsvf7ULej19q5ARIT54YP44drIIqGlqJ+sGYw4BOA4E9f/8/f0RHR1NMuoeTR/OF9fwzGLMQmSAJ0ZG+pPZO5VfgWLCt0SGYSyD0/mV+HxbmiC2H16UgrgQH3aymdH06dDS2U1iKzg42OQCkKT7x8SJE8lGnV5QxYVyGbNxI3Hbt/Xc9YNhbJYvt5/CSQFWtGRSKV65Zw5kUl4KNjf1LTT5CubYA0iy/y8lJYVs1Gm55TyjGLMglUpw3Ti6TKzmdjUOnuVsdoaxVfQGA17+aicaWun3A8YEe+PueaPZyeYWgK00+7uJBWCgyQTghAkTyEZ9kvf/MWZiQlwIaeePTak56NPp2bEMY8M0d3Tjpa92CrIf8NElExHu58FONiN1RAl+/v7+lMPyuJYA9MfPwoRDQSqVktX/a+3sRmF1I88oxixcP54u+qc3GLDhKC//MgwDpF+owtc7T5PbVchl+OOvZnGBaDNCVeHB3t4eDg5k1SdcriUAScJ28fHxcHV1JRlxVkkdWUYNwwzqRmonw8xRkWT2TuSUo7qxnR3LMAwA4LOtacgurSO3OyYmEDdNTWQHm4l2wgL/Li4uVKbkMFZ5uaIAJKl1Qbn/L6u0lmcTYxZmJEfAWakgs8fJHwzDXIpOr8ery3ejR0PfL/h3N0/lXsFmoqtHQ2aLKpj2k568mgAkaXVAuf8vq4QFIGMe5qfEktlqaO3CkXMl7FSGYf6H0toWfLjhGLldJwcFnr9tBjvYHAKwW7QC0PVqApCk3sWoUaNIRmowADll9TybGJPj6miPSQmhZPZ2nMyDTs/JHwzD/JI1BzORmkXf7Wr26EhMTgxlB5taAPZYngCUAxh2yEMikWDECJqeqRX1rWjv6uHZxJicuWOjoZDLyOztPJnPTmUY5rIYDMCfv9uLNgGed7+/fQbpvYwxrQAk3AN4VQEYCcB+uNZDQ0PJBsz7/xizCcAx0WS2iqubcKGSM9kZhrkyDW1dePv7g+R2g71V+NVcrg1oqQLQVHsA4ymsx8fHk400p6yOZxJjcpyVCoyODiCzt/PUBXYqwzDXZPfpC4IUin94YQr8PVzYwSZC3asls2Vvb085NCdBBWBCAl3brMIq7pfKmJ6pSeGwI1oyMRiAnad4+ZdhmIHx1vcH0UFYRgQAHBRyPHXzVHauiaAs8C2hLegou5IAJFFulBHA4ppmnkmMyZkxMoLM1rniGq79xzDMgGls68JHG1PJ7c4bG41J8ZwQYhIBSFi8WErb21lyJQEoqghgW1cPmtvVPJMYk2Inl5HeJHdx9I9hmEGy/sh5pBdUkdt95papkEq5RYjQGMQrAKVXEoDDDntIJBLExcWRjLKompd/GdMzNiaQrPhzn06PPWcK2KkMwwxSQAB/WbEPGq2O1G5EgCdumJzADrYgAUi8BHxZAeiBn/WJGwpBQUFkGcAlvPzLmAHK5d/0giq0dHSzUxmGGTTlda34YvtJcru/uWESHB0U7GABIdwCaJIIIMmaV3h4ONkoef8fY2okEmB6Mt0cPnyumJ3KMMyQ+Xb3GRQTr4Z5uChxN5eFERRLWwImEYAhISF0ApCXgBkTExvsA193ulIJhzO59RvDMEOnT6fH3384RG73nnlj4OXmxA4WCMosYIsRgKGhdJvny+vbeBYxJmUyYeu3CxUNqG7i7F+GYYbH6fxK7D5NW0tUaW+HR5dMYOcKhL0dXecVjUZDObTLCkCS0B2VAOzT6dHQ1smziDEpKXHBZLYOnePoH8MwNLy37ihpcWEAuGFyAiICPNm5gghAOZmt7m7SfeS6ywnAMArLVEvA9a2dpCFUhrkWDgo5kiP9yewJUc2fYRjbpL6lE18SJ4RIpRI8tmQiO1eQ54mdWAWg+nICUFQRwNqmDp5BjEkZEx1I1jC9vrUTFyob2KkMw5Cxat9ZlNa2kNqcNSoS8WG+7Fxi7BV0S8BqNWk95O7LCUAS5RYcTLOEVtPMe6cY00K5/HvwbDEMHMBmGIYQbZ8O7649TGpTIgEeWcR7AckFoHiXgH8RAXQA4DVcq97e3nByoskqquEIIGNiJhJ2/zieXcYOZRiGnNTsMpzIKSe1OTUpDEnhfuxcQkS8BNzzcwHojUv6ww2VoKAgshHWtrAAZEyHh6sjIok2Q+v0ekFaODEMwwDA++uOku+Rf5T3ApJCuQQsdASQ5Mnn7e1NNkKOADKmZEJcMKi67ZwrrkVXj4adyjCMIBRUNWJbWh6pzYnxIRgTE8jOJcLRnq7TCrEA/MUeQBLl5ulJl07e0NbFM4gxGeMJ9/+dzC1nhzIMIyifbD6OHk0fqc2HF6awY4lwdbQns9XZSVoS7xcRQC8Kqz4+PmQjbO1Q8wxiTMaoyAAyW2m5FexQhmEEpb6lE6v2ZZDaTIkLRnKEPzuXAJWzksxWUxNpV7RfRABJQndUEUCDAWjr6uUZxJgEdxclgn1UNG9q3Rpkl9axUxmGEZzlu86gpYN0eRD3XDeGHUsiAB1I7HR1daGnp4dyaJ0/F4AkS8BeXiSBRHSoe6DT63kGMSZhZGQA2f6/0/kVPHcZhjEJ6h4NvttzhtTmzJGR3B2EADcnGgFIHP3rA9D2cwFIotyokkBaO3t49jAmg3LJ42ReJTuUYRiTsebgOTS1022ZkkiA+zgKSCAAaZaAm5ubKYfVAsAgiACkigC2dnbz7GFMxqgoOgGYXsACkGEY09Gj6cPXO0+R2rx+fCz8PVzYucPA1YkmCYQ4Avg/xkj3AJIJwC4WgIxpUNjJEBdCk7zU2a1BcXUzO5VhGJOy/kgW6lvoMkXlMinunDOaHTsMVEQRQGIB2Hw5AehBYdnDg8QMLwEzJiMh1Jes/++5ohrouf8bwzAmRqPV4csdtFHAG6fEw1mpYOcOVQASJYEQLwFfNgJI0r+Nqg1cWxcLQMY0JBHu/8ssrmaHMgxjFjan5qC2ma6BgqODAksmxbNjh4C9nRyuREkgjY2NlENrvJwAdCSZMI4kZtDdq+UZxJiEhDBfMltnC2vYoQzDmAVtnw4r9qaT2rxz9ihIpRJ27iDxdXcms1VfX085tMsuAQ97sdrOzg52djTNj3s0LAAZ0zCCaP9fn06P7NJadijDMGZj49Fs0rqAAV6umJoYzo4dJD6EArCykjSx8LICcNihO6ron1EA9vEMYgTH1ckB/p6uJLbyKxp43jIMY1Z6NH34fv9ZUpt3zhnFjh2sAFTRCcCqqirKof1iCVgKYNiL1SwAGUsjLsSbrAD0uWJe/mUYxvysPXQOXT0aMnvjYoIQ6uvOjh2MABRvBLD65wJQCWDYj0EWgIylQbX8CwC5ZfXsUIZhzE6HuhfrDp8nsyeRADdOTWDHDkYAqmgSYnU6HerqSFuLVl5OAA4bpZKu8THvAWRMQXwoXQJIThn3/2UYRhx8v+8s+nR0LSmXTBpBVi7LNgQgTQSwuroaOp2Ocmi/iACSSFWOADKWxohQmgiguleL8rpWdijDMKKgoa0L+zMKyeypnJWYMTKCHTtAvAkFICG9ABp+LgBFVQKGBSBjClwd7eHvQZcAwgWgGYYRE9/vO0tq76ZpiezUARJAlFxYUVFBOawqXNIH+CcBSFKtUKGgqxjeq2UByAhLZIAnWQII7/9jGEZsnC+pRVYJXWmq8bHB3B94ADg5KODuQrMljjgB5BfpxFIAJAv7EgldsUgDR1MYgYkI8CSzlVfOApBhGPFBWRJGIgEWTIhjp16DIG83MlsCRAB/IQBFV+ab9R8jNJGEApAjgAzDiJH9GUVoJiwMPT8llp16DYJ9VGS2ioqKKIdWcTkBSPR2wO1iGEsSgB4kdjRaHcrqW9ihDMOIDm2fDluP55DZi/D3QBxh+SyrFICEEcDCwkLKoVUJJgAZxpKI8KeJAJbWNkOv55A1wzDiZOPRbNJVtYUTOAp4NaiWgA0GA0pKSiiHVnk5ASi+JWDwA5URDg9XR7JNuoXVTexQhmFES3l9K85coEsmmDs2GrzgJ7wArK6uhlqtphxa4eUEIAm8BMxYCpH+HmS2imua2aEMw4iaDUezyGz5qJwxgrCIvrUR7K2iUWu0y78AUHw5AchJIIxNEU4pADkCyDCMyDl4tpi0P/CsUZHs1MugsJPBi6gNHHECSB2AjssJQBI4AshYzBsaYZYWLwEzDCN2erV92J9BJyjmjI5ip16GMF93SIm0ELEAvGw4UZQRQIYRVAAShei7e7WobepghzIMI3p2pOWR2QrxVSGE8EXaWqAsL0a8BHxZNSmnsk7ZsFgu4+RkRjioblxldS3cAo5hmAEjlUjg4eoIbzcneKuc4K1yhpebEzxdHeFobwdHBzso7RVwVirg5KCATHrl+Iy6V4s+nR4d6l7o9Hp0dWvQrelDW2c3Wjq70dLRjbauHrR19aC1sxs5ZXVoaO2CN9ES5YQRISivb+WLegmU24uII4BXFIB6Cus9PT1kI7W3k/NMYgRBJpUiwIumTyPf/BiGuRwSiXGrSXSgF8L9PRDh74EwX3eE+XlAYScz27go31cnxodg7aFzfLEvISqQJgKo1+uRl5dHObQrCsBe8QlAGc8kRhACPF3JIsyVDW3sUIZhYG8nR3KEH5Ii/JEc4Y+kCD+4OTmIUphSMS42CDKpFDq9nidAP2T1ZUtL0dXVRTm0wisJQJI+Md3ddO1m7BUcAWSEIdiXrkp7WV2rxZ2/Qi6Dn6cLPF0c4a1yhqerI7zcnODm5ABnpQJSqQTODvaQSCVwVirQ3atFX58eXb0a6HR6dHT3okPdi5qmDtQ2d6C6qR21zR2kGYYMYwl4uCgxKSEM05LCMDkhFI4OCps6fycHBWKCvJDLvdABAA4KOdnqUnZ2NvXwLEcAKuQsABlhCPJSkdmqaBCvAFTa2yE22BsR/h4I9XVHuJ8HQnxVCPB0hVRKn/fV3NGN7NJaZJXUIru0DtmldehQ9/KEY6wKlbMSC1JisWhiHLdEA5AQ7ssCsJ9wPw+yDGBiAdgCoOlKApBk7ZZyCdiBI4CMQPh5uNAJQJHsAZRKJYgO9EJShB/iQ30RH+qLCH8PQYTelfBwUWJaUjimJYUDMO41KqlpwsHMYuzPKEIePyQYC0UqkWBKYhiWTI7HtKQw2Ml5i9JPxIf6AjjPjgAQQZgBTCwAr2hMnEvAnATCCCYAnUnsdKh70dLRbZZzkEokiArywriYQIyLDcboqAC4ONqLys8SifGGGBHgiQcXjEd1Yzv2ZRRi75kCZJfW8URkRI9cJsWClFjcd/04hPm5s0MuQ1ywNzuhn8gAugxgixOAlBFABSeBMIIJQJoIYE1Tu0nH7epoj4nxoZieHI5JCaGi3GB+NQK8XHHPvDG4Z94YZJXU4rs96Thwtgh6PZfRYcSFnVyGZdMScc+8MaQrBtaIv6crO6GfqAAvEjs6nY46A/iqAlAHoA/DrAnIEUDGIm5YHjQ3rNqWDhOM1QWzx0RhenI4RkUFQCa1jvqYieF+ePuRhahsaMOqfRnYnJqDHk0fT07G7KSMCMbzt81ABGE9N2vGxdEezkoFOrs5CSwuhCYaWlxcTKqnriUAAUANYFhPRp1OB41GA4Vi+JlQvAeQEerN3tPNkUYANgsjAH3cnTF3TBTmjYtBYpgfrLnDYpC3G/5wx0w8vDAF7607ih0n87gPOGMWQnxVeP7WGZicGMrOGCSerk42LwB93J3h4UrzbBEgAzjnWgKQJF2vu7ubRACKbT8TYyVfUpUzWZZWbXMn2bgcHRSYOyYKSybHY2SkP9kYLQUPV0e88cB1WDo5Hn9bdQBldS08WRmTIJEAN09PwtM3T+PAwxDp7OZs/9ggur2QWVlZlENrBFB7LQGopjhSS0sL3NyGX2fN0vY3MZYiAJ3IbFFEAEeE+OCmaYmYnxILR3s7m78+42KD8MMrd+HHQ+fx8aZUdPdqedIywr14uCjxp3vnXsxcZ4ZGW1ePzftgRChdSaD09HTKoeVc7S9/EoAkC85NTU0ICwsbth2Vs5K/VQz9DZ8oRD8cAai0t8OiiXG4Y9Yoziy83A1JJsUds0difFwQXvhsO0prORrI0JMY7od//mYxPAnvCbaITm9An447gVDt/xNAAGYPRAA2UxypsbGRZMQqjgAygrzx093s61sHtwTs5+GC22Ym48apiXDlLQ7XJDLAE9/+8Q785bt92H36AjuEIWPOmCi88cB1nGxIQJ9Ox04AEBdMEwFsbm5GeXm5yQUgiXIjE4AuHAFk6HEnnFfNHQPbNTEixAd3zhmF68fHWE0Wr6lwtLfDmw/NR5ifOz7bmsYOYYbNvdeNxRM3Tba5fbZCwdn7xhVLH3ea+rJnzpyBgTYTLmsgArCJ4khNTSRm4O3mBKlEAj2nBDKEUC33dHZroNFe+c1XLpNi7tho/Gr2KMSH+bLjh4FEAjyyeAJ8VM7466r9XDeQGTK/XpSCR5dMZEcQ0qtlATgiRLT7/wwAMgciAElCd/X1NO2e7OQyeLo6oqGti79hDBnuREvAV4r+SSUSzB4ThcdvnIRgbxU7nJAbpybA0cEOf/pqN3R63nPEDI67541h8SfECxo4khpLuP/v7NmzlEMrAtA6EAFIErqrqKggG7mfhwsLQIYUqgjgz1vASSUSzB0bjUcWT+DEDgG5blwMtH06vPbNHq4XyAyYm6cn4XfLprIjBMAA/iImhfuR2Tpz5gzl0K4ZThStAPT1cMH5klr+hjFkUO0BvDQCmDIiGL9bNhWx3BPTJCyaOAKNbWp8uOEYO4O5JikjgvHCHTNFX1C9q0eDupZOdPdq0dWtQWdPL9Q9Wmj6rrzVxFmpgEwqhYvSHnKZFC5O9nBzcoDKWQmFnNupmopEIgHY3t6OoqIiyqFlDFQAkigtyuwV7sHIUEOVBdzcrsbkxFA8tmQS4gnrPzED477rx6KmuR0/HjrPzmCuSICnK/728AJIpeJQfzXNHSipaUZxdRNK61pQXt+KxrYu1Ld0kidTONrbQeWshLuLEp6ujvB1d4GPuzN83Z3h5+6C6GAvuCgJqhHYeAAwwMuVbGUpIyMDetrtLQMWgCShu8rKSuj1ekgJsh19ibJqGAYAFHYyOCsVJLZSRoTg5ulJ7FQz8vvbZ6CoqgkZhdXsDOYX2NvJ8Y/HFpmtqYBeb8D5klpkFFThXHEtskpq0NzRbbLjq3u1UPdqUd3Uftm/f/HOWbhlxvDvYba+BEy5/JuRkUE9vAEvAZOE7np7e1FfXw8/v+E7JdDLFQxDBWUNwGBvN6vyjd5gQEtHN5o71OjV9EHdo0WfTg91rwYKOzkc7ORwsJfDQWEHH5WTKAq1y6RSvPnQfNz11+9/sSeTYX57wyTEmHhbRq+2D4cyi3HkXAlSs8tE3SHD0YGm85Daxrv1JEf4k9k6fvw45dDKATQMVAC2AOgAMOx11/LychIBGMRZlAypALTt2pIarQ7FNU0or29FaW0LSmtbUNnQiobWLjR3dA8qs9ZBIUeApyuCvFVICPO9+DF1D28fd2e8cu9cPPPxFp7gzEUSwnxx5+xRJjteVkktNh3LwZ4zF9DZrbEIH1Gthqh7bFsAJolXAA6onsylpdArAMQP96hlZWVISUkhEIBuXAuQIcPVhrrLGAxASU0TskrrkN3/KaxqJGvZ1KPpQ3FNM4prmnH4XDEAYyb0yEh/zBodhdmjI022h3daUjgWTRyBbSdyeZIzsJPL8Mq9c02y7y+zqAbf7DqNw+dKLM5PjvY0ArCrR2Ozc83eTo7oQE8SW9XV1aRJtADODlYAllMIwMLCQpLRK+Qy+Lg7D7nnKsP87w3PzqrPr6S2GafzK3HmQhXSL1SadL8RYFxGziisRkZhNf7142FMig/F3fPGICUuWPBjP3fbdJzIKUNTu5onuo1z5+yRiAzwFPQYeeX1+Oeawxa9/9TRgSoCaLsCMD7UB3ZE2dbE0T8AGFA9mZ9HAIcNZRpziI+KBSAjqhueWND06XDmQiWOnCvF0fMlV9zsbQ4MBiA1uwyp2WWIDfbG726eKqgQdHW0xxM3TcHr3+zhiW7DOCsVuP/6cYLZ7+7V4oP1x7Du8HmLX5lyphKANrwHUMTLv0MSgCSJIFQRQMC4DHwyrwIMM2wBaAURwF5tH45llWLP6QIcyyq1iJtvfkUDfvveBsxPicUzt0wjK5nwcxZNjMPag5nIKavnyW6j3HvdWMG2euSV1+OlL3ehrK7FSl6Iae6HlrLnUQgSCTOA09JIe52XAagZrAAkCd3RCkAV39UYohueZUYAdXo9UrPLsOvUBRzOLLbYN+6dJ/ORml2G1++fh2lJ4eT2pRIJnr5lGh755zqe7DaIu4tSsMSP/RlFeOXrXcOu1efh6oioQE/4ubvA190Z7i6OkMukcHW0h95gQIe6F21dPahr6URxdRMKqhoFE1hU98NuG40ASiTAqKgAEltarZa6A0jqQP/hpQKQRLlVV1dDrVbD0XH4b/qhviwAGaIbnoVFAMvqWrDr1AVsTs2xmm0Q7V09ePbfW/DrRRPwyOIJ5PbHRAdiXGwQTudX8oS3MW6ckgClAN/xdYfP4+3vDw5pyTc60AspI4KREheM+FDfQXci0un1yCioxp4zBdiSmnPVriCDFX9U90NbTQIJ9/MgqyyRkZGB7m7SPdsnhiIACyiObDAYUFRUhKSk4ReZ5L6qDJ0AFH8EUKfX40BGEVYfyMRZKy1wbDAAn21Ng7pXi6dvpu/P+siiCSwAbQypVCJIYfatx3MHLf4CvFyxeOIILJgQi+BhrmDJpFKMiw3CuNgg3D9/HP66Yj+O55QN+7x8VE50L3XqHpucc2NiAslsCbD/b8AGLxWArTD2BB52ClVhYSGJAAzydoNCLiN782FsWAA6iDcC2K7uxcaj2VhzMNNmkp5W7EmHvZ0Mv1k6ifzGnBzpj3NFNTzpbYQZyRHkZYcyi2rw5sr9AxZ/YX7ueHDBeFw/PgYygk5YP8ffwwXv/nYxXvhsx8XSS0MWgIRdtupbOm1TAEbTCUDi/X89ADKHIgAB4zLwsAVgQQFJMBEyqRRBPioUVzfxXY4ZngAU4RJwWV0Lvt9/FttO5Il2L42dXAaDwUBWQ/BSvtx+CoFeblg6OZ7U7u0zR7IAtCGWTqGdP/Wtnfj9p1uhHUDgQSGX4cEF43H//HGQy6SCfxefu20ajp4vGVYWso+KTgDW2agAHB1FJwCPHTtGObQzAAa8Ln85ATjszTl5eXlkZxPu584CkBk29gq5aMaSfqEKy3efxvHsMoilmoSXmxMmJ4RiRKgPIgM8EejlChdHh/8RzgYD0NyhRlNbF+pbu1BW14LCqkYUVDWhoLJxUN1EfuLt7w8iLsQHMUFeZOcye3QkPF0duS6gDeCsVGDCiBBSm39beWBAdTSdHBR474mlGE2UDDAQAr3ckBjuh3PFQ3/BoRSADa22JwBDfFXwJlpGLy4uRnl5OeXwBrWefDkBOGxycnLoBKC/B9/lmGEj9Nv5QDhXXINPN58QVWmjGSMjcN/1Y5EY7gep5OrdEyQSwNPVEZ6ujogJ9sbUpLCLf6fu0eBMQRVO5JTjQEYR6gf4YOjV9uFPX+3Cd/93BxRERVXt5DIsmRyP5TtP88S3cqYnR5DNGwDYe6YAR85fu7OHVCLB+08sJcsEHQzaYW6JohKA2j4dWjttbw/g2OggMluHDh2iHt6JwfzjnwtAklIwubm5MBgMkEiG344n3I8FIDN8hNiXM1Dyyuvx6ZYTOHq+VDT+8HB1xN8fWUj2AHN0UGBaUjimJYXjudum43ReJTYey8be9ALo9VcPcxZVN2H5ztOkmcELUmJZANoAc8dGkdnq0+nx8caBBVCWTok3i/jT6w2oGeY+YR93muhVQ1uXTbZqHR1Nd93FJgDzKUbQ3t6O6upqBAYOf508nDOBGQLkZhCAxdVN+HRLGg6cLYSY7pPebk745JllgmXZSyUSY/mLEcF4rH4ivtpxCttO5F7VB9/sOoOlk+PJNvNHBngiJsgLFyobefJb8UvduBi6aMzW47moaGgd0L+9bmyMWc75aFYpWjuHVzLEz8OVRgC2dtnkvKNMACEWgBUAqgZ1r/55sAIAyaMqN5emOXuYn4dJGnsz1o2DCfcAtnX14M0V+3HHn1dhf4a4xB8AvHDnTJOVWArxUeG1++bhk6eXIdDL7Yr/rlfbh8+2kmbD4bpxMTzxrZgRoT6kBd5/ODDg5El4EZZSGQyr958dto0gLxoBWG+D+/8CvFzJXlLLy8tRWlpK+n4w6Jf1n/2+fbAK8kpQ7QNU2MkQ4OkKhhkOzkp7wY+hNxiw/kgWbnrlW2w4miXK5RFPV0dMFaATx7UYFxuEFf93B5Kv0j9ze1oeqhrbyI45LTmcJ74VM4ZwKe5sYTUKqgYeLS4yQ2Li7tMXhr1/2MvNiUw019lIyapLoexpLsDy76ANXm5djCR0R5kJHBngCYYZDkJnAeeV1+Ohv6/FX1fuR3uXeDdGzxodabaEGBdHe3z01A0YEeJz2b/v0+nxPUGE49L7RoAXvzxaK6MIS3HsPn1hUP9+R1qeSc+1uaMb7649Mmw7wd5uZGOqJHxZsxQoM84PHz5svQKQMhM4mrBEBGOb2MmFET1dPRr8deV+3Pu3H3C+pFb0ftBozVtU3dFBgT/+atYVM463pOaS9juemhjGk99KoSodpDcYsC99cAUwDp8rweFzJab5zvbp8PtPt6Kxbfh77oJ9VGTjqqi3LQEolUgwPla0GcD1GEIOh0UIQI4AMsNFIaePAJ65UIk7/7wK649kWUw2nBjKNsSH+WLu2OgrCur96YVkxxpLmCTAiAcXR3v4utPsxSqobBxSzcg3V+xDdVO7oOep1xvwl+/2IZOosHkQYQRwoAkz1kJcqA9UzjT9f2tqasgaZvykJzGE/I3LCUAS5dbQ0IC6ujqSM4sO5AggM9y36D4yWwaDMWv1N+9tEPwBQE1Waa0gXT0Gy4hQnyv+3Y6T+WTHGR0dCAnnkFkdkQGeZNf1zIWhbXtvalfjt+9tECwbVtOnwx+/2IHthMvNVBFAbZ/OZtpW/sQEwv1/Bw8epB7ekMKJgkUAAeD8+fMkdkJ8VLC3k4NhhgrVvjxNnw5PfbgJH244ds36dmKkuV097F6iFPhepR/p6fxKsuvl4aJEqC+XkrI2KLPYM4uqh/x/Kxva8NA7a5FXXk/7Pe3oxu8+3DTopelrCkCiCGB1U7tF3v+Gw8R4uv1/e/fuFa0AbABAUjyLSgBKpRKTla1grJOaJpq31bLaFhzPKbNoX6zYm2H20jRXi0Lq9HqkZtP5+GqZx4xlQrX8CwCFVcPL6K1uaseD76zFj4fOk2wFOZRZjDveWIFT+ZWkPpNIgBCil6Hy+labmm9KezskEd5H9uzZQzm8Jgxx5fZKO+NJloGpBCAARPEyMDMMWoZZPPUn5HKpxfviXFENNqdmm3UMe89cPbJBKQCvttzMWCY+RHX4NFodyV42jVaHt74/gHv+uhpnLgxNuF2oaMCLn+/Ac59sHVAv4sH7zOV/ensPB1tLABkTHUjWcjAvLw8VFaTtQI8AGNK+niutq2YBmC4uAciJIMzQ6dHQ7AF0drC3Cn98sP4YJieEkTU1HwwNrV04cY0o6lD3ZV2O+FBf/gJYGd5E/WxrmmmXMvMrGvDou+sRE+yNpZPicf34GLi7KK8qHNPyyrH24DkczykTNDIf6qsis1VpYwkglOVfdu/eTT28IacTX0kAkii37Oxs6HQ6yGTDV86cCMIMh87uXhoBqFRYhT/aunrw3Cdb8Pnzt5h8f+3fVu2H5hoN7etaOlDV2HbV7iEDvncEecFOLoO2T8dfBCvB09WRxE5dizDdLC5UNOAfFYfwjzWHEODliuhAL4T6quDmpESvtg9N7WoUVTchr7ye7OX0WlBuoyqtbbGp+Ua5/494+Ve8ArC7uxvFxcWIjo4eti2OADLDE4AaEjtKezvIpFLo9HqL90lOWT1eXb4Hf314/hXr8lGz/kjWgOunnS+uJRGACrkMUQGeyCXeqM+YDyeibhYUtfWuRXVjO6obzV8tgDIZqrTOdgSgj7szwv08SGxptVrq+n9NADKH+p+vtKEpC0Q9gamWgb3cnMje+hjbo6tHQ2bLyUqigACw90wBXv5yl0miY3vOFOCt7w8MSqBSwfsArQuqdmYd6l6b8RmVAOzu1aLBhvoAT00MIys5dPz4cXR0kJbP2Ych7v+7mgBsA0CyS5FyH2BssDff+ZghQRUBBKxnGfgndp++gGf/vZW0A8fP2XI8F3/6ateg9lvlltWRHZ/3AVoXzkQCkPLFUOxQLQGX1bXAYEMVYCh7pwuw/Dssg1dLaTzHApCxHgFI96bvrLS3Ov8czynDnX9ehYzCalK7Or0eH244hte/2TPoAtS55fVkS+3xHAG0KuyIMjKFfOkREwo7GXzcaRJnyupabWaeKeQyjCNs/yaAANwnlAAkUW5nz55lAciIQAByBPBaVDW24bF31+Pfm46TbExPzS7DHW+swje7zgzp//do+sg2m0cEeJKVcWCsB4ONhLKCvFVk+3xLa5ttZn6MiwsiK53T2tqK06dPUw7vAoBhNaSWCy0Ai4uL0dbWBje34W/mjmEByAwR0j2A9gqr9ZNOr8dXO05h/ZEs3DFrJG6bmQxXJ4cB/3+9wYBTeRVYuS8DqVnDr+WXU1ZP0gtcLpMiIsCTvGMDw1iEAPSi6wFsSxHAKQlhZLb27t0LnY50r/Www4lXE4BZVG9YmZmZmD592GUFEeytgpODwqb2bTA0qAnnjKODndX7q7WzG59uOYFvd5/BrNFRmJYUhuQI/8suIzW0dqGwuhEZBdXYnpZH2iM0t6wOSyaNILEVE+TFAtBKMBgMkBBEtGRSqU34K4SwBqAtdQGZkkgnALdu3Uo9PEEFYB4ADYBhhzsyMjJIBKBEYqzpdZZ4nxJj/XRSRgAdFDbjN3WvFttO5GLbCWOLcDcnB3i6Ol6sHVjT3IHWzm7Bjp9dSpcIEh3EtUStBa1OB3vp8OtXOihso8c8ZQTQVopAR/h7IIiod7Jer8fOnTsph9cH4KCQAlALIBfASAoBSEVssDcLQGbwQoYFIAltXT1o6+ox2fEKq5qg1xsglQ4/2hPDAtCKvs9akgLmjva28V0O9qERMi0d3aT7qcXM1KQwMlunT59GXV0d5fDSYKzWMiyuFf8mUW7UApBhBkuPpo8so9TRhgWgqenV9pEtOcUEecNE9a4ZoQVgL40IcVLaiAD0VpHYqbChFnBTE+nKv2zbto16eCTpxCYRgDk5OejpoYkaxLEAZIZIVw9NyQcnG9gDKCYuVDaQ2HFxtIePyoUdyt/li3hcpU+vtWAnl8HPg2beVza02cT8clYqkBzpL2YBSNJQ+FoC8CzFQfr6+pCdnU1y1uH+HlzOgRla1IBoGdhWlo3EQkFlI5mt2GBeBrYGqLYheNhAdylfd2eSLRS2JACnJoVDLqNJEKqpqUF6ejrl8FoBnDKVACRZN6NaBraTyxDFe3mYIUUNeNnIErlAKAApSsow5qeJqIevp00IQLqod4WNZADPGhVJZmv79u3U9SZ3wpgEIrgAbAdQLCYBCHBVf8a8AlCp4CVgU0IZAQz392CHWoMAbFeT2PFyc4LCzrpXlLxVTmS2qhrbrX5uKeQyTIoPIbMnwPIvmcGBxDhFlwjCfT2ZoUDR3QIA7G2kdIRYqG/tRHMHTamZMF93digLwP8+ACUSsgQJseJL1AIOAGmNT7EyMT6ELNFPo9Fg7969lMPTg2j/n0kFYGZmJvr6aB7AIzgCyJhTANrxHlRTU1zdRCMA/T04E9gKqGmii0SFWvlLgY+KRgDq9QY0tndZ/dyaSbj8e/jwYXR0kIrmNABk1exNJgDVajVyc3NJBh3p7wmlPS/DMYN8G9PSCEAHO44AmhqqnsCO9nacCWwFlNW1kNkK87NyAUgUAWxs64Jeb929k6VSCaYl0ZV/EaD7B+l68kAE4Fmqg1E1QpZKJVzUlRk0vVpeArZUSggb0If78zKw5QvAVuiJNtaHErZJE6UAJIoA1rV2Wv28Gh0VCHfC0kCbN2+mHuJ2UwvAWgA1YhKAAO8DZIYiAGkacSs4Amh6AVhDKAD9OBHEGl7m6ltoBAkvAQ8MKn+LGcrs3/T0dJSUlFAOrxqEAbmBCkCAaBmYUgDyPkBmsNDtAWQBaNECkDOBrQKqZeBQX3er3RcqlUrISt3U20AEcHoy3fLvhg0bqIe3DQDpGvxABSCJcsvMzIRGQ1OKgyOAzFCiBhQ4cBKIyWlo6yLrQUrV4J0xtwBsJbHj4mhvtZnAKicHsiLQDVYuAEeE+CDAy5XM3vr166mHuJ3aoEkFYG9vL7Kyssje2py5IC8zCDS8B9CiKSXaB8gC0FoEIF0iSGK4n1X6yMnBnu4lrNW6M4Aps38LCgqQk5NDObxeAHupz9mkAhAATp0i6WACiQSIDeZlYGbgUC0By6RSsjZBzGAEIM0D38/dBXbcTpIF4CUkRVinAHRxpAuStKl7rHo+zR5DJwAFiP4dAkAegh3oU6wGQBXFASn3ASaEsQBkBvEKRRQBBHgfoDmobKTpQyqVSuDvyaVgLB3KDjFJVhoBdFbSRQCptmCIkZhgb9LkMAH2/20Q4rwHE8YgCd2dOXOGbPCJ4f58F2QGjKZPR2aLI4BmEICEjeh5GdjyaWpXo5qoIHR0kJdV1pal3CZlzQLwurHRZLaqq6tx8uRJyuHpAWwW4rwH8xQjUW5ZWVno7qZp62Stb22MMFAWMZVwOwnLFoBeLACtgfPFtSR2ZFIpRoRY34oSZQSwy4oF4JyxUWS2Nm7cCIOBNFk3DcYSMGYVgCQRQK1Wi8zMTJLBe6uc4OvOSznMwKD8UlJl1jFmEoBW3v/VVsgqqSWzZY37AGkjgL1WOYfiQ31Is8AtZfl3sAKQbO2WMjxqrZt3GQEEIKEtln+mp7Wzm2wZivcAWgfnCQXguNggKxSANBFAvcGA7l6tVc6huWNjyGy1tLTg0KFD1EPcKAYB2AiApKx1Wloa2QkkhnE9QGaANzHCJWApLwGbhSqiRBBfou4IjHnJr2iAhqjDz9joIKtL7qKKAKp7tGSt98SERALMJVz+Xb9+PbRaUqF8HkCBGAQgQFQO5sSJE3QCkPcBMoN4iyX74kg5CcQ8ApBm07+vB0cArQFtnw55FfUkthR2MoyODrAq/zja0whAa13+TQr3R4AnXfHnNWvWUA9xg5DnbxYBWFxcjLq6OpITiA/15ZpezICg3APIAUDzUNfSQWLHw8URCr5vWAWU+wAnjgixKt9Q7VWmqqEqNuaNo8v+bWxsxP79+61aAJ6iOjDVPkCFnQxRAZ58F2QGIAAJvzisAM0CVUN6iQTwUjmxQ62As4V0CZKTEkKtyjdU1QoMsL7lX6lEgjlj6JZ/161bh74+UqFcCuCsmATgaQAkGy4o9wFyIggzEPQGLgNj6dS10BXD532A1sGp/Ero9HoSW5EBnlxZQuCXZ7EwMtIfPoT3AAGWfzcKLoIH+e87AJA0uON9gIzJBSAngViBAOwgs8X7AK2DDnUvskvqyOxNGBFsNb7hu9SVmZ8SS2artrZWiOzf9UL7YCg72UlCdydPnoROR5O9xQKQGeB7LN2NlXNAzCQA6SKAXm68BGwtHM8pI7M1NSmcHfqLW6d1hQDt5DLMJez+8eOPP5LpmZ9udQBSxSgASUJ3HR0dyMkhCSYi2FsFNycH/pIyV0XHEUCLp7Gti2wp391ZyQ61Ek7klJPZmpwQajVt4ahuU9a2Ajw1MYxUMwiw/PsjiLbbiVIAAnTLwBKJcT2fYUx2Y+XFFbPQp9OjrbOHxJaHqyM71ErILqtDexfNvHBQyDHZypJBhv+Mta773cKJcWS2ampqcOzYMeoh/mAKPwxFAOYCIKnGSpkIMjIygL+lzFWhLPuh6dOxQ81Ec4eaRgC6cATQWtDrDTiZV0FmjzI71NwvTBRYS0QUAFwd7TElMYxOqf3wA/RESUg/aUoAx0zhi6EIQD2IysHQCkCOADJXh7JepFbHAtB8ArCbxI67C0cArYnjhMvAU5PCraIrSFcPTVcKJysSgPPGxZAGAwRY/l3Tr7NEKQABomXgnJwctLfTVPaPD/Xlwq6M6QQgRwDNJwDbOQLIXE4AlpHlKjja22FivOUXhVb30PTOdnRQWM08WTiBbvm3rKyMtKJJPz+YyhdDFYAkoTu9Xk/mPIWdDHEhPnwXZK4iAOlSd1kAmlEAEi0Bu7MAtCrqWzqRXUrXFcQaloHVvTQCUC6TQmFn+QGWAE9XJEfQrRZ+++23pB2mAFSAMM9CKAF4HESJQZSbJ3kZmLmqAJRRRgD17FAz0UK0BGxvJ7eKhxrzX/ZnFJLZmpYUbvGrSlRLwADgZAVRwEUT40jbeK5cuZJ6iD/AhEnXQxWATQCKWQAylgTlw54jgOajjSjbEwCclfbsUCti75lCsmVgF0d7TE0Ks3ABqCGz5Whv+QKQsvhzWloa8vPzhRCAJmM4a2IkYcoTJ06Q9c8bFRUALs/GXAmqPYB9Oj1pWzlmcHSoewkFoIIdakVUN7Ujv6KezN7iSSMs2h9qQgHo6mjZL0tJ4X4I9XUns7dixQrqIRYDOGNTArCrqwvnzp0jORmVsxLBPiq+CzKXF4BES8Ac/TMvnT2UApAjgNbG/owiMltTEsMsul5kZzedAHR3tew9s5Rivq+vD2vXrqUe4hqYuOb2cAQgWZsSymXgUVwPkLmSAJSzALQKAUj4UOMIoPWxN72AzJZMKsV146It1hdU+2UBwNOCyybZ28lx3bgYMns7duxAXV0d9TDXmNovwxGAmQBIOrPzPkDGNAKQJgtYq+MEEGsRgC4cAbQ6yutaUVTdRGZv0UTLXQamypgHLLtu5pwxUXAhXML+7rvvqIeYCyDDkgSgDsBJikEcPXqUUAByBJC5ggAkWgLmLiDmFoB0S8DW1OGA+S/70umygUeE+CAywNMi/dCu7iHrBmLJdTNvmBJP59P2dmzdupV6iCvM4ZfhhkRIQndVVVUoKysjOaFQX3eouMk7cxmosoC1WhaA5qSnl660BRePt052pOWDMk/LUqOABgPdMrCl7oUM8HLFmOggMntr1qxBd3c36WUC8L3NCkAASE2l2VIokRizgRnm55DtAeQ2cGall1CAOyjk7FArpKKhFeeKa8jsLZwQC7lMapG+oOudbZkC8MYpCaTVQQRY/j0MoMQSBeBxGJeChw3lPsAx0SwAmV/i5ECz3NfLEUCzounrI4vuWEO/V+bybDuRS2bLy80JM0ZG2LQA9HJzsrhzl0olWEwYvS0tLSXdsvaTpjSbf4b5/zsAnBebABwdHch3P+YXODvQbAKm3IPGDB6DgS4T246XgK2W3acvoFfbR2bv5mlJlikAiXpn+7g7W9y5T4oPJR338uXLodeTJgH2AFhnqQIQIFoGPn/+PNrb20lOKjbIm8s7ML/AiWhOUFbXZ4YG1YOdl4Ctl85uDY6co1tZGx8XjBBflcX5oaG1i8SOq6M9HC0saYoy+UOv12P58uXUQ9wMoNXmBaBOp8Px48dpTkoq4Wxg5pcCkKiXpZoFoNmhysSWyzgCaM1sO5FHZksiAZZNTbQ4H9QTCUDAsqKAbk4OmJoUTmZv3759ZMmql/CdOX0kGgEIAIcPHyY7sTG8DMz8DKqoMGUdOmZoGLgVHzMAUrPL0NROVwtvyeR40p7ipqCupYPMlq+7i8Wc9+JJI0iz/L/66ivqITYA2GXpArAcQAXFYA4dOkR2YqM5EYT5GVQRQF4CFoMApLHDvcOtG51ej12n8snsuTk5YO4Yy+oMUt/SSSgALScCeMOUBDJbzc3N2LhxI/UQVwPQmtNHVHntJDVcTp06BbWa5m0tPtSXi7wyF7G3k5Nt+GcBKAIBSNQyU8oK0OrZeDSb1N4t0y0rGYQ2AmgZAnBMdCAi/D3I7K1cuRI9PT3Uw/zO3H6iEoAky8AajQYnTpwgGZBcJkVShB/f/ZiLb+5U8BKwKBQgCaz/rJ/immZkFFaT2UuO9EdCmK/FnH9LZzfZnllL2QN4M7FI//rrr6mHmA/glLUIQLLCOKT7AKN4HyBjROVMJwDbu3rYoWbXf1R7AFkB2gLrDp8ntXf7rJGW810xAA2tNMvAfh7i3wOoclZi1uhIMnvp6enIyCBv0/uNGHxFJQAzQZTKzIkgjFA3BSpaO7vZoWaGKntXR1vTixEp+9IL0dxB9729blyMRWXE1jXbjgC8cWqC2JM/+qxNAOpBFAU8fvw42Vp7YoSfxWVsMcJAuQTc2skRQHNjR9SWS9vHAtAW0PbpsPV4DuELiNSi9gLWEu0D9PdwFfV5SiS0tf96enqwatUq6mHuBFAtBn9RNjc8QuXw06dPkwxIIZchMYz3ATIcAbQ6AUj0ht/HfZ1thnWHs6AnLB90y/QkiykkXttMIwAdFHLSl2lqJiWEIthbRWZvw4YNaGlpoR7mV2LxF6UAJKvhQlkOZmwMLwMzgBvhHsA2NUcArUUAUrWUY8RPVWMb0nLLyey5OjlgQUqcTQlAQNzLwNTt+r744gvqIdYD2GqNAvAMjL2Bhw3lPsBxsUF852PI3lrVvVpotCwazIlEYlyCIxGAOl4CtiXWHc4itXfn7JEWkUle22L9AtDH3RnTCDt/5Ofn48CBA9TD/BZmrv0nlADsA0BSwyU1NRVaLY2PkiP8uR4gA09XRxI7bZwBbHaUCrrvM4t52+LwuWJUN7WT2YsI8MSk+FDxC8BmumLQYhWAy6YmQiqlU+OffvqpEB2HvhaTz6TE9kjWbjs7O8nSru3kMiRH+POdz8bxVtFk7LV08P4/c0PV0QUA1L1c09GW0OsNWHPwHKnN+64fK34BSCh6xdgOTiaVYilh8kd3dze+/fZb6mEeB5AjJr9RC0CytduDBw+SDWo8LwOzAHRzIrFDVU+LGYYAVNIJwC4u6m1zbDiSRdrNZ2xMkOiDDOpeLdrVvSS2/DzEV/5mxsgI+KjoxvXDDz+gubmZephfic1v1ALwJACSEAmlAOR9gIwXkQBsbOtiZ5pbABJGALmtn+3R1aPB1uO5pDbvuW6M6M+bKhFEjEvAd8ymLcz9ySefkE87AGusXQD2AkijMHT48GFoNDQ35/hQX7g42vOdz0ZxcbQnK9fAAlAEApAwAtjJAtAmWb0/k7QkzMyRkaS9Z1kADpzIAE/Spg+ZmZk4efIk9TDXAmgX25yQCmCTZBm4q6sLp07RtMqTSiUYHRXAdz0bxZtwaaCBBaDZcSes6chLwLZJRUMrjp4vIbMnkQB3zxN3FJBKAHq5OZGVYaLgrrmjSe19/PHHQgzzKzHOCdEKQADYt28f2aB4Gdh28XJzJLPV0MoC0OwC0IVOAHJWt+3y/b6zpPYWTogTdY28OqJSMFKJBN4qJ1Gck8pZifnjY8nsdXR0YPXq1dTDzAVRpzRLEIDHAZC8VlPW4BkfF8x3PBuFcnNwU7uaHWpuAehMI+gNBhaAtsyp/EpcqGwksyeXSXHn7FGiPV9rLAa9bFoiabvXb775Bh0dHdTD/BSAQYxzQggBqIYxGWTYpKamQq2meeBGBXjBw9URjO0R4EnXv7Kes4DNLwCJIoAd6h7uBGLjrNiTTmrvlhlJZBUHqKkhFIC+KvNnAsuk9P2YP/vsMyH00Ldinf9SgezupzCi0WiQmppKMiCJBBgbzW3hbBF/IgGo7dOhlesAmh2qot6tnRz9s3V2nbpAWhja3k5OvieNijrCYtCeIhC5c8ZEwcedTogePXoU58+fpx7m9wBabU0Akq3dUi4D8z5A2ySQSADWtnSQZg4yQ7yeXm4kdpo6eDnf1tHp9Vi5N4PU5m0zR4oyCtjQ1gm9nub+5SWC1TTq0i8ffPCBEMP8VMzzXygBmApj6HPYUCaC8D5A28TPk2a/Sk1jBztTBAR40Qh6LunDAMCmY9mkHX4UdjJRZgTr9Qa0dNKcp5eZBW5ciA9p8e2qqips3LiRepgZAE7bogDU9IvAYXP69Gm0traSDCrER0X28GAsA5lUCl+iZYKqpjZ2qJnxcFHCkai3d1UDX08G6NH0Yc3BTFKbt85IFmUUkOqlx9wC8FdzRpHa++ijj6DVaqmH+bHY575UQNsk+wB1Oh2OHDlCNqgJcSF8x7MhfD2cIZPSTPOaJo4Amhuq5V8ApHu/GMvmh4PnoCYsCq6wk4myO4g1CEAPFyXmjo0ms9fd3Y3PP/+cephtAFaLfd6LXgACtPsAJ4zgZWBbwt+DLuJbw4LB7FBG8Ksa+XoyRtq7erDxWDapzVumiy8KaA0C8PZZo6AgLES9cuVKNDU1UQ/zGxjbv9msADwNouyX/fvJtCRSRoRAKpXwHc9G8CXMEuOIkfmhjABWNfISMPNfVuzNIC0LZIwCjhWZAKRJfHJWKsjaaw4GB4UcN09PJLX54YcfCjHUzyxhzgspAHUASNZuz507h4aGBpJBuTraIyHUl+92NgJlwVJeAhaDAKSJAOr1BtLCuIzlU9/Sic2pOaQ2b5meRFqIfvgCkC4o5eakNPn4b5iSABVhK8gDBw7g3Llz1MM8BCDbEua8VGD7JCm8BoMBe/fuJRvUxHjeB2grUEUAtX06zhoVhQCkiQDWtnSgT6dnhzL/w1c7TkNDHAUUU0YwZScjNyd704oVqYS804otln4xpQAk27y3Z88eskFNGMEC0FagigA2tHZxDUAREOHvQWKH9/8xl6OupQObj1lvFLBdTVf83MXRwaRjnzsmGkHedFtAysrKsGXLFuphVgNYzwLQyHkAdRSGdu/eDQPRAzgpwg/OSgXf7WwAX3caAcjLhebHx92ZrJ1jNe//Y67A1zvpo4BiyQhuJ+x9beoIIHXplw8//BA6HXkryE9gLIPHAhDGBsiHSN7Yq6qQk0PzZiaTSjE+lrOBbQGqtmF13APY7MQFe5PZ4gggc8XveksHNhFnBN88TRxRwHZ1L5ktU0YAx8UGITHcj8yeWq3G119/TT3MXgCfW9Jcl5rgGGQpvLt27SIbFC8D2wZUkd76FhaA5iaWUAAWVTexQ5krIkQU8L7rzZ8RbKkRwLvn0kZQv/nmGzQ3N1MPczWIVjytSQCS9XKj3Ac4OSGU73JWjsJOBjuielGtnd3sUDMTF+JDZiuvvIEdylz1hY86CrhsWiLpHrahoO7VkpW6MVUEMNzPA1MSw8js6fV6/Otf/xJiqB9Y2jw3hQAsBFBMYejQoUPo7qZ5EAd4uZr9y8gIi7OS7g21q0fDDjW7AKSJALZ2dqOuhfd0Mlfny+2n0KvtI7NnJ5fhkcUTzH5eHd009zJXR9NEAO+7fiwkhKV7N2zYgIKCAuphHgGQzgLw8uymMNLd3Y1jx46RDYrLwVi7AKRL9OnsZgFoTtycHMgSejj6xwyExrYubCLOCJ6fEku6lWFIApAoE9gUhaB9VM64fnwMqc1//vOfQgz1A0uc46YSgGRrt7t37yYb1KR4Xga2Zpzs6QQgRwDNy4hQuuXf/AoWgMzA+GoHbRRQKpHgtzdMMus59WpploDtCNuxXYk7Zo8iPc7Ro0dx/Phx6mGWA9jIAvDK7AWgFZsAHB8XTNpTkBEXchnd9O7WaNmhZmR0VCALQMbkGKOAtHsBpySGYVxskNnOiWoPoFwm7LPT1ckBtxC3ffv73/8uxFD/DaDPEue3qQRgO4BTFIbOnTuHmpoakkE52tthVFQA3+WsFAnhxhG9notAm5PxhA/M3LJ6digzYL7acZo0CggAT940hXRfmzkEoNDBkztmjYSjA90qTn5+PrZt20Y9zG4AX1jq3Jaa8Fgky8DUbeEos4sYsSlAdoE14OigQHwYTf/urh4NqrgINDMIGtu6sPEobRQwIcwXM0dGmuV8NBYgAJX2drhtZjKpzX/84x/Q68nbP34HwGJrSplSAJIV8aMsB8MCkGHEzeioALLl/PyKBm7pxwyar3fSRwGfuGkyZFKpyc+FKgJoZyecALx1RjJUzkoye/X19VixYgX1MA0APrLkeW3K2XcSAEnlRcq2cGF+7lwOhrn2N51Fg9mgXP49W1jNDmUGTWNbF9YdPk9qM9TXHYsnjbBcASgTRj4o7GTkbd/ef/999PT0UA91D4ztblkADgAdgAMUhurq6pCRkUE2MI4CWieU+/bsTVDygLmCAIyja9t4Kq+CHcoMia92nCYvB/XYkokmKadyKWJfAr5xSiK83JzI7HV1deE///mPEEN9x9LntKnjz2Rrt9u3b2cByFwVNWHpFmfCzcjMwHFzckB0kBfNg0+rQ2ZxDTuVGRKtnd34bs8ZUpveKifyvW7XgmrZWSfAqohcJsU919G2ffviiy/Q1ES+Te8cCLuc2YoAJNsHSCkAx8UGwdHeju9wVkZXD13pFicWgGZhalI4pETpkmeLqqHR6tipzJBZte8smtrVpDYfmD8erk4OJjsHqrp6WgG+SwsnxMHfw4XMnlarxXvvvSeEG9+GcQ8gC8BBUAqApAdLWloa6utpyjko5DKMjQkCY20CsJdOACpZAJqDWaMiyGydzq9khzLDortXiy+2nSS16eJoj/uuG2uyc6BauqVaSr4oRqQS3H/9OFKbK1euRGlpKbULKwGstYb5LDXDMUkqOev1etKi0LwMbH2oe7RkGZ+ujg7sUBPjoJBjImG3HhaADAUbjmahoqGV1Oads0eRRr4sUQDOHRONEF8VmT29Xo+33npLCBe+C6LGFrYoAMmWgXfs2EE2qGnJLACtDb3BgO5emu+pj8qZHWpiJsaHkm2QV/dokF1ax05lhk2fTo9PNp2gFWV2Mvz2xskmGT9V+RYtoQCUSIAHFtBG/3788Ufk5+dTu68VFlz4WQwCcD8AkrW5nTt3oq+PpjaTr7sLIgM8+e5mZTS2dbEAtFAol3/TC6qhoy8Cy9goe85cQG45bUeZ+eNjyQqeX1VsijACOGtUFKIDvUjP8+233xbCfZ8A6GABOHS6ABymMNTc3Iy0tDSygfEysPVR30okAN1ZAJoSuUyKaUnhZPaOZpWwUxkyDAbg442ppDYlEuDpm6cKPnayJBAiASiRAA8vSiE9xy1btiA9PZ3adb0APrSmeSw103HJUngps4GnsgC0OhpaO1kAWiDjYoPIMiMNBuBwJgtAhpYTOeU4SVxXckx0IGaMjBB03C5KexI7VBn1c8dEIyaINvon0N6/FQCsqo6UuQQgWUdmSgE4KiqAtP0MY37qW2gEoKujPTxcHdmhJmLRRLoOCVmltagnehFgmEv5aMMxUJfDe2rZFLLWhz9HIgHcXWiecV0EdValEgkeWkgb/du3bx9SU1OpXWeAMfnDqjCXACwAUTmYzMxMVFbSZPdJpRJeBrY2AUi0BAwAEf4e7FAT4GhvRxoFOZBRxE5lBCGnrB77MwpJbYb6umPZtERBxqtyVpKJS4r91deNj0FUIO3e+zfffFMI120FkMMCkA6S0J3BYCDNBhY6/M6YlqrGNhaAFsbcsdGkhdkPZRazUxnB+HhTKvp0tAlGv140Ac4C1B71JFzFGG5BbKlUgoeJo39paWk4cOCAEJf579Y4d80pAMlUG6UAnBQfAoWdDIx1UFxN1wIonAWgSVhMuPxbXN2EsroWdiojGOV1rdh0LJvUpruLEvcRF0U2CkC6HruN7cOLAC5IiUOYnzvp+f35z38W4hIfAnCUBSAtBwGQbMzZs2cPentpuj4o7e0wIS6E72pWQm1LB9REtQDjQ33ZoQIT4OmK0dGBZPb28/IvYwL+s+UEyZ64S7lrzmjy4tCkEcC2oUcApVIJHiSu+5eZmUmaE3AJb1rrvDWnAOyFsSbgsOns7MShQ4fIBsbLwNaDwQCU1tJEgGKCvDg6LDCLJ40AUetfAMCBsywAGeFp7ujGN7vOkNpU2Mnwmxsmkdr0chPHEvDiiSMQ6ksb/XvjjTdgMJC35z0JYA8LQGEgk+ubNm0iG9T0kRFkDegZ81NSQ7MMbCeXIS7Ehx0qEDKpFDdOSSCzV1zdhPyKBnYsYxJW7s1AbTNtjeD5KbEYQXjP8XWniSj26fRo7+oZ0v+Vy6R4aOF4Uj9lZGRgw4YNQlzWv1rznDW3ANwGY3o1iQCkUv8eLkokhvvxHc1KKKii2weYxPNCMKYnh5PWW9xyPJedypiMXm0f/rOFtkWcVCLB07fQFYemiro1t6uH3Gd9yaR4BHq5kfrptddeEyL6lwNgCwtA4agEkEVhqKqqCmfO0IXgeRnYejhfTFe7c1xsEDtUIG6ZkURmS6fXY8fJfHYqY1K2ncgjbxE3NiYIkxNDSWyF+KpI7Ay1BIxCLsODxNG/06dPY8sWQXTanwFYdf9IqRi+M1SGKJeBZ42O5LuZlZBbXk/WtmhcTBBZL03mvwR5u2F8XDCZvRM55WR9oBlmoOgNBry/jj5h9JlbpkEmHd7j2t5ODj+ipJLy+tYh/b9bZyaTJ7a8+uqrQkT/CgCstfb5KgYBSFbDhVIAhvioyDepMuZBo9WhoLKRxJbS3g4jI/3ZqcTcOiOZdN/tthN57FTGLJzOr8SxrFJSm+F+Hlg8aXjlkaICPcm+Y0MpreTooCAvbXP69GnSMnCX8BYAnbXPVTEIwFQAzRSGzp8/j+JiuqKvvAxsPZwvqSWzNSkhjB1KiINCjiWT6Gr/dah7cTCTs38Z8/Hej0eh09OuHj62ZCKUwyiQHhvsTTaWsrrWQf+fe+eNgYcLbavVl19+WYjoXzmMfX+tHjEIwD4QZgNv3ryZbGAzWQBaDZlFdPsAZ4wMZ4cSsmjiCLg6OZDZ2336AlmjeoYZCiW1zdh0jLZzmLfKCb+aM2rI/z8miFIADi4C6O6iHNbYL0dqaip27dolxOV7B4DGFuapVCTjIFu7pVwGTozwgwdh4UzGfKTllg85a+3nhPq6IybIi51KgEQC3Dmb9sGw/kgWO5YxO59uPk5eHPq+68cNuZhzfBhNIXudXo+S2sEt2v16UQocHWhb273yyitCXLY6AF/ayhwViwDcCaCHwtCRI0fQ2Eiz30sqkWDWKE4GsQbaunqQW0aXnTd3bDQ7lYBpSeGk7aAyi2q49h8jCpo7urFiTzqpTUd7uyHto3O0t0NsMM1La3FN86Ai7AGerrhxaiKpH44dO4Z9+/YJcdneAdDNAtC0dIKoK4hOpyNtBzNnTBTfyayE49llLABFxq/mjCa1t+7weXYqIxq+3Z2O+pZOUpu3TE+Cl9vgevomRfgPO4v4J/LLB/eC9ZsbJpFXTnj55ZeFuFy1AD6xpfkpFdFYRLkMPC4miHzjKmMmAZhDJwBDfFRI5mzgYREd6IWxMXR1FVs7u7E3vYAdy4iGXm0fPtuWRmpTYScb9IvTGML+2hcqGwb1Hb9+fAzp+e/fvx8HDx4U4nK9DUBtS/NTbAKQJG1q586dUKtprqNUKsGMkbwMbA1kldShrauHzN4y4mUNW+PueaNJ+/5uTs3h5A9GdGxOzUFRdROpzVtnJA0qMDEpPoT0PjpQnrhpMnlbVYGifzUA/mNrc1NMArAOxsbLw0atVmP//v1kA5s7lpeBrQGdXo8DGUWE8yIaLo727Ngh4O3mhOvG0UUG9AYD1h3m5A9GfOj1Bnyw/hipTaW93YCjgCpnJeJCafoJ92r7BtzpZFRUAKYkhpGe9/r163H8+HEhLtNfYUN7/8QoAAHCZeCNGzeSDWpcbBDcCMtUMOZjzxm6JUIHhRwLUuLYqUPg1pnJsCPcF3Q4sxhVjW3sWEaUHMsqRVpuOanN22eNhPsAooCTE0LJonBZJbUD6qokkQBP3TSF9gVep8Of/vQnIS5PNWwo89dmBGBfXx+JLZlUipmcDWwVnM6vRHMH3YveXXNHQSqVsGMHKZxvnp5EanPl3gx2LCNqPlh/jKwUFWCMAt4xa9Q1/93UpDCyY54tHFg91bljosn3SC9fvhw5OTlCXJq/wAajf2IUgLkALlAYampqwoEDB8gGxtnA1oFOr8fBs3TLwIFebpjJe0QHxZJJ8aQR9dzyemQUVrNjGVGTX9GAnSfzSW3eOiPpqt1BHBRyTEuiK1x/5kLlNf+NnVyG38GE+RwAAGR8SURBVN44ifQ8e3p68MYbbwhxWcoBfGWrc1IqwjGRRQF//PFHskGlxAWTditgzMfOU7Q34XuvG8NOHSASCXDH7JGkNjn6x1gK/950nDRRydXJAQtSYq/491OTwofVPu5Sunu1ODuAF607Z49CsLeK1G8fffQRysvLhbgkfwHQywLQCgXg+vXryZaB5TIpt4azEjIKqlA+hF6WVyIx3A/jYoPYsQNgckIYQn3pCj/Xt3Ri7xku/cJYBrXNHdhwlDZZ6a65V86mn0u4cnUqvxKaa+z/c3dR4sEF40nPr62tDW+99ZYQl6MMwDe2PB/FKACPw1iQcdg0Njbi0KFDZAPjZWDrwGAANh6jvQk/edMUSHgr4DWh7ge6+sBZ9On07FjGYvhm1xnSKGCorzsmJYT+4s9dnRwwPZkuaJGaXXrNf/PI4glwVtK2fHvnnXfQ1NQkxKV4HTbS89eSBKAeAFkrD8pl4AkjQuDKZT+sgs2pudd8mx0MCWG+mJoYzo69ChH+HkiJo6tH1t2rxcZjOexYxqKob+0kjwI+vDDlF3+2ICUWCju6TPvUa3RSCvNzx03EtVHr6+vxwQcfCHEZCgF8Z+tzUSrSca2nMrRu3TrSZeBpybwMbA20dnbjUGYxqc3Hb6QvempN3DF7FGmUdNOxHLQTFvZmGFPx9c7T6NX2kdlLjvDHhBH/+3J1w+R4Mvs5ZfWobmy/6r955pZpkMtoJcXrr7+Ojo4OIS7B6wD6bH0eilUA7gbQQmGooaEBR44cIRsYF4W2Hn44kElqLyrQE4snjWDHXgZXJwcsnEBXM1FvMGD1gbPsWMYiaWzrwqZj2aQ2H1k84X8EYUywN5ntfddosTg+Noi86HNJSQm++OILIdx/HsAqnoXiFYBaAFuojFEuA0+KD+Wi0FbC2cJqnCuqIbX5xE1TuDvIZVgyaQQcFHIyewfPFqOygQs/M5bLqn1nSesCjoz0x6R4417Au+eNJh3rvvTCK4sIqQTP3jad3D8vvfQSNBpBtui9CKK2sywAhYNMta1btw46Hc1+L7lMyskgVsS3e9JJ7Xm4KPGbpRPZsT/jxqkJpPa+38elXxjLprKhDYeJt6E8c+s0hPioSGuT5pTVX/Vl64bJCYgO9CI9j7S0NKxevVoItx8BYY4BC0Dh2A2A5BW/rq4OR48eJRvYggnc/staOJxZjLK6FlKbt0xPRizh8oulMyoqAOF+HmT2uPAzYy2s2n+W1F6Evwde/NUs0u5E29Nyr/h3jg4KPEb8wmswGPDss8/CQBgdvYQXedZZhgDshUiXgUdFBiDA05VnjxWgNxjw7W7aKKBUKsGr980j7XVrySybRpsZ+P2+s+xUxipIv1CFvPJ6UpvjY4PJbGn7dNh58srNuR5eOB6ero6k41+zZg1SU1OFcPcmAKk86yxDAAKEy8A//vgj2TKwRAJcNz6GZ4+VsPV4LnkUMCbICw8RF0S1RFwc7TF7NN2Wica2Luzhws+MFUHdyYYy0/7A2SK0dl6+TW6wtwp3zB5FOnaNRoOXXnpJCDfrALzEs82yBOAuACQ54LW1taRvFVdrv8NYFjq9Hp9tTSO3+8CCcRgR4mPTvl2QEkea/LHu8HloCes3MozZH3KnL5C/gFKx8SqZyr+/fQYUxKsc//rXv1BUVCTEqawAkM2zzbIEYA+ArVTGvv/+e7KBRQZ4km98ZczH7tMXkF/RQGpTJpXir7+eDycHhc36dclkurI4mj4d1h3J4snKWBV6vQFf7TgtunFVNLTidF7lZf9u5qhITE4MJT1eQ0MD/va3vwlxKhoY6/4xFiYAAWAtlaEffviBNK18wQSOAloLBgPwyebj5HaDvVV4+Z45NunTCH8P0gjo3jMFaG5X82RlrI4dJ/NQXt8qqjF9f4UyNQo7GZ69ZRr58V577TW0tQlS2unfAEp4llmmANwBomXg5uZm7N69m2xg81NiufODFXH0fClO5VeS2503Nho3T0+yOX8umkhbFHvjUV7BYawTYxTwlGjG067uxdbjl8/+vf/6cQjwok2CzMvLw+effy7EqXQC+BvPMMsVgD0grNuzcuVKsoH5qJwxKjqAZ5EV8c7qg+jT0dcIfe7W6UiO8LedG4tUQhohL61tQUZhFU9QxmrZnpaHouomUYxl/eHzUPdqf/Hnvu4uuGfeGPr743PPQavVCnEqfwdQz7PLcgUgQJgNvHnzZtLegvPH8zKwNVFc04zVxLW5AOOyybu/XYxALzeb8GNKXDB8VM5k9jYczYIwZcEYRhzo9Qa8v/6o2ceh6dNdsU3mc7dNh9LejvR4+/fvx/btgtRmrgHwL55Zli8AtwPoojCkVquxceNGsoHNHRtNngnFmJfPtp1EQ2sXuV2VsxLvPLYIjsQ3UDFCufyr6dNh24k8npiM1ZOaVYYTOeVmHcPGo9loaOu67Evd7NGRpMfS6XR4+umnhTqVV2BcAmYsXACqAWyjMrZqFV0faFdHe0xKCOWZZEWoezT4149HBLEdE+SFt3690KqLRDs5KDBrFN2D4si5kivWImMYa+P9dUeh15sn3K3p02H5rl9mJMukUjwnQL/fzz77DOfPnxfiVM4B+Jpnk3UIQAAgU2179+5FXV0d2cAWTxrBM8nK2H36wlUboA+HyYmh+OvD8yGTSq3Sd3PGRJHW/tt2IpcnJGMzFFQ1XrX+npBsOJKF+pZfBs3unDMKkQGepMdqamrCn/70J6FO5TkYiz8zViIAdwAg2SHb19eHNWvWkA1senI4eTscxvz8bdUBNHcIE3maNSoSf7pnDqwxiZzyhai5oxup2WU8GRmb4qONqWjpMG3UW6PVYfnOX0b/vN2c8PDCFPLjvfzyy2hqEiTpZQuAvTyLrEsAagCsozJGmQ0sk0oxnzuDWB2tnd14Z/VBQYXSC3fMsioRGODpitFRgWT2dp7MFyQrm2HETHtXDz7ccMykx1y1L+Oye/9euHMmnJW0xewzMjKEKvvSB+AFnkHWJwABwmXgtLQ0FBTQ9RS9YXI8zyYrZM+ZAuw+fUEw+7fMSMKf7pkLqdQ6VODCiXGkgpaXfxlbZcvxHJy5UGmSYzV3dOPry0T/piSGYeYo2sQPg8GAp59+GjqdICu0/wHANw0rFYBHAFRQGVu9ejXZwCICPBEf5sszygr568r9qGxoE8z+0snx+MuD10Mus+w9gRIJsGhiHJm9wqom8vZ8DGMpGAzGbSi92j7Bj/XvTano6vnfLlkOCjleuHMm+bFWrFiBw4cPC3EarQBe45ljvQJQD4Csoe93331H+yCfxFFAa6SzW4M/fr4Dmj7h9hRfNy4GHzx5A1wc7S3WT8kR/gj2VpHZ28rRP8bGKa1twUcbUgU9xoWKBmxOzfnFn/9m6SQEeNJ2/Ojo6MCLL74o1Km8CaCRZ431CkCAcBm4oKAAp07Rtd+5fnwM7O3kPKuskNzyerz3o7BFWlPigvHtH29HiI/KIn1EuQ9Wp9dj58l8nniMzbP6wFkczxEuEWrTsexflJ2JDvTC7bNGkh/r9ddfR3V1tRCnUQzgQ54t1i8AMwFkURlbvnw52cBcHO3JC2Uy4mHNwUxB9wMCQLC3Cl/8/laMjQmyKN/IpFLMGRNNZi8tpwKNbV086Ribx2AA/vzdPrSrewWx/+DClP/p2iOVSPDHu2aRb0nJzc3FBx98IJSbXgTQy7PF+gUgQBgFXLlyJdRqNdnAlnAyiFXz+jd7kV1aJ+gxPFyU+OTpm/DI4gmQWkiKcEpcMDxclGT2ePmXYf5LfUsn/rVWkH1z8HR1xFuPLLjY0eqWGcmC9C1/9tlnher3exyE7WJZAFqGACQpld7W1oZNmzaRDWx8bLDN9Hu1RXq1fXj+k62obxW2w5BUKsEjiyfgH79ZBFcnB9H7Zd44uuhfh7oXhzKLebIxzCVsOZ4rWHH65Ah/PHvrdHi6OuI3SyeS21+/fj127twpxND1AJ6i0gMmxE0M+stSBWAZALIiSV9/TdcxhjoTkhEfDW1deObjLeju1Qp+rOnJEfjx1bsxPTlCtP6wk8swcyTd+PacKTBJ5iPDWBpvfy9ccfpbZiTh3d8uIU9EU6vVeO6554RyyVcATovg0igBjAZwJ4A/A1gLY9WSXAD1/ULVcMmnFYAWQC2MW9oOAFgB4A8A5gBQmWLQllx87DEAn5CoYKkUxcXFCA2l6elb09yBG15aDr3BAMZ6mTkqEn9/ZKFJavgZDMCGo1l4b91RqH9WrsHcTE+OwLu/XUxm76F31iKzqIYnGMNchpS4YHz01I0WUzv0xRdfxNtvvy2E6RYAsQBMWSvKDkACgFEA4vs/IwCEgT6gVgRjoGs1gD0wFrkmxZI70pcAeIbiHAwGA1QqFWbOnEkyMBelPTKKqlHV2M53KyumtLYFdS2dmJ4cIXg3D4kEGBHqg0UT41Df0onimmbR+OGhheMRHeRFYqu6sR3vrz/Kk4thrkBVYzskEolFJIplZWXh/vvvh14vSDefPwA4KODwnWGM6i0F8AiAVwG8B+BxADcCmAIgBoA7hAmmeQAYCeAuAI8CCIKxzA1ZGrUlC8BuAOP73wCG/zAvLcVTTz0FCdGT3N5Ojr0C7ddgxEN+RQO6enoxKSHUJMdzclBg7thojIoMQFZpHdq6esx6/jKpFC/fPRv2CpryR+sOn8fJvAqeWAxzFTIKqpEY4Udad5MavV6PZcuWoaxMkBI25/pFGYWydAKQCGA2gF8B+B2MNQXfBvBrAIsAjAUQAMBcdd6cAUzsP+c7AOgAnB3u+Ust/HuwnMpQaWkpDhw4QDawmaMi4eXmxHcqG2DVvrP4bGuaSY+ZMiIYa169C288cB15sdbBMCoqgDRJRegyOwxjDegNBrzy9W7Ut3SKdoyfffYZUlMFKWJtAPAkBrck6tUv4pYBeB7GlnH7Yews1gkgHcBKGMvJLAEQDvFukYuDcftbFoyRyCFj6Q1IFQAqAXhTGLvrrruwYsUKssH9Z8sJfL7tJN+tbITfLJ2EhxaON/lxe7V9WHPwHL7bk47mdrVJj/3MLdNw19zRNC9htS245bXveCIxzABJDPfD58/dDDu5uBbz6urqMGLECLS0tAhhfjOMS6KOAFxgXIJV9f/0AuAPwAeAX/+vQ2GM8lkrhwD8BkPogWwNHejfhXEv4LBRKpWorq6GSqUiGVh9ayeW/N9y6ITZ/8CIkPuuH4snb5pilmNr+3TYc6YAy3eeNtkewfVv3EvWueSzrWkmj6QyjKXzqzmj8Oyt08U1pl/9Ct9//z1fHNPRA+AFGLuhDDj7VGYFJ17dr36HTV9fH8LCwjBu3DiSgTk5KFBQ2YiS2maenjZCZlENOtS9mBQfClPXcJZJpYgO8sLNM5IQH+aLXq0OlQ1tgmWjh/m549eLJpDZ+9uqA2jt7OFJxDCD4HxJLUJ8VIgK9BLFeHbv3o0XXniBL4xpkQNYAGM28jYMcG+gNQjAehg3aQZSGGtoaMCvf/1rssGpXJTYxl0NbIqsklrUt3ZialKYWTp5SCQShPq647pxMVg2LRHuLo5o6+ohb622dHI8JowIIbFVVN2EL3i7BMMMidTsMkxNDIOnmfedd3d3Y/HixUIt/TLXZhSA6f0i8Jr7gWRWctLyfhE4bKqqqnDLLbfAx8eHZGABnq7Yc+YCRzZsjPyKBmSX1GHGyIiLLZbMgdLeDiMj/bFsWiIWTxoBPw8XaLQ6NLR1DTsy+PCiFLIsxE3HcnCKs38ZZkj06fQ4nlOOhRPj4KCQm20cr732GjZv3swXxLyEAbgJwCYAbbYgAAthTN22I1GTcjkWLFhAMjCJBNDrjW9ojG1R2dCGqABP0SzNuDjaIznCH0smx+OuuaMxJibwYhP4DnUvtLqB71WVSaV44c5ZZJvPP1x/DHUizmhkGLHT0d2LvIp6LEiJIytnNqiX3vx83HvvvdDpdHwxzI8HjBnPm2DsOnJ5fWJFJ7wSxho+w8bNzQ2VlZVwdnYmGVhntwYLXvzSJK3DGPFgrqzgoaA3GFBR34r8igaU1ragqrEdNU3tqG5qR0tH9y9asyWG+2H5C7eRHLu5oxvz//AFd85hGALuvW4Mnlo21aTHNBgMmDFjBo4cOcIXQFwUApiMK3RLkVvRiX5NJQDb2tqwcuVKPProoyQDc1YqsCAlFuuPZPF0tBHunD3KYsQfAEj79w2G+rpf9u81fTp0qnvRru5Ft0YLN8Laf0fPl7D4YxgivtuTjlFRASbtH/7pp5+y+BMnUTAGx+bjMokhUis60f0ASqmM/fvf/yYd3C3Tk3gq2ggLJ8SJrizDcFHIZfBwdUSYnztGhPiQFp8+cq6EJw3DEGEwAK8u34NqE7UiLS8v56xfcTMPwIOXffG3opPUA/iGyti5c+dw9ChdT9KYYG8kR/rzVLRypiWF45V750IiYV8M6EtrMODMhUp2BMMQ0qHuxYtf7ICmT/j9eI8++ig6OjrY6eLmQwDJ1iwAAWNrOLKqy9RRwNtmJPM0tGJGRwXgrUcWQC6TsjMGSGFlI9rVvRd/76xUwNXRHq6O9lDa27GDGGaIVDa04bjAyYfLly/Hzp072dnixwHAV/hZ4q81xin2AphDYUihUKC8vBy+vr4kA+vT6XHjn75BbTO/LVkbMUFe+M+zN8PF0Z6dMQhO5Jajqa0LkQGeCPZRwclB8Yt/097Vg/zKRhRUNuBCZSPOFlajsqGNnccwP8PDRYl542Iwc1QkxkQHQCYV7mW0pqYGCQkJXPPPsvgdgA+sWQD+CsZNjyT85S9/wUsvvUQ2uJV7M/CvH3mzrDUR5O2GL39/KzxdHdkZJqKgqhEHMoqwL70QRdVN7BDGZpFIgPFxwbhpaiJmjowwWV/ge+65BytWrOALcBns7OwQFRWFiIgIeHl5XfxIJBIYDAY0NjaisbERdXV1OHv2LGpra001tFYA4f0/rVIA2gMoh7EZ9LAJDg5GSUkJZDKaL5W6R4NF//c1Oi5Z9mIs+437i9/fStYPlxk8WSW12HA0G7tO5aNH08cOYWwCqUSC+SmxeHhRilnuP3V1dXjyySexdu1am70Gcrkc8fHxSEhIQEJCAuLi4hAfH4+oqCjY2Q18C0tVVRX279+P7777Dvv37xe6luIbAF61VgEIAH8D8CKVsY0bN+KGG24gG9wH64/h291n+A5m4TgrFfjs2ZsRE+zNzhABLR3d+G5POn48dA5qrrnJWCkSCTBjZCR+u3QiIgI8zT6eU6dO4c0338TmzZthsOJyTg4ODkhKSsLo0aMxZswYjBkzBklJSXBwcCA9TnV1NV599VV89dVX0Ov1QpxKK4ytc9XWKgBDARSBqNPJddddh127dpENrr61Eze8/A20fVwx3VKxt5Pjo9/diNFRAYIdw2AwoKenB0qlkh0+mLtbZze+3X0GK/eehU6YGyjDmIVgbxVef2AekiPEV1EiPz8f33//PVavXo38/HyL9bFMJkNERASSkpKQkJCAxMREJCYmIiYmBnK56Uonp6Wl4bHHHsPZs2eFMP8QgK+suVjFZgBLaN64JMjLy0NMTAzZ4F77Zg+2Hs/lO5oFIpdJ8c/fLMaUxDBBxd9vfvMbbNy4ES+//DIeeeQRKBQKdv4gKKhqxOvf7EVeeT07g7F4Fk6Iw4t3zoSjg/jvAxkZGdi9ezeOHTuGY8eOobm5WXRj9Pb2RnR0NGJjYxEdHX3xExsbSx7VGypdXV1YvHgxDh48SG16O4BF1iwA5wPYQWXsmWeewbvvvks2uMKqJtz5l5XgBgiWhVQiwRsPXIf5KbGCHucPf/gD3nnnnYu/DwsLw3PPPYcHHngATk5OfCEGiLZPh8+3ncTXO0/xd42xSBwdFHjxzplYOCHOIsdvMBiQm5uLtLQ0FBYWoqio6OJHqAxiLy8v+Pr6wtfXF/7+/ggKCkJoaChCQkIQFhaGsLAwi7mPqtVqLF26FPv27aM02wvA25oFoBTABQCRFMZcXV1RXl4ONzc3sgE++cEmHM8pA2M5PHPLNNw1d7Sgx3j77bfx4ouX38Lq6emJ3/72t3jiiSfg4+PDF2SA7M8oxCtf7+YkEcaiCPByxUdP3ogQX5VVnl9zczOqq6vR1NR08dPb24uuri6o1Wr09v5vsqRSqYSDgwMcHBygVCrh6OgId3d3qFSqiz+9vLysbrVErVYjPj4eZWWkeuFWa+9X8ByAf1AZe+edd/D888+TDe5kbgV++/4GvstZCLfOSMYLd84U9Bjffvst7r///mtupnZwcMCdd96Jhx56CFOmTOGLMwBySuvw7Cdb0djWxc5gRE+Evwc++t2N8FE5szMYrFmzBrfffjulyeXWLgA9AVQAINlFHxgYiOLiYtK3i7ve/B75FQ08u0XOdeNi8JeHrodUwB5vmzdvxs0334y+vsFFqeLi4vDggw/innvugZ+fH1+sq1DZ0IZf/+NHNLAIZERMsLcKX/7hVni4cAIYY8RgMGDGjBk4coSsjnCBzMp91g0gCsAoCmMdHR2IjY1FcjJdSzdHBwUOZBTx7BYxY2IC8fdHFwna4u3AgQO46aaboNFoBv1/GxsbsWfPHrz//vs4fPgwOjs7ERgYCBcXF754P8PVyQHTkyOwN70A3VwqhhEhHi5KfPrsMvi58/eX+S8SiQQBAQGUxbc9bKFl/XgAJ6mMjRw5kjQtu0+nx7JXv0V1YzvPcBESFeiJL56/Fc5K4faUnDlzBrNmzSJtqC6VSjFhwgTceOONmD17NkaPHk1WzNwaKKhqxCP/XMcF2RlRIZNK8flzNyM50p+dwfwCtVoNd3f3IQUKLjvfbMBn1QAWwVj4cNjU1dVhypQpiIwkyS2BVCqBo70dDp8r4dktMnxUzvj02WXwcBGuxVthYSHmzp1LXibBYDCgsrISe/fuxeeff473338fqampqK2thVwuh6enp0lrWokNT1dHxAX7YOepfM4OZkTDEzdOxvXjY9gRzGWxs7PD7t27UV5ezgJwEGgB3EhlrK6uDvfccw/Z4GKCvLHr1AW0dfXwDBcJzkoF/v3MTQjxcRfsGFVVVZg1axaqqqoEP5/e3l5cuHABu3btwueff463334bP/74I06cOIHS0lJ0dHRAp9PB2dnZZoRhkLcbDAbgzIUqnvCM2UmJC8Yf75oFiUTCzmCuSH5+Po4dO0Ziy1ZmmhLGZBCyvjkZGRkYNWoU2QA3p+bgjW/38uwWAQo7GT7+3U2CdvloamrC9OnTkZOTI6pzl0gk8Pf3R3h4OPz9/S+WVvjpk5ycjKlTp1rNtdYbDHj6o81IzeZyTIwZ7zlyGb7/068Q6uvOzmCuyuuvv47XXnuNxJatrAF1A/gCwAtUBt999118++23ZANcPHEElu86jfK6Vp7hZkQqkeDPD1wvqPj7qbCn2MQfYFw6rq6uRnV19WX//v/+7/+sSgBKJRL86Z65uP2NFWjn/YCMmbh73hizir/mdjXs5DK4ONrzxRA5lHu5pTbkt38BIFtjXb16Ndk6PGDcC/jg/PE8u83Ms7dOx5wxUYLZ12g0WLZsGVJTUy3ONwEBAfjd735nddfcW+WEJ5dxLUXGPKiclbh//jgTv+gB+RUN+HL7Kdz31g+Y/8KXePDva1FY1cQXROTodDo6MWlDfusCYUkYvV4P+f+3d9/hUVWJG8e/k94LIRASeu9FaUoXRIqKIKggoqICu1jRXdy1r2XtBay4Lqx1EWyggogiSBGkCNJrEkpIQkgjPZn5/THRn7oKJDl3MuX9PM88cdnMuWfuuTN559xTAgIYOnSosQq2TKrLso37NBawllw/rDuTh1sXwu12O1dffTWLFi3yuHMTERHBl19+ScuWLb2y7ds2qsfmfUdJy9JsfHGtycN70LNtI8uPU1ZewYbdh3lr2WYef28Fby3bzMY9R8jMKcAB5Jwq4pO1O7HbHXRu3gB/Pz81jht69dVX2bFjh5GyfG20aUdgm6nXHRkZyeHDh41uD/f5+t3cP3eZrnIXG9azDQ9ffxFWjb92OBxMmzaNOXPmeNy58ff356OPPuKSSy6x9DjlFXZW/HCADbsOk19UQmxEKB2b1advp2ZEh1u/Ofuu1Awm/fO/mhUsLhMVFszix64nPMS6ZaZ2pmTw8ertLNu4l1NFZ7d8SPPEOO6/ZjAdm2lheXfTrl07du/ebeaz3cfOXQbQC2hlorDS0lKio6ONjolqkRinXkAX692+MY/fNAJ/P+u+Dz3wwAM899xzHnl+Hn/8cSZPnmzpMVZtO8RtLy3i49U72J2awcG0k+xMSeebHw7yzvIt7ExOJywkkEbxMZbNkoyPDudQ2kkOpp3Um0JcYnS/jgzs0sKSsrcdSOP+eV/y8idr2ZWaQWn52d86zM4vYtHanew9coLG9WKoGx2uxnIDaWlp3HPPPWfcKvRs+eJ88wuAr0wVFhcXx6FDh4zuurBkwx7u+/cXutpdoFVSXV6/a6ylCz2//vrrTJkyxSPPz7hx45g/f75loau8ws6zC77l/W+2ntXvN64Xw82jz+eCbtbcik7NyGHcg29TYbfrzSGWe+++CbRKqmu0zOLScp5+fyUfr95hrMw+HZtyw/AeWqD6DOwOBzmnii3bwm/WrFlGx2H74tYAh4BLASNXclFREZGRkfTr189YBVs0iGP5pv3knCrSO8pCiXWjmHPn5cREWHd78dNPP2XSpEnYPTBQdOzYkcWLFxMcbM3MwKKSMv7y2mcs3bDnrJ+TW1DMl5v2kZKeTZ+OTY1vzxcdHsLBY1nqBRTLtW9SjxtH9DRaZnp2PlOe/ZB1hpc1OpyRwydrd/LdrlRKyipIjIsiNDjQp9uvwm7nwLEs1u5IYfG6nfx7yUbe+/oH+nduRkyENQHw5ptv/sMVGqrzXcFXV5wcD7xrqjAregGXb9rH3a8v0aekRWIiQvn3X8bRuH6MZcdYt24dQ4YMobCw0PPOT0wMGzZsoFWrVpaUX1pWwW0vfsL3e45U/w9o0/q8eOtlRBleumLL/mPc9PRCvUnEUreM7sO1F51rrLycU0VMfnIBqRk5ltfd38+PXu0aMbR7awZ2bWHpHRR3kJFzioPHTrL/6AkOpjl/7j+WRWnZ/99Wb92wLi/cPIr4GGtul3/yySdcdtllJovc5KsBMADYDzQxVeAjjzzCPffcY7SSk59awLYDafqkNCw4MIBXbh9t6e2M/fv306dPHzIyMjzu/Pj5+bFo0SJGjhxpSfl2u4O7Xv3UyPaHHZrW55XbRxNmeBD9hEfeZe+RE3qziGXm3381LRLN7E3gcMBtL35SKwuaBwX4065JPbq2TKRry0S6NG9AlAsmbZlWVl7B0RN5pGZkk5qeQ2pGDofSTnLgWNYZ1wgdfE5LHrj2QsIs6hUtLy+nc+fO7Nq1y2Sx//blPWdux7k2oLEek0OHDhETE6OeCLcONzaenDKCgV1bWHaMtLQ0zj//fJKTkz3yHD300EPcf//9lpX/1PyVzF+x1Vh5F3RrwRNTRhqdwb1g5TaeeO8bvWHEEolxUSx69Dpj5bnT6hE2GzRrEEfXFg1o3TCehvHRNIyPpkFcZK0uLWN3ODiRU0DayXyOZeWRlpXH8ZP5pGXlczgzh2NZedjtVZtc4ednY/qo85k09Fys3MHPonHkt/lyAIwEUgFjie3hhx/m3nvvNVrJGS9/yqptB/WJachfrxrIFQM7W1Z+fn4+AwYMYMuWLR55fkaPHs0HH3xg2aSP97/ZypP/XWm83Bnj+jFhcDdj5WXmFDDyb//GrjVhxAKj+nTgvmsGGymrvMLOmPvf5Jibr2EZ4O9HQp1IGsXH0DA+moQ6kcRGhhIdHkJ0eAiRYcGEBAUQEhRIYIA/4SGB/xMYS8srKC4tp6y8guLSMsrK7RQWl5JfVEJ+YQl5hc6fuQVFZOUVkX2qkMzsArJPFXEyv7DKAe90osNDePSGYfRu39jS83bq1CnatGljcuzfT7oF+PB7MB94FbjbVIHPPvsst9xyi9F1AW8Zcz5rtidrVqIBN47saWn4+2mXD08Nf127duXNN9+0LPyt3ZHCM+9/a0nZL328jr6dmtG4npnvc/Ex4XRslsC2gxqCIeZ1aFrfWFlfbtrn9uHvp6B6JDOXI5m5Ht9+Pds14sFrL6ReTITlx5o2bZoV4W838IOvL/U9Gyg1VVh2djYvvPCC0Qo2S6jDZX076BOzhkb0asvUi3tbVr7D4WDy5MksX77cI89PQkICixYtIiLCmg+0fUdPcPfrSyz7IlNSVs7zC82GSyuHCYhvM7nA8idrduiEukhQoD8zxvXnpVtHuyT8vfrqq7zzzjtWFP1f8K29gH/PMWCeyQKfffZZsrOzjVZy+qjzXLITgrfq1jKRe68ZbOkYjZkzZ1r1RrVcSEgIH330EY0aWbMd1YncAu54aTGFxaWWvo5V2w6x1eCkqR5tG+rNI8YFBwbQIrGOkbJyThWxed9RnVQXaN2wLm/97SomDO5q6d+Sn2zatInbb7/dquIVACs9hsFewNzcXGbNmmW0glHhIUy5uJdaqhqaJsTyzJ8uJijAuiUvX3nlFZ566imPPD82m4033niD3r2t6R0tLi1nxiufcvxkvktez3++2GSsrFZJdQkODNCbSIxqVC/a2GSIdTtTjY5rk/8VFOjPn0edx5t/u8rYrO0zyczMZNy4cZSUlFhR/AZgjwKgUwrwb5MFPvfcc8Z7AccO6OSyi89b1IkM5YWbL7V0SYIFCxZw8803e2z4mz17NhMmTLCkfIcD7p+7jJ3J6S57Tau3HzI2HirA34+2jeP1RhKjTI1TBdh64JhOqIXOaZXEu/dMYPLwHsYXnf8jeXl5DB8+nEOHDll1iJ+XeFAAdHoMMBa1c3Nzefzxx41W0N/Pj7uuHKCWOkvBgQE8/aeLSaobbdkxVq1a5bG7fPj5+TFr1iymT59u2THe+HwDX2/Z79LXZbc7WL7J3DE1DlBMaxhvLgC68suVL4mJCOWh6y7ktRmX0zQh1mXHLSgoYMSIEWzatMmqQ3wFfKEA+GuHgTdMFjhr1ixSU1ONVrJHm4ZceG4rtdaZwo3NxsOTh9K5uXULPW/fvp1Ro0ZRXFzscecnLCyM999/39KeyzXbk5nz6fpaeX0rtx4wVlavdo31hhKjEuOijJTjcMCh49k6oQYFBvhz9ZBufPiPSYzs3c4lY/1+UlJSwpgxY1izZo1Vh3Dwm1VPFAD/3z8x2AtYXFzMfffdZ7ySd105gMiwYLXWadw6pg8XdGtpWflHjx5l5MiR5OTkeNy56dixI9999x2XX365Zcc4lpXH/XOX1doaejuS0yktrzBSVlLdKL2hxKjYSDP7xJ7ILaCopEwn1JALurVkwQMTuWNsP+PbS55JUVER48aNY9kySxfzXgBsVAD8fUeAf5ks8O2332bz5s1GKxkXFcafLj1PrfUHRvftyMQLz7Gs/NzcXEaOHGm8d9dqMTExPPvss2zevJlOnTpZ90FWUsaMlxeTW1B7PaPlFXYyc04ZKSvMxze8F/NMrejgCWv/eYIOTevzxl/G8eTUETSMj3b58bOzsxk6dCiLFy+28jBlwP/sUqEA+Gv/BIz95bLb7dx1113GKzl2QCdLb296qvM7NuHuCQMtK7+0tJTLL7+crVu3esw5iY2N5Z577mHfvn3ccccdBAZaF2gcDnj4ra/YfzSr1l93fqGZif02m83SGeTie2IizPQAZucX6mTWQKukujx+03DmzbySLi1q5+9pWloagwYNYvXq1VYf6nVgnwLg6R2tPFHGrFixgqVLlxqtpJ/Nxt3jB7psVpInaNMonsdvGmHZXpN2u52JEyfy1VdfecT56Nq1K7NmzSIlJYVHHnmEunXrWn7Mt5dvZtnGvW7x+otLzd0aK9cuPGJQRGiQkXLyCkt0MquhfZN6PDf9Et69dwJDzm3l0nF+v7Rz50569erlig6FU8DDv/d/aJGr//U4cBNgbO2QO+64g8GDBxvtfWndKJ7rhnXnX59t8PkGqx8byfPTL7X0dt0dd9zBggUL3Po8NGrUiNGjR3PttddyzjnnuPTYq39MZvZHa9zmXJjczk7rrIlJgYZ6lE8VKQBWRecWDZg8rAd9OzWt9bp89tlnTJw40VXjyKcDxxUAz84x4DXgNlMF7t69m9mzZzNjxgyjFb1heA9WbT3I3iMnfLaxwoIDeW76JcTHhFt2jKefftr44t6mdOzYkUsvvZTRo0dz7rnnWraP7+kcOJbFPW8sdaugFBhgpidY0U+MX5uG7tyUV6hn+kyCAv258NzWTBjclTaNan9NT4fDwZNPPsnf//53Vy0f9jrw5h/9nwqAv+8JYAoQaqrABx98kPHjx9OggbmxBoEB/jx43VCufXw+ZYZmPXoS53IvF9G6oXW3NxcuXMjMmTPd5jXXq1ePIUOGcOGFF3LhhReSlJRUq/U5mV/EHS8tpsDibd6qKirMUAe+QxFQzPJXALRcu8b1uOT89ozs3ZbwkCC3qFNubi6TJk1i0aJFrjrkD8Ctp/sFBcDflwa8DNxpqsD8/Hzuu+8+/vUvoxONad2wLtcP615ra67VplvG9GFAl+aWlb9u3bpaX+g5MTGR/v3706dPH/r370+nTp1qpZfv95SWV/CXVz91u9mINhvGeoQrdPtXTH9x9TPz/tXQhF+/59s3qc/gc1ox5JyWJLrZ8k07duzg8ssvZ8+ePS7Lm8A4zjCpVQHwjz0G3ADEmCpw7ty5TJs2je7duxut6A0jerBuRwo/HjruM40zqk8HrrFwuZcDBw4watQoioqKXPaaAgIC6NChA7169eL888+nX79+NG/e3G3b4JG3vmLrgTS3q1fHpgnG9vCt0AQQMc1QbjO1nqCnCgkKoFvLJM7r0JhB3VrSoE6k+zW1w8Hs2bO5++67Xfm3xAFMBs64JZIC4B87WRkCnzRVoN1u58Ybb2Tjxo0EBJg79f5+fvzzpuFMeORdn5gZ1q1lInePH2hdw588yciRI8nMzLT0dSQlJdGrVy969+5Nr169OPfccwkPD/eINnj5k3V8vn63W9btykFdjJVVXq4AKIYZ6sA3uaewJ/Dzs9GhSX16tG1Er3aN6NS8gVsv0XTs2DGuv/56qxd3/j1PAx+eVaeD3o2nNRu4GTC2H9TWrVt56aWXuO2224xWNKFOJH+/+gLufn2JVzdIUt1onpo20thMut8qKytj3LhxxrvqbTYbbdu2pV+/fj8/mjRp4pFt8Mbn3/PvJd+7Zd06NktgaI/WxsorKSvXp6AY5W8zMwawbeN6dGyWwHYvvfMTGxlKh6b16dA0gQ5N69O5eQNjS+hY7YMPPmDq1KlkZbl8TdR5wFkPWrfp7XhG13CaWTTVERkZyc6dO2nYsKHxyj70ny9ZvG6XVzZEVFgwc2deQZP61mzO7XA4uOaaa3jnnXeMlNetWzcGDhz48xi++Ph4j2+DN5dtYtaHa9yybmEhQbz9t6toXN9cz8iRzFwuu+8/+hQUY9a9NJ1Af3NfYDfsPsxH325n1bZDHvuFpX5sJM0axNIiMY72TerTsVl9kupGe9zrOHHiBDNmzOCtt96qjcMvBK4CznpGqHoAz+wdYAbQ1VSB+fn53HbbbXzwwQfGK3v3hEHsO5rF7tQMr2qEAH8/Hp8ywrLwB3D//ffXOPx16NCBcePGMX78eFq3bu0159/hgNc/W+/Wk43uHj/QaPgDKFUPoBhmqgfwJz3bNqJn20YUlZTxw4FjbNl3jM37jrLT4J7YJoQGB9IgLorEuEiaJdShaYIz8DVrUMdtZurWpPPgzTff5K677uLEiVpZlm0pcHVVwh+oB/BsDQaWmy70k08+4dJLLzVe2aMncrnmn/PJq8X9WE27Z+IFjO7b0bLy582bx/XXX1/l59lsNvr378/YsWMZPXp0rS/LYoXSsgrun7eM5Zv2uW0dxw7oxN3jBxkvd8/hTK5+9D19AooREaFBfPPcNNe8b8srSEnP5nBGDqnpOaRmOB+ZOQXkFhRxqsjM0k3BgQHERIQSGxlKnchQYiJCiQ4PIaFOJA3iomgQF0mDOpHGtsBzN/v27WPq1KmsWLGitqqwChgOVHlvQPUAnp2vgI+A0SYLnTZtGn379qVOnTpGK5tUN5rHbxzOzbM/9oqlAq4e0s3S8Ldy5UqmTp1apecEBQUxfvx4ZsyYQefOnb32wj92Io+/v7HUrccZdWyWwIyx/S0pW2utiUlxUa6b5BUU4E+rpLq0Svr9dVIr7HZyC0rIKygmt6CYktL/7+0uLiv/Ve93eGgQ/jY/IsKC8bNBZFgw/n5+xESEEhLkmzGitLSUJ554gscee4zi4lrrbFkHXFKd8KcAWDW3AxcBYaYKTEtL47bbbrNkvEDPdo3486Xn8eLHaz36pPfr1IzbxvS1rPwdO3Zw2WWXUVp6dt+Go6KiuP7667nrrrssGcPpTpZv2sdj73zt1jPL46PDeXLqCIICrZkUpAAoRgNgdJjb1MXfz486lb12UjULFy7k7rvv5sCBA7VZjS+BMTj3+q0WPzXlWUsFnjVd6Ntvv80nn3xiSYWvG9ady/p28NgT3iqpLo/ecJGxhVN/6/jx44wcOfKs9mMMDQ3lgQce4NixYzz//PNeHf6y8gq5542l3P36ErcOf6HBgTx/86XUi4mw7Bi+uMOOWKduVLhOggfbuHEjAwYMYNy4cbUd/uYCI2oS/hQAq+5x4IjpQqdNm2bZdPG/TRjEee09b7mRutHhPDf9EsIsGhxcVFTEqFGjSElJOePvDhs2jB07dvDggw96zDp91Q07by7bzJj73+SL7/e6dV39/Gw8fP1Qy/f3VA+gmBQXFaaT4IGOHDnC1KlT6dWrF6tWrart6vy0SUWNZ6gpAFZNAfBX04UeP36c6dOnW1Jhfz8/npgynNaNPGcJkvCQIGbdfCkJFq3s7nA4uO6669iwYcNpfy8oKIinnnqKzz//nGbNmnntRW13OFi+aR9XPvwOsz5c7Xb7+v6WzQb3XH0BA7u2sPxYCoBiUh0FQI9y/PhxZsyYQatWrZgzZ06tbgsK2HHu7XsPhvaT0RjAqvsvcBNgdMrh/PnzGT58ONdee63xCoeFBPHSrZcx9bkPOXgsy61PboC/H09MGWFpYH3ggQd4//33T/s7UVFRfPLJJwwcONBrL+TS8go+/243by7bRGpGjsfU+5bRfRnVxzVDG8ordAtYzFEPoGfIzMzkmWeeYfbs2RQWFrpDlXJxrkm82OjfWzV1lTmAPwFbgWCTBU+fPp3evXvTpk0b45WOjQzl1dtHM+XZD0g+nu2WJ9Zmg/uuGUzv9o0tO8aCBQt45JFHTvs79erVY+nSpXTr1s07v9WezGfxul18uOpHMnMLPKruUy7uxaSh57jseOoBFJOsHK8qNZeRkcGzzz7LrFmzXLoP/BnsxLkCifFxOQqA1bMH53jAB0wWWlBQwNVXX83atWsJCjI/9q1OVBgv3XYZU575kKMnct3qhPrZbNw9YRAje7ez7Bjr1q1j0qRJOBx/3HseEhLC4sWLvS78lZZV8M3WAyxau5MNuw5jd3je8kB/uvQ8bhjRw6XHVAAUswFQk0Dc8g/6nj3Mnj2bN954ozaXdPk9HwDXA/lWFK4AWH3/BMYDRrd72LRpE/fccw9PPfWUJZWuHxvJv/86jltmf8Lew5nuEf78bNw7cTCXnt/esmOkpKQwevToM765X3vtNXr27OkVF2hhSRlrtyez4ocDrP4x2e3H9p3OLaP7cO1F57r8uGUKgGIyAMZG6iS4iYqKCpYsWcILL7zAV199ddqOgdqoHnAv8ASGxvspAJpVgvNW8HIM76jyzDPP0LdvX0aNGmVJxeOiwnjtjjHc+cqnbN53tFZPor+fHw9ddyHDerax7Bj5+flccsklpKenn/b3Ro8ezaRJkzz6ojyWlcf6Xal8u+0Q3+1KpbTMs8ewBfj78ferL7D0y8HpaAygmBIWEkREaJBORC1LS0vjzTff5OWXXyY1NdUtqwhMwoLdxxQAzfoaeKuysYxxOBxMmjSJDRs2WDIeEJwrub9462U88vZXfL5+d62cvIjQIB69YRh9Oja19FveVVddxY8//nja3wsKCuKJJ57wuAuwqKSMHw8eZ/3uVDbsOswuL9oDOiw4kH/eNNzS6+PMAVA9gGKGbv/WnuPHj/Phhx+ycOFCVq1aRYX7frH7CJgCuGRDYQXAmrsdGAIkmiw0Ly+PUaNGsX79eqKjoy2peFCgP/+4fihdWyby1PyVLl30tmF8NM/++RKaN6hj6XHuvPNOPv/88zP+3pQpU2jVqpXbX2zZ+UVsPXCMzfuOsfXAMXanZlJh976QklQ3mqf/NPIPt7FSABSPC4CxmgDiSkePHv059K1evbq2l3A5k/zKLPFvVx5UAdDA32RgKoanZ4NzYOrkyZNZuHAhNpvNshcwpl9HWiTGcf/cZS6ZHNK3U1P+cd1QosJDLD3Oq6++ygsvvHBWvztx4kS3u7AcDkhOP8mOQ+lsO5jGln3HSE4/icPh3W+o89o34dEbLrL8+jgbZeUKgGJGfc0AtlRpaSnfffcdX331FcuWLWPDhg3uHvp+sg7nEi8u31pEAdCMT4H/AMYX8fvwww95+OGHuf/++y19AV1aNOC9+ybw4kdrWLBymyUhIzwkiBnj+rlkDbfly5dz6623ntXvNm3a1C0mfmTnF7E9+Tg7ktPZfug42w8d51RRqc+8ifz8bEwe3oMpI3tZtv1fVWkMoJgSrwBo+Auyg23btrF8+XK++uorVq1aRUGBRy1rVQo8jHNFkfLaqIACoDm347wVnGS64AcffJBmzZpxzTXXWPoCwoID+etVAxnWow3Pf7iabQfSjJRrs8Ggri24Y1x/GtSxfhbc7t27GTduHGVlZWf1+4MHD7a0h/WPpGbk8MP+Y2zZd5StB9I8ajFm0xLjonh48kV0adHAreqlW8BiitYArOEX5OxsNmzY8PNj/fr1ZGZmeurL+RbnncNdtVkJBUBzcnAO3vzMim86N954Iw0bNmTQoEGWv5DOLRrw77+MY8UPB5i3dCM7ktOrXVbv9o3506Xn0aFpfZc0QkZGBhdffDE5OWcfply1zVtG9im+2XqQTXuP8MP+Y2TlFfr8m8Zmg1F9OnDH2H6Eh7jfDEkFQDEWAGPNTALJyclh165d9OjRg4AA7/wTnp2dzc6dO9myZcvPgW/v3r3utlRLtV4azu1k38DC5V0UAGvH58ArOJeHMaq0tJQxY8awZs0a2rd3zZIYg7q2YFDXFuxMyeDj1dtZvT2ZjOxTZ3xeQp1IhnZvxag+HWhSP9ZlJ//UqVOMHDmSAweqNpTCygB4JDOXr7fs5+stB9iRfNzrx+9VReP6Mdx79WDOaZ3ktnW0q8HEVAA01AO4Y8cO+vbtS3h4OOeffz4DBgxgwIAB9OzZ05INBKx08uRJdu7cyc6dO9mxY8fP/33s2DFvvAQ+BaYBR92lQgqA5t0J9AM6mi44JyeH4cOH8+2339K4cWOXvaD2TerRvskFAOw/msXeI5kcSjtJbkExxaXlBPj7kVAnkobx0XRp0YCkutEuP+llZWVcccUVbNy4scrPDQszuz+n3e7gm60HePerH/hh/zG9I357vkOCuH5Yd64e3I2gQH+3rqtDAVBMBUBDi0AfOXIEcO4c9eWXX/Lll18CEBoayjnnnEObNm1o1aoVrVq1onXr1rRq1YqQENdPqLLb7WRmZnLkyBFSUlJISUkhOTmZ5OTkn/93Ve7UeLD9wM3AF+5WMQVA84pw7hCyAQg1XXhqair9+/dn5cqVNGnSxOUvrmVSHC2T4tzuj/TUqVNZsmRJtZ6flZVltkI2yMor5OCxLL0bfvlh4+/Hpee3Z9olvakTFeYRdVb+ExMCA/yJjTDz5+Do0d/vQCoqKmLNmjWsWbPm1x9HNhuNGjUiMTGRuLg46tSp86ufcXFxBAcHExHx6x7K2Nj/v3uTl5dHRUUFOTk52O12cnJyqKioIC8vj/z8fDIyMsjMzCQrK4sTJ078/PDxL1AncU7yeBnnhA/3+0zWW9MS23H2BL5sReEpKSlcdNFFfPPNNyQkJPj8yb7vvvuYO3dutZ9/4oTZNTf9bDbGDejMkHNa8fpnG/h49XZKy313NmmAvx8je7fjhuE9SKwb5WG1VwKUmouPDsfUPLM/CoCn+4KcmprqrrteeKNS4CXgkcoQ6L6fzWory7wCDAUus6LwPXv2MGTIEFasWEF8fLzPnuQHH3yQRx99tEZlbNmyxZK6xUaG8terBnDdsHN5c9kmFq3dRWGx7yzrEhEaxGV9O3LFwM4kxkV55GtQD6CYkGBw9YOfbgGLW/oUuAPnbV/3/3Ku9rLUDUBnoLkVhe/YsYMBAwawdOlSl44JdBf3338/Dz/8cI3L+frrr7Hb7fj5+VlSz3oxEdx1xQD+fOl5fPrdbj5es4O9hzO9tl3aNIpnVJ8OXNy7LWEhnr33qfKfuFsArGoPoLjEt8DfgdWeVGkFQGudBMYAawFLBj3t2rWL8847jyVLltC5c2efOKkOh4M777yT5557zkh5mZmZrF+/nvPOO8/SeoeFBHHFwM5cMbAzB9NOsmzjXr7ddoi9RzI9vqepfmwkg89pwcW929G6kff0SNvtioDiXgFQt3LdykrgH8DXnlh5BUDrbQVuAt6x6gDHjh1j0KBBfPbZZ/Tu3durT6bdbueWW27h5ZfNDq+cNWuW5QHwl5o3qMO0S3oz7ZLenMgtYMPuwz9v93Yo7aTbLz9is0GbRvU4r31jBnRpToemCdjcYPOOiooKbr/9dmbPnm3q64Y+wcRtAmB5eTlpaWk6obVvBfBQZQD0WDa1o8s8i3NsgGXCw8OZN28eY8eO9coTmJ+fz8SJE1m0aJH5b0IBAezZs4fmzZvX/ussLGFXaga7UzPYlZLBrtQMjp3Iq9VQGBIUQLvG9ejQLIFOzRLo1jLR7WbyFhQUMH78eL788kuKioqMlPnM+6t47+sf9OklNfuCecsozu9Q81UbUlJSaNq0qU5o7fmqMvh96w0vRj2ArvNXoBsw0Mo/gOPGjWPKlCm8+OKLBAYGes3JO3jwIKNGjWL79u2WlF9eXs7111/PihUrLBsLeLYiw4Lp2bYRPds2+vnfSsrKSTmeTXJ6NsnHszmSmUtaVh7p2afIyDllbMeKiNAgkupGk1Q3isS60TSuF0OHpvVpmRSHfy2fl9M5cuQIY8aM4fvvvyc01NzqSw71AIoBpnoAdfu3VpQBHwAvAN950wtTAHSdcmAczvGAraw80Jw5c9izZw/z58+nfv36Hn/ivv32W8aOHUtGRoalx1m1ahVPPfUUM2fOdLtzEBwYQOtG8b87vs7ucJCVW0h2fiH5RSXkF5ZwqqiU/KISSst+f/mZ0OBAIkKDiAgN/vlnQmwEUeEhHnd9rFy5kiuvvJL0dOeWhSYDvGYBi5EAGGtmF5CUlBSdTNfJBObgXM7NK1f0VwB0rRPACGAdUNfqP4o9e/Zk3rx5Ltk/2AoVFRU888wz3HvvvZSVlbnkmPfddx8XXHABPXr08Jjz5GezER8TTnxMuM+9oebMmcPNN9/8q+vDZnAwogKg1FRUeIix2fDqAbT+zw6wDJgHfAKUePOL9VN7u9x+YBTOHUMslZqayuDBg5k6dSr5+fkedZIOHjzIBRdcwMyZM10W/sC5pdzEiRM5fvy4rlQ3lp2dzRVXXMHUqVP/5/owGwCVAKVmGmgGsCfYinMZlyY4O2ne9/bwpwBYe9YCkwC71QdyOBzMmTOHLl26sGLFCrc/MXa7neeff56OHTuyatWqWqnD3r17GTBggBZcddc3z9q1nHvuuSxYsOB3/3+jAVBjAKWGtASMe/6pAdYAdwEtgK7APwGfWmRRAbD2LKy8+Fzi0KFDDB48mHHjxrF37163PCFr1qyhX79+3HHHHcZmcdY0BGrMjfsoKSlh5syZ9OvXj0OHDv3h7+kWsCgAyu8oBZYCU4FEoC/wDHDQV0+IAmDteg540FUHczgcLFy4kA4dOjB16lS3WU9q586dXHHFFfTr14+1a9e6TeMcPHiQvn37snr1al2ptWzVqlV06dKFJ598Erv99B3nugUs3hoADx8+rBNaxY9xYC4wAagHDMc5sSNdp0YB0B08hLPr2WXKy8uZM2cOrVu35tZbb2XXrl218sK3bdvGxIkT6dSpEwsWLHDLP7ZHjhxh0KBBPPbYY2cMHmJeTk4OU6ZMYeDAgezZs+esnmOzaXlT8b4AmJ2dTV5enk7o6e0D/oVziFVjnLd3JwPvAbk6PQqA7ujvOBeKdqlTp04xe/Zs2rdvT/fu3Xnrrbcsn3CRl5fHW2+9xYUXXkiXLl1455133D5YlZeXc8899zBs2DDdEnbhOX/llVdo3bo1r7/+epW+HGgZGPHGAKjPnv/9mAC2Aa8BVwNJQGucO2+9Bai79Ay0DIz7uAsIBqbXxsE3bdrEpEmTuO222xg6dCjDhw9n2LBhRtYRTE1NZeXKlSxbtowPP/yQwsJCj2ygL7/8knbt2jFz5kzuvvtugoODddVaYPny5dx5551s27atWs832QNoVwKUGmqgRaBNKKwMe1t+8fgRH5ipqwDoGxzALTgHqt5RW5XIzs5m/vz5zJ8/Hz8/P7p27Uq3bt1o06YNbdu2pV27djRt2pSAgP+9dE6ePMmRI0dITU3l8OHDfPfdd6xatYrk5GSvaaSioiIefPBB3nvvPZ5++mkuvvhiXbmGfPPNNzz44IOsXFmz7TU1BlDcRWCAv7EtE30kABbhXCrtAM7buT9Uhr29ONfoEwVArw6BM3AOUP0ntbxXs91uZ/PmzWzevPl3///Q0FBCQpw7R5SUlHhsz1517Nmzh0suuYQePXrwwAMPMHLkSF291fT111/z0EMPGVv2R2MAxV3Uj43Az9D16EUBMAtIqQx6P4W9A5X/fVRXjQKgr3sCyMA5W8lt26ioqKjWl2upbd9//z0XX3wxPXr0YMaMGYwZM4agoCBdwWdQWlrK/Pnzef755//wC4Y7BED1AEpNuNkSMOtxjourD8RX/oytQXkVQB7O27MlQA5QAByvfGTg3EIt4zf/VqorQwFQTm9u5Tel/wKhOh3uHwTHjx9PgwYNuOmmm5gyZQpJSUk6Mb+RkpLC3Llzee211yzbbcXsQtAi1edmu4C8Vvl35VdvFyDmN/8W+ZtsEAqEANmVQa8QyMc5CUMUAMUii4AhOBeNbqDT4f7S0tL4xz/+waOPPsrAgQOZMGECY8aMISYmxmfPSVFREZ988glz585l+fLlls/61ixgcRcmewANzAJO/YPvONm/+bdstZxv0DIw7m8tcC7ObWukCn+7gXeppU6ciooKvvrqK2644QYSEhIYPnw4s2fPZv/+/T5x8gsLC1m4cCHjx4+nXr16jB8/nmXLlrlkyR/dAhZvC4ClpaUmesy1jYj8inoAPUMacAHOtQKn63Sc0SngWuBDnDPJHqjNypSUlLB06VKWLl0KQMuWLenXrx/9+vXj/PPPp02bNl5x0vfv38/SpUtZsmQJ33zzTa1NClIAFG8LgEeOHKnplycHWhdPFAA9VilwM7AO5+SQMJ2S3/+sBC4DNlX+7wdxLi3wuDsFpf379zN3rnM4Tnx8PN27d+fcc8/9+dGoUSO3PslFRUVs3ryZDRs2sGHDBtatW6eFakUsCoAGxv+lA8VqEVEA9Gzv4FwQcx5wjk7Hr7xXGZJP/ubfn8A52Pmf7ljpzMxMlixZwpIlS37+t7p169K+fXvatm1L27Ztad++PW3atKFhw4a/uwajVRwOB0ePHuXgwYPs37+fTZs2sX79erZt22b5rjHVZfI2s5aUkZqoH+s2u4Co908UAL3Ej0Bv4G7gXsDX1x3JAP4MfHCa33kcZy/q09Ty+opn48SJE6xatep/1sbz9/cnISGBJk2a0KhRIxo2bEhiYiIxMTG/+/ijAFNcXExubi65ubnk5eWRk5NDTk4O2dnZpKSkcOjQIQ4ePEhycjIlJZ612H5Fhbn1Yv39FAClemIjQwkJMvMn1kAPoAKgKAB6kTLgYeAjnFP7u/voefgUmIJznOSZPItznaqX8dAJUBUVFRw9epSjR7VeqisCoMkZxeJb3GwJGI3PkP/9fNMp8HjbgfOB+3Guz+QrsoDxwCVnGf5+8howEedEEVEAPC31AEp1udki0MfVIqIA6J1+6g1sDfwL794zsQjnbdw2OBfJro73cPaYbtWlowB4+gCoj0jxigBYpBYRBUDvdhS4CeiMcxFpbwu5c4BWwF9w9gDWxB6c4yhf1WXjXcrLzW1Q4KceQHGDAHj4cI2H8CkAigKgj9gJjAL6Ad96+Gux4+zp6wBMxexm4cXAn4ArgVxdNt5Bt4DFmwLgiRMnKCgoMPFZJ6IA6ENWA/1xLhfzOs4JEJ7iFM7JLefgHOu3z8JjvQ+0Bd5C278qAP7yA1K3gKXaATDKSDmG1tdUD6AoAPqoLThnyibi7EXb7sZ13VRZx0RgMq4bp3ccmAQMwLnMjigA4qd1AKXaAdBtFoFWABQFQCEP5zi6zji3lpuFtT1rZysdeAZoj3Nyxhwgv5bq8i3OXsc70aboHsnhcBjbwk23gKU6ggL9iY0IdacAqFvAogAozr+RwArgNpwzh1vg7HVbgGuWR8kDluNcyLo7zt6+u4BdbnJ+ynGuGdi4so4Kgh7G1EQQTQKR6kioE4mpzmP1AIpVtBC0ABzE2ev20x7DPYB2OMfF/fRoTNV30KjA2buXChwC1gDf4Jyk4glj7U7h3EbuVeD2ykeMLhf3V1FRQWBgYI3L0TIwUt0AaIp6AEUBUFylEFhZ+filsMogmAj8dG8jsvIa8gOicW61drTykYpzgeZyLzgnucBDwHPAtcB0nOsQinUOACU4hwVUKwCaoDGAUh0NDE0AUQAUBUBxl2C4ufLhq/KA2cCLwBDgZmAk4K/Lw4gKYBnO3VoWV57ragVAU7eA/f3VAyhV54Y9gLoFLAqAIgY4gC8rH0nAWGAc0EenploOA+/ivNWe/It/r3avhd1uNxMANQZQqiGprpkewJKSEtLT000Upa0vRQFQxLCjwAuVj7bABJyLcHfWqTmtI8CHwEKc61X+3pjQau9tbWwSiG4BSzUkxpkJgKmpqaZmtCsAigKgiIV2A/dXPhoCwysfQ3COl/R1e4FPgQ+AdZx5IlC1b1uZ6gHUQtBSHUl1o42Uc+jQIRPFlKExgKIAKOIyR3DuvvJ65fusG85bxH0rfyb4wDnIxznre2nl42AVn1/tP1rGxgDqFrBUUVCgP3HRYe4UAPPVKqIAKFI7yoHvKx/PV/5bM5xrIJ77i0esh7/GHcD6yscGnMv91KQrrtoB0NgsYAVAqaLEuChjQwcUAEUBUMT7HKp8LPjFvzXHuf5ie5zLzLTHOa7Q3YJhEc7evF2/CHubML/XdK0HQK0DKFUOgHXNLQGjACgKgCK+4WDl47Pf/Ht9oAnOcYWNfvPfCTgXp44xVIdynOseZuOc4HKwMqj+8udxF52P2u8B1CQQqaKkuGhzHwgHD5ooRgFQFABFPFR65WPDGX7vpyAYXfnzp60wgnEu5P1beZVh75ePAjd63boFLB5HPYCiACgirpZT+fAWJbUdAAO0ELRUkak1APPz88nKylIAFMvo001E3JVuAYvHMbUGoKHePwVAUQAUEd8JgMYWgtYtYKlqAHSvNQAVAEUBUER8JwCWlZUZqUBggLZ5lrMXGRZMVFiwuwXAPLWMKACKiCep9hjAkpISIxUIDtAwaTl7pm7/grEZwAAn1TKiACginqTaPYBFRUVGKhAUqB5AOXtJ7jcDWAFQFABFxHcCYHGxma1PFQClKkyN/1MAFAVAEVEArMUAGByoW8BShQBo8BZwSkqKAqAoAIqIAqACoLi7hoZ6ANPT0zl16pQCoCgAiohPqvZAPt0CltpgahcQg7d/wbmto4gCoIh4jAqcexPXWgBUD6CcLZsNEupEumMAzFLriAKgiHiaaiU5Yz2AWgdQzlJcVDghQWa+MBgMgKeAUrWOKACKiAJgFagHUM6WloARBUARES8JgIEB/mg7YDm7AKglYEQBUETEKwKgzabt4OTsJNZ1y11ANP5PFABFRAGwOkJ0G1jOJgAaWgOwoqKCI0eOmKpWulpGFABFRAGwGoIUAOUsmBoDePjwYcrKykxV67haRhQARcQTVWstQLMBULeA5cxMbQNneAkY9QCKAqCIeKT82g6AwQHqAZTTC/D3o35MhJGyDI7/A/UAigKgiHioau2HpR5AcaWEOpH4+ZmZLm64B1ABUBQARcQj1X4PoMYAyhkkuucagKBbwKIAKCIKgNWjHkA5k6Q4t1wDENQDKAqAIuKhqnULuKioyFgF1AMoZ+KmPYAVwAm1jigAiogncoNbwOoBlNMztQRMUVER6enG7tqeqAyBIgqAIqIAWFVaB1DOHADNLQHjcDhMVUu3f0UBUEQUAKsdALUVnJyBqV1ADI//S1XLiAKgiPhUADQ5BjAkKFCtIH8oLDiQ2MhQBUBRABQR8aYAGBaiACh/rEGc2y4Bc0StIwqAIuKpqjULuLS0lNLSUiMVCFUPoJyGqfF/FgTAFLWOKACKiKfKr/YT8/ONVEA9gHL6AOi2PYC6BSwKgCKiAFhd4SFBagU5TQB02x5ABUBRABQR3wuAp06dMlKB0GD1AMofa1TPTAA8efIkubm5pqpVDqSpdUQBUEQ81SmgWgujGesBDFYPoJwmAMbHGCnHcO/f0coQKKIAKCIeqQKo1pReYz2AGgMof/QH1M9Gg7hII2Xt37/fZNV0+1cUAEXE4+VV50nGJoHoFrD8gcS4KAINLRS+b98+BUBRABQR+YWC6jzJVA+gZgHLHzF1+xeM9wDuV+uIAqCIeLpqdeWZ6wHUGED5gwBYz20D4D61jigAiohPBkBTPYARoQqA8kcB0NwSMAqAogAoIvJr1Vobw9SSGsGBAQQZGuclXhYADd0Czs/PJz093WTVDqh1RAFQRDzdyeo8KScnx1gFIsKC1QryvwHQUA+g4Qkg2UCWWkcUAEXE01Xrj5nJABilACi//ePpZyMxzsw2cIZv/+5V64gCoIh4g1rvAYwMVQCUX2tQx22XgNEMYFEAFBGvUK0ewOzsbHMBUD2A8htuPAFEAVAUAEXEdwOg0R5ABUD5jcZaAkYUAEVEFADFtzR030Wgt6t1RAFQRLxBtcYAGr0FrDGA8humbgGfOnXK5BIw5cButY4oAIqIN6hWD2BJSQnFxcVmAqB6AOW3AdBQD+C+fftwOBymqrUPKFHriAKgiPhsAARzvYBRYSFqBfmZv58fiXXdcgkY3f4VBUAR8RoFQLW68kwFwNjIULWC/CwpPsrY7jAKgKIAKCLyx6o1SOrEiRNGDh4ToQAo/69p/TrGylIAFAVAEZE/lladJ2VmZho5eKwCoPxCswaxxsravdvonI0f1TqiACgi3uR4dZ5krAdQt4DlF5ommOsB3LNnj6miioCDah1RABQRb1KrPYCRocEE+OvjUpyaJZjpAUxPTycrK8tUtXYAFWodUQAUEW9Sqz2ANhtEhWsmsDg1qW8mABq+/btRLSMKgCLibWq1BxA0DlCc6kaHG1sX0nAA3KTWEQVAEVEANBwANRNYAJomuO0EkA1qHVEAFBFvU6u3gAHiosLUCuKuAbAY2KXWEQVAEfE2td4DWDc6XK0gRtcA3LXLWGbbDJSpdUQBUES8TQbVmOGYnp6O3W43UoH4GAVAMbcGYGFhIYcPHzZVLY3/EwVAEfFKZcCxKj+prMzYbeB49QAK5m4B796929iXE+B7tYwoAIqItzpUnScdO3bMyMHVAygRoUHUi4k0FgAN0hIwogAoIl4ruTpPOnr0qKEAGKEW8HGtG8Vjs5kpy2AAPAnsUeuIAqCIeKva7QHULWCf165xPWNlGZwAsgqwq3VEAVBEvFVybQbA0OBAIkKD1Ao+rE2jeHcMgN+qZUQBUES8Wa32AALU021gn9bWUA9gYWGhyVvAq9QyogAoIt4subYDYGLdKLWCjwoJCqCpoT2At27dSkVFhYmi8oEf1DqiACgi3uwI1Vjs1tQkEIDEuGi1go9q3TAePz8zM0C2bNliqlprgHK1jigAiog3qwCqvHLuoUOHjFUgST2APqtD0/rGyjIYAHX7VxQARcQn7KvqE3JycsjJyTFycN0C9l3dWiUZK2vTJmMbdygAigKgiPiE7dV5kqlewKQ4BUBfZLNB15aJRsoqLS1lx44dJorKBTaodUQBUER8QbX+cpoKgA3jNQbQFzVrEEedyFAjZf3444+UlpaaKGo51RgTK6IAKCI+EwAPHjxo5OBhIUHERISqFXxMN0O9fwDff29s294v1DKiACgivhQAq7zrQXJysrEKNEuIVSv4mHMMjv9buXKlAqAoAIqIVFEB1VgQ2lQPIECLpDi1gg+x2cwGwG+/NbJxxw4gVa0jCoAi4kuqfBt4//79xg7evIECoC9p06ge8TFm9oE+cOCAqXUpl6plRAFQRHxNlWcCHzx4kKKiIiMHb5FYRy3gQwZ0aW6sLIO3fxUARQFQRBQAz6SiosLY3qstEtUD6Ev6d25mrCxDt3/zgG/VMqIAKCK+Zlt1nmRo7TViIkKJiwpTK/iA+rGRtG4Yb6y8VauMrNv8KVCi1hEFQBHxNTuBk7UVAAE6NW+gVvAB/Ts3w2Zm+19SUlJMTUZaqJYRBUAR8UUOYH1Vn7R9+3ZjFeisAOgTBnVtYaysxYsXmyjmFBr/JwqAIuLD1lT1CSZ7ADs3T1ALeLl6sRF0b9PQWHmLFi0yUcxnQJFaRxQARcRXra3qE5KTkzlx4oSRg7dvUp/AAH+1ghe79Pz2+PmZuf+bl5dnagbwB2oZUQAUEV+2gSrug+pwOPjuu++MHDwo0J+uLXQb2FvZbDCyd1tj5S1dutTE/r9FwOdqHVEAFBFfVgBsreqT1q1bZ6wCg7q1UCt4qa4tEmkUH2OsPIO3fwvUOqIAKCK+rsrjANeuXWvs4AO7tjA2Q1Tcy6V9Ohgrq7y8nCVLlpgo6j9qGVEAFBGpRgDcsGEDZWVlRg5eLyaCHm0bqRW8THx0OBf1aG2svBUrVnDy5MmaFpOGZv+KAqCICACrcS4Jc9YKCwvZunWrsQpcObCLWsHLTBjSjSCDE3z+8x8jHXdvA+VqHVEAFBFx9or8UNUnff65uXH0/To1I7FulFrCS0SEBjG6b0dj5eXm5vLRRx+ZKGquWkcUAEVEfpHnqvqEDz4wt5KGn5+Ny/t1Uit4iSsHdSEiNMhYefPnz6ewsLCmxXwH7FLriAKgiEgNAuC2bdvYt2+fsQqM6tOeoECtCejpIkKDuGpQV6Nlzp1rpONunlpHFABFRH5tPZBV1SeZ7AWMiQhlWI82agkPd+OInsRGhhorb+/evaxfv76mxeQD/1XriAKgiMivVQBVHmRlMgACjBvYWS3hwRrXj+HKQWYn9Lzxxhs4HI6aFvNvIFctJAqAIiL/a35Vn7Bx40a2bdtmrALtGtfjnNZJagkPNWNsf6Nb+xUUFPDGG2/UtBg78KJaRxQARUR+3wogvapPeumll4xW4sbhPdUSHuj8jk3o26mp0TJfeeUVsrKyalrMZ8B+tZAoAIqI/L4KYGFVn/T222+bWKD3Zz3bNaJzc+0P7Ekiw4L5+4QLjJZZUlLC888/b6Ko59VCogAoInJ671f1CYWFhcybN89oJa4b1l0t4UHuu2YwCXUijZb51ltvcfTo0ZoW8yPwtVpIFABFRE5vNc6Foatk9uzZVFRUGKtE/87N6NoyUa3hAUb16cAF3VoaLdNut/PUU0+ZKOp5tZAoAIqInMXfXqDKU3uTk5NZutTsFqu3ju6DzaYGcWdNE2K584r+xsv98MMP2bt3b02LScG59ZuIpbR6qYh4i1PA9VV90smTJ5k4caKxStSvE8n+oyc4dDxbLeKGYiJCefn20dSNDjdabllZGePGjTMx+WMmsEEtJVZTD6CIeIs1wLGqPumLL74w0WvzKzdf1oegAH2/djfBgQE8P/0SGteLMV72iy++yJ49e2paTAra+UNcRJ9QIuItHEBToFdVn1hUVMSll15qrCLRESFU2B1s2ntUreIm/Gw2HrtxOL3aNTZedmZmJmPHjqW4uLimRan3T1z3ntApEBEv8n51nvTWW2+RmppqtCLXDetOk/qxahF3+EPnZ+PeawZzQbcWlpR/3333kZOTU9Ni1PsnLqUeQBHxJkeAG4CoqjypoqKC8vJyRowYYe7D1c+PVg3r8ul3u9QqtSgwwJ9HJ1/E8F5tLSl/69atTJs2zcS2b38FvleLicu+GOkUiIgXsQMLqvPEN954g+PHjxutzDmtkhjbX/sE15bQ4ECe/fPFDDm3lSXlOxwObrvtNhNLCe0A5qrFxJXUAygi3iYXuLGqTyovL6e8vJxhw4YZrUzPto349sdDZOUVqmVcKD46nOemX0L31g0tO8bzzz/PnDlzTBQ1CdinVhNX0mpVIuKNn2sHgGZVfWJgYCA7d+6kZUuzCwSnZuQw8bH/UlhcqtZxgXNaJfHYjcOML/XySzt27KB79+4mJn4sBi5Vq4mrqQdQRLxRLDCwqk+y2+1kZGQwduxYo5WJDg8hPjqcb7YeVMtYmfxtzsk3D103lPDQIMuOU1RUxNChQ0lLS6tpUaXAaCBLrScKgCIiNZcM3EY17nLs3LmTESNGkJSUZLRCrRvFU1pewQ/7j6l1LFAvNoLHbhjG2P6dsFm8Fcudd97Jp59+aqKo54H31HpSK1+YdApExEt9AwyozhMHDhzIihUrjFfI4YD75n7B0g171DqG+PnZGDegM9NHnUdYSJDlx1uyZAkjR440Mes3HWgL5KgVpTaoB1BEvDYbAKOq88Tk5GRat25Np06dzH7jtkH/zs3ZdjCNoyfy1EI11CqpLk//6WJG9+1IoAt2Xjlw4AAXX3wxBQUFJoq7DtiiVpTaoh5AEfFWkcDRyp9VVq9ePXbt2kWdOnWMV6yguJQ7XlrM5n3aKaRabRMbwY0jejKqT3v8/VyzmllmZibnnXceBw4cMFHcQmCcWlJqk3oARcRblQJJQM9qhbSCAk6ePGl0i7ifBAX4c1HPNhw4dpLk49lqqbMUExHKTSN78cjki+jULAE/m2v6MIqLixkxYgTbtm0zUVwWcDFQoBaV2qQeQBHxZq2A3VRz0XubzcY333xD//79LalceYWd++cuY9nGvWqp06gTGcpVF3Tlqgu6EhYc6NJj2+12rrjiCj744ANTRU4E3lGrigKgiIi1vgCGVvfJbdu2ZfPmzYSGhloTMBwOXvp4LW8u20TN5xV4l/ZN6nHloC5c2L01QQG1c8Pqrrvu4plnnjFV3KfAJWpZcQe6BSwi3i4HmFDdJ584cYKMjAwuucSav9s2m41e7RrTIjGO73amUFpe4dONFRjgz9Durbln4mCmXdKb1g3jXTbO75ccDgd/+9vfeOqpp0wVmY7z1u8pvSXFHagHUER84XNuN9C6JoX897//5corr7S0omkn83lg7jKfmxxis0GXFolc1KM1Q85pRWxkaK3Wx263M336dF599VVjRQIXAcv1dhQFQBER15kOvFiTAiIiIti0aROtW7e2tKIOByzZsJtn3l9FbkGxVzdK88Q4hpzTkhG92tIwPtot6lRRUcGNN97IvHnzTBZ7H/CI3oaiACgi4lpBwB6gaU0K6dGjB6tXryYoyPoFh0/mFzHn0+/4ePUOyivsXtEIAf5+dGmRSJ+OTejXuRnNEuq4Vf2Ki4u54oorWLx4scliv8Y5BrVCb0NRABQRcb1pwCs1LmTaNF555RWXVTo1I4d5SzeyZMMeyjxwfGB8dDjnd2xKn45N6NWuMeEu2K2jOjIzMxk3bhwrV640WexxoFvlTxEFQBGRWhCEcyxgs5oW9PjjjzNz5kzXBpScAj749kcWrd1JRrb7ziOIjw6na8tEurZM5JzWSbRMrIvNzf/SrFu3jiuuuIIjR46YLLYIuAD4Tm89UQAUEaldNwD/qvEHp83Gu+++y1VXXeXyF2C3O9iw+zBfbd7Pyq0HOJlfVKsntEn9WLq2TKRbZehzl7F8Z2vWrFn85S9/obS01GSxDpzr/b2rt5woAIqI1D5/YAfQpqYFBQcH88UXXzBgwIBaezF2u4NdqRls2nuEjXuPsDM5g5xT1gTC4MAAmtSPoWVSXdo0iqdNo3haN4onKizYIy+E/Px8brrpJubPn29F8XcDT+jtJgqAIiLu4yrgPRMFxcbGsnr1atq3b+82Ly4j5xT7j2SRmpFD2sk80rLyyTlVRG5BMfmFJRSXlv38u+V2BwF+NsJDgggOCiAyNJjYyDDqRodRNzqcutHhNK4XQ6N60dSLiXT7W7lna+PGjVxzzTXs3r3biuL/Bdykt5mIiIj7WY7zNl2NH/Xr13ds2bLFIe6voKDAMXPmTIe/v7/DVPv/5rEMCNTbS0RExD21wjlI38gf/piYGMfq1auVsNzYp59+6mjSpIlVwc8BrAYi9NYSERFxbw+aDABhYWGOpUuXKmm5mbS0NMekSZOsDH4OYC0QqbeUiIiI+wsGdpkMAsHBwY4PPvhAqcsN5OfnOx555BFHdHS01eFvHRClt5OIiIjnGIBzn1ZjgcDf39/xwgsvKIHVkqKiIsezzz7riI+Ptzr4OYDNQKzeRiIiIp7nLSvCwYQJExwFBQVKZC5SWlrqePPNNx3NmjVzRfBzAN8AMXr7iIiIeKZInDuEGA8J3bp1c+zevVvpzOJbva+88oqjRYsWrgp+DuBDIFRvHREREc/WGSiwIiyEhoY6XnjhBYfdbldaM2j//v2OmTNnOurUqePK4OcAXgD89JYRERHxDhOtDA4jRoxwJCcnK7nVgN1udyxZssQxYsQIh5+fn6uDnx3nzHERERHxMv+yMkSEh4c7nnzySUdZWZnSXBUcOHDA8fDDDztat27t6tD30yMXGK23h4iIiHcKATZaHSg6dOjgWLRokZLdGdbve+GFFxy9e/eurdD302MX0F5vDREREe/WBDjhinDRr18/x5o1a5T2KmVlZTnmzp3ruPDCC63crq0qj3eBcL0lREREfMMwoNRVQaNv376OxYsX++REkR07djgef/xxx5AhQxyBgYHuEPocQDFwi94GIiIivmc8UOHK4NGpUyfHyy+/7MjJyfHawJeTk+NYsGCBY/LkyY4GDRq4S+D75WMb0FWXv4iIiO/6c22EkNDQUMc111zjWL58uaO8vNyjA19mZqbj448/dsyYMcPRq1cvR0BAgDuGPgdQBjwOBOmyFxERkXtrM5jExcU5rr/+eseiRYs8YmeRQ4cOOd58803HlClTHO3bt3fYbDZ3DXy/fOwEeuhSF19i0ykQETmjm4FZtf2ZGRQURM+ePRk4cCADBw6kR48eREVF1UpdHA4HBw4cYMuWLWzZsoUffviBLVu2cPz4cU9q10LgKeCfQIkuc1EAFBGR35oKvIwb7QJhs9lo1qwZXbp0oUuXLrRq1YqmTZvStGlTGjRogM1Ws4/4goICjh49Snp6Ovv372ffvn0//9y3bx8FBQWe3J6fVgb7FF3aogAoIiKncw3OxaLdfpxYcHAwCQkJxMbG/urh7+//u0GvuLiY3NxcCgoKyMzMJC0tzdMD3h/ZDtwKrNDlLCIiImerD5CO+49r0+PXjxRgCuCvS1hERESqoznOniQFK/d/pAMzgWBdtiIiIlJTUcBHClhu+ziE81ZvqC5VERERMW0ScEqBy20emyvbJECXpoiIiFipHbBF4atWF3H+EBioS1FERERcKRh4GOc+sgplrnkk41yoO1GXn4iIiNSm1sCXCmeWPQqA94DhuNGajCIiIiIAVwFHFNiM3eL9DJgIROjSEhEREXcWCtwOHFeIq/KjCFgETAbq6lISERERTxMO/BXIVLA77eMoMA+4vPKciYiIiHi8COBPwI8KeziAfGAxzvX62uvyEBEREW93LvAmUOpDga8c2Ag8DgzBA/ZUFvFWNp0CEZFaVQ8YA4wDBuBde9XmAt8Baysf63H2+omIAqCIiFSKB0ZXBsK+eN44uP2/CHtrgR2AXc0qogAoIiJnJxDoAfTH2TPYF/dZAqUC2Av8UPnYUvk4oWYTUQAUERFz/IDmQGegY+WjE9AUCLHomMeBA7957AO2A4VqEhEFQBERqT11gQSgEVC/8hEFBAAxlT8jK3+3nP8fh5df+b8zcfbenaj87/TKnwp5Il7q/wBzkp0A4ArTSgAAACV0RVh0ZGF0ZTpjcmVhdGUAMjAyMi0wMy0yMFQwNDo1MDowOCswMDowMNenMa8AAAAldEVYdGRhdGU6bW9kaWZ5ADIwMjItMDMtMjBUMDQ6NTA6MDgrMDA6MDCm+okTAAAAAElFTkSuQmCC;" vertex="1" parent="K1biZ6rLLo8ohPyC0jWG-34">
          <mxGeometry x="76.82" y="12.160000000000082" width="40" height="44.84" as="geometry" />
        </mxCell>
        <mxCell id="K1biZ6rLLo8ohPyC0jWG-14" value="Amazon&lt;br&gt;Aurora" style="sketch=0;points=[[0,0,0],[0.25,0,0],[0.5,0,0],[0.75,0,0],[1,0,0],[0,1,0],[0.25,1,0],[0.5,1,0],[0.75,1,0],[1,1,0],[0,0.25,0],[0,0.5,0],[0,0.75,0],[1,0.25,0],[1,0.5,0],[1,0.75,0]];outlineConnect=0;fontColor=#232F3E;gradientColor=#4D72F3;gradientDirection=north;fillColor=#3334B9;strokeColor=#ffffff;dashed=0;verticalLabelPosition=bottom;verticalAlign=top;align=center;html=1;fontSize=12;fontStyle=0;aspect=fixed;shape=mxgraph.aws4.resourceIcon;resIcon=mxgraph.aws4.aurora;" vertex="1" parent="K1biZ6rLLo8ohPyC0jWG-34">
          <mxGeometry x="12" y="102" width="40" height="40" as="geometry" />
        </mxCell>
        <mxCell id="K1biZ6rLLo8ohPyC0jWG-15" value="&lt;font color=&quot;#000000&quot;&gt;Oracle DB &lt;br&gt;instance&lt;/font&gt;" style="sketch=0;outlineConnect=0;fontColor=#FF9933;gradientColor=none;strokeColor=#232F3E;fillColor=none;dashed=0;verticalLabelPosition=bottom;verticalAlign=top;align=center;html=1;fontSize=12;fontStyle=0;aspect=fixed;shape=mxgraph.aws4.resourceIcon;resIcon=mxgraph.aws4.oracle_db_instance;" vertex="1" parent="K1biZ6rLLo8ohPyC0jWG-34">
          <mxGeometry x="76.82" y="102" width="40" height="40" as="geometry" />
        </mxCell>
        <mxCell id="K1biZ6rLLo8ohPyC0jWG-16" value="" style="sketch=0;outlineConnect=0;fontColor=#232F3E;gradientColor=none;fillColor=#000000;strokeColor=none;dashed=0;verticalLabelPosition=bottom;verticalAlign=top;align=center;html=1;fontSize=12;fontStyle=0;aspect=fixed;pointerEvents=1;shape=mxgraph.aws4.rds_mariadb_instance;" vertex="1" parent="K1biZ6rLLo8ohPyC0jWG-34">
          <mxGeometry x="12" y="202" width="40" height="40" as="geometry" />
        </mxCell>
        <mxCell id="K1biZ6rLLo8ohPyC0jWG-17" value="" style="sketch=0;outlineConnect=0;fontColor=#232F3E;gradientColor=none;fillColor=#000000;strokeColor=none;dashed=0;verticalLabelPosition=bottom;verticalAlign=top;align=center;html=1;fontSize=12;fontStyle=0;aspect=fixed;pointerEvents=1;shape=mxgraph.aws4.rds_sql_server_instance;" vertex="1" parent="K1biZ6rLLo8ohPyC0jWG-34">
          <mxGeometry x="76.82" y="202" width="40" height="40" as="geometry" />
        </mxCell>
        <mxCell id="K1biZ6rLLo8ohPyC0jWG-36" value="" style="line;strokeWidth=1;direction=south;html=1;fontColor=#000000;fillColor=none;" vertex="1" parent="1">
          <mxGeometry x="784" y="140" width="10" height="14" as="geometry" />
        </mxCell>
        <mxCell id="K1biZ6rLLo8ohPyC0jWG-37" value="High-traffic web applications, &lt;br&gt;ecommerce systems, &lt;br&gt;gaming applications" style="text;html=1;align=left;verticalAlign=middle;resizable=0;points=[];autosize=1;strokeColor=none;fillColor=none;fontSize=10;fontColor=#000000;" vertex="1" parent="1">
          <mxGeometry x="220" y="347.5" width="150" height="50" as="geometry" />
        </mxCell>
        <mxCell id="K1biZ6rLLo8ohPyC0jWG-38" value="" style="rounded=1;whiteSpace=wrap;html=1;fontSize=10;fontColor=#000000;strokeColor=#000000;strokeWidth=1;fillColor=none;" vertex="1" parent="1">
          <mxGeometry x="220" y="347" width="131" height="51" as="geometry" />
        </mxCell>
        <mxCell id="K1biZ6rLLo8ohPyC0jWG-39" value="Caching, session management, gaming &lt;br&gt;leaderboards, geospatial applications" style="text;html=1;align=center;verticalAlign=middle;resizable=0;points=[];autosize=1;strokeColor=none;fillColor=none;fontSize=10;fontColor=#000000;" vertex="1" parent="1">
          <mxGeometry x="394" y="476" width="200" height="40" as="geometry" />
        </mxCell>
        <mxCell id="K1biZ6rLLo8ohPyC0jWG-40" value="" style="rounded=1;whiteSpace=wrap;html=1;fontSize=10;fontColor=#000000;strokeColor=#000000;strokeWidth=1;fillColor=none;" vertex="1" parent="1">
          <mxGeometry x="403" y="479" width="180" height="34" as="geometry" />
        </mxCell>
        <mxCell id="K1biZ6rLLo8ohPyC0jWG-44" value="High-scale industrial apps for equipment &lt;br&gt;maintenance, fleet management,and &lt;br&gt;route optimization" style="text;html=1;align=left;verticalAlign=middle;resizable=0;points=[];autosize=1;strokeColor=none;fillColor=none;fontSize=10;fontColor=#000000;" vertex="1" parent="1">
          <mxGeometry x="638" y="369" width="200" height="50" as="geometry" />
        </mxCell>
        <mxCell id="K1biZ6rLLo8ohPyC0jWG-45" value="" style="rounded=1;whiteSpace=wrap;html=1;fontSize=10;fontColor=#000000;strokeColor=#000000;strokeWidth=1;fillColor=none;" vertex="1" parent="1">
          <mxGeometry x="636" y="374" width="184" height="38" as="geometry" />
        </mxCell>
        <mxCell id="K1biZ6rLLo8ohPyC0jWG-46" value="Fraud detection, social networking, &lt;br&gt;recommendation engines" style="text;whiteSpace=wrap;html=1;fontSize=10;fontColor=#000000;strokeColor=default;rounded=1;" vertex="1" parent="1">
          <mxGeometry x="1332" y="358" width="158" height="32" as="geometry" />
        </mxCell>
        <mxCell id="K1biZ6rLLo8ohPyC0jWG-48" value="" style="rounded=1;whiteSpace=wrap;html=1;fontSize=10;fontColor=#000000;strokeColor=#000000;strokeWidth=1;fillColor=none;" vertex="1" parent="1">
          <mxGeometry x="1197" y="371" width="114" height="44" as="geometry" />
        </mxCell>
        <mxCell id="K1biZ6rLLo8ohPyC0jWG-49" value="&lt;div&gt;Internet of Things (IoT)&lt;/div&gt;&lt;div&gt;applications, DevOps,&lt;/div&gt;&lt;div&gt;industrial telemetry&lt;/div&gt;" style="text;html=1;align=left;verticalAlign=middle;resizable=0;points=[];autosize=1;strokeColor=none;fillColor=none;fontSize=10;fontColor=#000000;" vertex="1" parent="1">
          <mxGeometry x="1202" y="370" width="130" height="50" as="geometry" />
        </mxCell>
        <mxCell id="K1biZ6rLLo8ohPyC0jWG-50" value="&lt;div&gt;&lt;br&gt;&lt;/div&gt;&lt;div&gt;Systems of record, supply chain,&amp;nbsp;&lt;/div&gt;&lt;div&gt;registrations, banking transactions&lt;/div&gt;" style="text;html=1;align=center;verticalAlign=middle;resizable=0;points=[];autosize=1;strokeColor=none;fillColor=none;fontSize=10;fontColor=#000000;" vertex="1" parent="1">
          <mxGeometry x="1000" y="390" width="180" height="50" as="geometry" />
        </mxCell>
        <mxCell id="K1biZ6rLLo8ohPyC0jWG-51" value="" style="rounded=1;whiteSpace=wrap;html=1;fontSize=10;fontColor=#000000;strokeColor=#000000;strokeWidth=1;fillColor=none;" vertex="1" parent="1">
          <mxGeometry x="1012" y="406" width="160" height="35" as="geometry" />
        </mxCell>
        <UserObject label="Reference to purpose build databases" link="https://pages.awscloud.com/rs/112-TZM-766/images/Enter_the_Purpose-Built-Database-Era.pdf" id="K1biZ6rLLo8ohPyC0jWG-52">
          <mxCell style="fontColor=#000000;fontStyle=5;rounded=1;overflow=hidden;spacing=10;fontSize=12;strokeColor=none;strokeWidth=1;fillColor=none;" vertex="1" parent="1">
            <mxGeometry x="860" y="89" width="270" height="40" as="geometry" />
          </mxCell>
        </UserObject>
        <mxCell id="K1biZ6rLLo8ohPyC0jWG-53" value="&lt;span style=&quot;color: rgb(84, 91, 100); font-family: &amp;quot;Amazon Ember&amp;quot;, &amp;quot;Helvetica Neue&amp;quot;, Roboto, Arial, sans-serif; text-align: start; background-color: rgb(255, 255, 255);&quot;&gt;© 2022, Scadip SL&amp;nbsp;&lt;/span&gt;&lt;span style=&quot;color: rgb(84, 91, 100); font-family: &amp;quot;Amazon Ember&amp;quot;, &amp;quot;Helvetica Neue&amp;quot;, Roboto, Arial, sans-serif; text-align: start; background-color: rgb(255, 255, 255);&quot;&gt;. All rights reserved.&lt;/span&gt;" style="text;html=1;align=center;verticalAlign=middle;resizable=0;points=[];autosize=1;strokeColor=none;fillColor=none;fontSize=12;" vertex="1" parent="1">
          <mxGeometry x="70" y="1070" width="230" height="20" as="geometry" />
        </mxCell>
      </root>
    </mxGraphModel>
  </diagram>
</mxfile>
